G04 #@! TF.GenerationSoftware,KiCad,Pcbnew,(5.0.0)*
G04 #@! TF.CreationDate,2019-09-04T21:02:57+09:00*
G04 #@! TF.ProjectId,syateki_gun_main,73796174656B695F67756E5F6D61696E,rev?*
G04 #@! TF.SameCoordinates,Original*
G04 #@! TF.FileFunction,Legend,Top*
G04 #@! TF.FilePolarity,Positive*
%FSLAX46Y46*%
G04 Gerber Fmt 4.6, Leading zero omitted, Abs format (unit mm)*
G04 Created by KiCad (PCBNEW (5.0.0)) date 09/04/19 21:02:57*
%MOMM*%
%LPD*%
G01*
G04 APERTURE LIST*
%ADD10C,0.150000*%
%ADD11C,0.300000*%
%ADD12C,0.200000*%
%ADD13C,0.120000*%
%ADD14C,1.924000*%
%ADD15C,3.600000*%
%ADD16C,2.000000*%
%ADD17O,2.000000X2.000000*%
%ADD18R,2.000000X2.000000*%
%ADD19C,1.800000*%
%ADD20R,2.400000X2.400000*%
%ADD21O,2.400000X2.400000*%
%ADD22R,3.400000X3.400000*%
%ADD23C,3.400000*%
%ADD24R,2.100000X2.100000*%
%ADD25O,2.100000X2.100000*%
%ADD26R,2.305000X2.400000*%
%ADD27O,2.305000X2.400000*%
%ADD28R,1.924000X1.924000*%
G04 APERTURE END LIST*
D10*
X35638095Y-142302380D02*
X35638095Y-141302380D01*
X36304761Y-141302380D02*
X36495238Y-141302380D01*
X36590476Y-141350000D01*
X36685714Y-141445238D01*
X36733333Y-141635714D01*
X36733333Y-141969047D01*
X36685714Y-142159523D01*
X36590476Y-142254761D01*
X36495238Y-142302380D01*
X36304761Y-142302380D01*
X36209523Y-142254761D01*
X36114285Y-142159523D01*
X36066666Y-141969047D01*
X36066666Y-141635714D01*
X36114285Y-141445238D01*
X36209523Y-141350000D01*
X36304761Y-141302380D01*
X37114285Y-141397619D02*
X37161904Y-141350000D01*
X37257142Y-141302380D01*
X37495238Y-141302380D01*
X37590476Y-141350000D01*
X37638095Y-141397619D01*
X37685714Y-141492857D01*
X37685714Y-141588095D01*
X37638095Y-141730952D01*
X37066666Y-142302380D01*
X37685714Y-142302380D01*
X38019047Y-141302380D02*
X38685714Y-141302380D01*
X38257142Y-142302380D01*
X39828571Y-142302380D02*
X39828571Y-141302380D01*
X39828571Y-141778571D02*
X40400000Y-141778571D01*
X40400000Y-142302380D02*
X40400000Y-141302380D01*
X40876190Y-142302380D02*
X40876190Y-141302380D01*
X41876190Y-141350000D02*
X41780952Y-141302380D01*
X41638095Y-141302380D01*
X41495238Y-141350000D01*
X41400000Y-141445238D01*
X41352380Y-141540476D01*
X41304761Y-141730952D01*
X41304761Y-141873809D01*
X41352380Y-142064285D01*
X41400000Y-142159523D01*
X41495238Y-142254761D01*
X41638095Y-142302380D01*
X41733333Y-142302380D01*
X41876190Y-142254761D01*
X41923809Y-142207142D01*
X41923809Y-141873809D01*
X41733333Y-141873809D01*
X42352380Y-142302380D02*
X42352380Y-141302380D01*
X42352380Y-141778571D02*
X42923809Y-141778571D01*
X42923809Y-142302380D02*
X42923809Y-141302380D01*
X43542857Y-142064285D02*
X44019047Y-142064285D01*
X43542857Y-141778571D02*
X44019047Y-141778571D01*
X43638095Y-142159523D02*
X43400000Y-141921428D01*
X43638095Y-141683333D01*
X43923809Y-141683333D02*
X44161904Y-141921428D01*
X43923809Y-142159523D01*
X45114285Y-142302380D02*
X44638095Y-142302380D01*
X44638095Y-141302380D01*
X45638095Y-141302380D02*
X45828571Y-141302380D01*
X45923809Y-141350000D01*
X46019047Y-141445238D01*
X46066666Y-141635714D01*
X46066666Y-141969047D01*
X46019047Y-142159523D01*
X45923809Y-142254761D01*
X45828571Y-142302380D01*
X45638095Y-142302380D01*
X45542857Y-142254761D01*
X45447619Y-142159523D01*
X45400000Y-141969047D01*
X45400000Y-141635714D01*
X45447619Y-141445238D01*
X45542857Y-141350000D01*
X45638095Y-141302380D01*
X46400000Y-141302380D02*
X46638095Y-142302380D01*
X46828571Y-141588095D01*
X47019047Y-142302380D01*
X47257142Y-141302380D01*
X42388095Y-59854761D02*
X42292857Y-59902380D01*
X42102380Y-59902380D01*
X42007142Y-59854761D01*
X41959523Y-59807142D01*
X41911904Y-59711904D01*
X41911904Y-59426190D01*
X41959523Y-59330952D01*
X42007142Y-59283333D01*
X42102380Y-59235714D01*
X42292857Y-59235714D01*
X42388095Y-59283333D01*
X42816666Y-59902380D02*
X42816666Y-58902380D01*
X43245238Y-59902380D02*
X43245238Y-59378571D01*
X43197619Y-59283333D01*
X43102380Y-59235714D01*
X42959523Y-59235714D01*
X42864285Y-59283333D01*
X42816666Y-59330952D01*
X44150000Y-59902380D02*
X44150000Y-59378571D01*
X44102380Y-59283333D01*
X44007142Y-59235714D01*
X43816666Y-59235714D01*
X43721428Y-59283333D01*
X44150000Y-59854761D02*
X44054761Y-59902380D01*
X43816666Y-59902380D01*
X43721428Y-59854761D01*
X43673809Y-59759523D01*
X43673809Y-59664285D01*
X43721428Y-59569047D01*
X43816666Y-59521428D01*
X44054761Y-59521428D01*
X44150000Y-59473809D01*
X44626190Y-59235714D02*
X44626190Y-59902380D01*
X44626190Y-59330952D02*
X44673809Y-59283333D01*
X44769047Y-59235714D01*
X44911904Y-59235714D01*
X45007142Y-59283333D01*
X45054761Y-59378571D01*
X45054761Y-59902380D01*
X45530952Y-59235714D02*
X45530952Y-59902380D01*
X45530952Y-59330952D02*
X45578571Y-59283333D01*
X45673809Y-59235714D01*
X45816666Y-59235714D01*
X45911904Y-59283333D01*
X45959523Y-59378571D01*
X45959523Y-59902380D01*
X46816666Y-59854761D02*
X46721428Y-59902380D01*
X46530952Y-59902380D01*
X46435714Y-59854761D01*
X46388095Y-59759523D01*
X46388095Y-59378571D01*
X46435714Y-59283333D01*
X46530952Y-59235714D01*
X46721428Y-59235714D01*
X46816666Y-59283333D01*
X46864285Y-59378571D01*
X46864285Y-59473809D01*
X46388095Y-59569047D01*
X47435714Y-59902380D02*
X47340476Y-59854761D01*
X47292857Y-59759523D01*
X47292857Y-58902380D01*
X44716666Y-53752380D02*
X44716666Y-52752380D01*
X45764285Y-53752380D02*
X45430952Y-53276190D01*
X45192857Y-53752380D02*
X45192857Y-52752380D01*
X45573809Y-52752380D01*
X45669047Y-52800000D01*
X45716666Y-52847619D01*
X45764285Y-52942857D01*
X45764285Y-53085714D01*
X45716666Y-53180952D01*
X45669047Y-53228571D01*
X45573809Y-53276190D01*
X45192857Y-53276190D01*
X46383333Y-52752380D02*
X46573809Y-52752380D01*
X46669047Y-52800000D01*
X46764285Y-52895238D01*
X46811904Y-53085714D01*
X46811904Y-53419047D01*
X46764285Y-53609523D01*
X46669047Y-53704761D01*
X46573809Y-53752380D01*
X46383333Y-53752380D01*
X46288095Y-53704761D01*
X46192857Y-53609523D01*
X46145238Y-53419047D01*
X46145238Y-53085714D01*
X46192857Y-52895238D01*
X46288095Y-52800000D01*
X46383333Y-52752380D01*
X47669047Y-53085714D02*
X47669047Y-53752380D01*
X47240476Y-53085714D02*
X47240476Y-53609523D01*
X47288095Y-53704761D01*
X47383333Y-53752380D01*
X47526190Y-53752380D01*
X47621428Y-53704761D01*
X47669047Y-53657142D01*
X48002380Y-53085714D02*
X48383333Y-53085714D01*
X48145238Y-52752380D02*
X48145238Y-53609523D01*
X48192857Y-53704761D01*
X48288095Y-53752380D01*
X48383333Y-53752380D01*
X50002380Y-52800000D02*
X49907142Y-52752380D01*
X49764285Y-52752380D01*
X49621428Y-52800000D01*
X49526190Y-52895238D01*
X49478571Y-52990476D01*
X49430952Y-53180952D01*
X49430952Y-53323809D01*
X49478571Y-53514285D01*
X49526190Y-53609523D01*
X49621428Y-53704761D01*
X49764285Y-53752380D01*
X49859523Y-53752380D01*
X50002380Y-53704761D01*
X50050000Y-53657142D01*
X50050000Y-53323809D01*
X49859523Y-53323809D01*
X50478571Y-53752380D02*
X50478571Y-52752380D01*
X51050000Y-53752380D01*
X51050000Y-52752380D01*
X51526190Y-53752380D02*
X51526190Y-52752380D01*
X51764285Y-52752380D01*
X51907142Y-52800000D01*
X52002380Y-52895238D01*
X52050000Y-52990476D01*
X52097619Y-53180952D01*
X52097619Y-53323809D01*
X52050000Y-53514285D01*
X52002380Y-53609523D01*
X51907142Y-53704761D01*
X51764285Y-53752380D01*
X51526190Y-53752380D01*
X53764285Y-52752380D02*
X53288095Y-52752380D01*
X53240476Y-53228571D01*
X53288095Y-53180952D01*
X53383333Y-53133333D01*
X53621428Y-53133333D01*
X53716666Y-53180952D01*
X53764285Y-53228571D01*
X53811904Y-53323809D01*
X53811904Y-53561904D01*
X53764285Y-53657142D01*
X53716666Y-53704761D01*
X53621428Y-53752380D01*
X53383333Y-53752380D01*
X53288095Y-53704761D01*
X53240476Y-53657142D01*
X54097619Y-52752380D02*
X54430952Y-53752380D01*
X54764285Y-52752380D01*
X30604761Y-52752380D02*
X31223809Y-52752380D01*
X30890476Y-53133333D01*
X31033333Y-53133333D01*
X31128571Y-53180952D01*
X31176190Y-53228571D01*
X31223809Y-53323809D01*
X31223809Y-53561904D01*
X31176190Y-53657142D01*
X31128571Y-53704761D01*
X31033333Y-53752380D01*
X30747619Y-53752380D01*
X30652380Y-53704761D01*
X30604761Y-53657142D01*
X31509523Y-52752380D02*
X31842857Y-53752380D01*
X32176190Y-52752380D01*
X32414285Y-52752380D02*
X33033333Y-52752380D01*
X32700000Y-53133333D01*
X32842857Y-53133333D01*
X32938095Y-53180952D01*
X32985714Y-53228571D01*
X33033333Y-53323809D01*
X33033333Y-53561904D01*
X32985714Y-53657142D01*
X32938095Y-53704761D01*
X32842857Y-53752380D01*
X32557142Y-53752380D01*
X32461904Y-53704761D01*
X32414285Y-53657142D01*
X34080952Y-52752380D02*
X34652380Y-52752380D01*
X34366666Y-53752380D02*
X34366666Y-52752380D01*
X34985714Y-53752380D02*
X34985714Y-53085714D01*
X34985714Y-53276190D02*
X35033333Y-53180952D01*
X35080952Y-53133333D01*
X35176190Y-53085714D01*
X35271428Y-53085714D01*
X35604761Y-53752380D02*
X35604761Y-53085714D01*
X35604761Y-52752380D02*
X35557142Y-52800000D01*
X35604761Y-52847619D01*
X35652380Y-52800000D01*
X35604761Y-52752380D01*
X35604761Y-52847619D01*
X36509523Y-53085714D02*
X36509523Y-53895238D01*
X36461904Y-53990476D01*
X36414285Y-54038095D01*
X36319047Y-54085714D01*
X36176190Y-54085714D01*
X36080952Y-54038095D01*
X36509523Y-53704761D02*
X36414285Y-53752380D01*
X36223809Y-53752380D01*
X36128571Y-53704761D01*
X36080952Y-53657142D01*
X36033333Y-53561904D01*
X36033333Y-53276190D01*
X36080952Y-53180952D01*
X36128571Y-53133333D01*
X36223809Y-53085714D01*
X36414285Y-53085714D01*
X36509523Y-53133333D01*
X36985714Y-53752380D02*
X36985714Y-52752380D01*
X37461904Y-53085714D02*
X37461904Y-53752380D01*
X37461904Y-53180952D02*
X37509523Y-53133333D01*
X37604761Y-53085714D01*
X37747619Y-53085714D01*
X37842857Y-53133333D01*
X37890476Y-53228571D01*
X37890476Y-53752380D01*
X39652380Y-52800000D02*
X39557142Y-52752380D01*
X39414285Y-52752380D01*
X39271428Y-52800000D01*
X39176190Y-52895238D01*
X39128571Y-52990476D01*
X39080952Y-53180952D01*
X39080952Y-53323809D01*
X39128571Y-53514285D01*
X39176190Y-53609523D01*
X39271428Y-53704761D01*
X39414285Y-53752380D01*
X39509523Y-53752380D01*
X39652380Y-53704761D01*
X39700000Y-53657142D01*
X39700000Y-53323809D01*
X39509523Y-53323809D01*
X40128571Y-53752380D02*
X40128571Y-52752380D01*
X40700000Y-53752380D01*
X40700000Y-52752380D01*
X41176190Y-53752380D02*
X41176190Y-52752380D01*
X41414285Y-52752380D01*
X41557142Y-52800000D01*
X41652380Y-52895238D01*
X41700000Y-52990476D01*
X41747619Y-53180952D01*
X41747619Y-53323809D01*
X41700000Y-53514285D01*
X41652380Y-53609523D01*
X41557142Y-53704761D01*
X41414285Y-53752380D01*
X41176190Y-53752380D01*
D11*
X36428571Y-48707142D02*
X37571428Y-48707142D01*
X37000000Y-49278571D02*
X37000000Y-48135714D01*
X49428571Y-48707142D02*
X50571428Y-48707142D01*
D12*
X35854761Y-44652380D02*
X36188095Y-45652380D01*
X36521428Y-44652380D01*
X36854761Y-45652380D02*
X36854761Y-44652380D01*
X37330952Y-45652380D02*
X37330952Y-44652380D01*
X37902380Y-45652380D01*
X37902380Y-44652380D01*
D10*
G04 #@! TO.C,U2*
X57210000Y-134580000D02*
X43750000Y-134590000D01*
X57210000Y-70830000D02*
X57210000Y-134580000D01*
X30290000Y-70830000D02*
X57210000Y-70830000D01*
X30290000Y-134580000D02*
X30290000Y-70830000D01*
X43750000Y-134580000D02*
X30290000Y-134580000D01*
D13*
G04 #@! TO.C,C1*
X27845225Y-60825000D02*
X27845225Y-61325000D01*
X27595225Y-61075000D02*
X28095225Y-61075000D01*
X33001000Y-62266000D02*
X33001000Y-62834000D01*
X32961000Y-62032000D02*
X32961000Y-63068000D01*
X32921000Y-61873000D02*
X32921000Y-63227000D01*
X32881000Y-61745000D02*
X32881000Y-63355000D01*
X32841000Y-61635000D02*
X32841000Y-63465000D01*
X32801000Y-61539000D02*
X32801000Y-63561000D01*
X32761000Y-61452000D02*
X32761000Y-63648000D01*
X32721000Y-61372000D02*
X32721000Y-63728000D01*
X32681000Y-61299000D02*
X32681000Y-63801000D01*
X32641000Y-61231000D02*
X32641000Y-63869000D01*
X32601000Y-61167000D02*
X32601000Y-63933000D01*
X32561000Y-61107000D02*
X32561000Y-63993000D01*
X32521000Y-61050000D02*
X32521000Y-64050000D01*
X32481000Y-60996000D02*
X32481000Y-64104000D01*
X32441000Y-60945000D02*
X32441000Y-64155000D01*
X32401000Y-63590000D02*
X32401000Y-64203000D01*
X32401000Y-60897000D02*
X32401000Y-61510000D01*
X32361000Y-63590000D02*
X32361000Y-64249000D01*
X32361000Y-60851000D02*
X32361000Y-61510000D01*
X32321000Y-63590000D02*
X32321000Y-64293000D01*
X32321000Y-60807000D02*
X32321000Y-61510000D01*
X32281000Y-63590000D02*
X32281000Y-64335000D01*
X32281000Y-60765000D02*
X32281000Y-61510000D01*
X32241000Y-63590000D02*
X32241000Y-64376000D01*
X32241000Y-60724000D02*
X32241000Y-61510000D01*
X32201000Y-63590000D02*
X32201000Y-64414000D01*
X32201000Y-60686000D02*
X32201000Y-61510000D01*
X32161000Y-63590000D02*
X32161000Y-64451000D01*
X32161000Y-60649000D02*
X32161000Y-61510000D01*
X32121000Y-63590000D02*
X32121000Y-64487000D01*
X32121000Y-60613000D02*
X32121000Y-61510000D01*
X32081000Y-63590000D02*
X32081000Y-64521000D01*
X32081000Y-60579000D02*
X32081000Y-61510000D01*
X32041000Y-63590000D02*
X32041000Y-64554000D01*
X32041000Y-60546000D02*
X32041000Y-61510000D01*
X32001000Y-63590000D02*
X32001000Y-64585000D01*
X32001000Y-60515000D02*
X32001000Y-61510000D01*
X31961000Y-63590000D02*
X31961000Y-64615000D01*
X31961000Y-60485000D02*
X31961000Y-61510000D01*
X31921000Y-63590000D02*
X31921000Y-64645000D01*
X31921000Y-60455000D02*
X31921000Y-61510000D01*
X31881000Y-63590000D02*
X31881000Y-64672000D01*
X31881000Y-60428000D02*
X31881000Y-61510000D01*
X31841000Y-63590000D02*
X31841000Y-64699000D01*
X31841000Y-60401000D02*
X31841000Y-61510000D01*
X31801000Y-63590000D02*
X31801000Y-64725000D01*
X31801000Y-60375000D02*
X31801000Y-61510000D01*
X31761000Y-63590000D02*
X31761000Y-64750000D01*
X31761000Y-60350000D02*
X31761000Y-61510000D01*
X31721000Y-63590000D02*
X31721000Y-64774000D01*
X31721000Y-60326000D02*
X31721000Y-61510000D01*
X31681000Y-63590000D02*
X31681000Y-64797000D01*
X31681000Y-60303000D02*
X31681000Y-61510000D01*
X31641000Y-63590000D02*
X31641000Y-64818000D01*
X31641000Y-60282000D02*
X31641000Y-61510000D01*
X31601000Y-63590000D02*
X31601000Y-64840000D01*
X31601000Y-60260000D02*
X31601000Y-61510000D01*
X31561000Y-63590000D02*
X31561000Y-64860000D01*
X31561000Y-60240000D02*
X31561000Y-61510000D01*
X31521000Y-63590000D02*
X31521000Y-64879000D01*
X31521000Y-60221000D02*
X31521000Y-61510000D01*
X31481000Y-63590000D02*
X31481000Y-64898000D01*
X31481000Y-60202000D02*
X31481000Y-61510000D01*
X31441000Y-63590000D02*
X31441000Y-64915000D01*
X31441000Y-60185000D02*
X31441000Y-61510000D01*
X31401000Y-63590000D02*
X31401000Y-64932000D01*
X31401000Y-60168000D02*
X31401000Y-61510000D01*
X31361000Y-63590000D02*
X31361000Y-64948000D01*
X31361000Y-60152000D02*
X31361000Y-61510000D01*
X31321000Y-63590000D02*
X31321000Y-64964000D01*
X31321000Y-60136000D02*
X31321000Y-61510000D01*
X31281000Y-63590000D02*
X31281000Y-64978000D01*
X31281000Y-60122000D02*
X31281000Y-61510000D01*
X31241000Y-63590000D02*
X31241000Y-64992000D01*
X31241000Y-60108000D02*
X31241000Y-61510000D01*
X31201000Y-63590000D02*
X31201000Y-65005000D01*
X31201000Y-60095000D02*
X31201000Y-61510000D01*
X31161000Y-63590000D02*
X31161000Y-65018000D01*
X31161000Y-60082000D02*
X31161000Y-61510000D01*
X31121000Y-63590000D02*
X31121000Y-65030000D01*
X31121000Y-60070000D02*
X31121000Y-61510000D01*
X31080000Y-63590000D02*
X31080000Y-65041000D01*
X31080000Y-60059000D02*
X31080000Y-61510000D01*
X31040000Y-63590000D02*
X31040000Y-65051000D01*
X31040000Y-60049000D02*
X31040000Y-61510000D01*
X31000000Y-63590000D02*
X31000000Y-65061000D01*
X31000000Y-60039000D02*
X31000000Y-61510000D01*
X30960000Y-63590000D02*
X30960000Y-65070000D01*
X30960000Y-60030000D02*
X30960000Y-61510000D01*
X30920000Y-63590000D02*
X30920000Y-65078000D01*
X30920000Y-60022000D02*
X30920000Y-61510000D01*
X30880000Y-63590000D02*
X30880000Y-65086000D01*
X30880000Y-60014000D02*
X30880000Y-61510000D01*
X30840000Y-63590000D02*
X30840000Y-65093000D01*
X30840000Y-60007000D02*
X30840000Y-61510000D01*
X30800000Y-63590000D02*
X30800000Y-65100000D01*
X30800000Y-60000000D02*
X30800000Y-61510000D01*
X30760000Y-63590000D02*
X30760000Y-65106000D01*
X30760000Y-59994000D02*
X30760000Y-61510000D01*
X30720000Y-63590000D02*
X30720000Y-65111000D01*
X30720000Y-59989000D02*
X30720000Y-61510000D01*
X30680000Y-63590000D02*
X30680000Y-65115000D01*
X30680000Y-59985000D02*
X30680000Y-61510000D01*
X30640000Y-63590000D02*
X30640000Y-65119000D01*
X30640000Y-59981000D02*
X30640000Y-61510000D01*
X30600000Y-63590000D02*
X30600000Y-65123000D01*
X30600000Y-59977000D02*
X30600000Y-61510000D01*
X30560000Y-63590000D02*
X30560000Y-65126000D01*
X30560000Y-59974000D02*
X30560000Y-61510000D01*
X30520000Y-63590000D02*
X30520000Y-65128000D01*
X30520000Y-59972000D02*
X30520000Y-61510000D01*
X30480000Y-63590000D02*
X30480000Y-65129000D01*
X30480000Y-59971000D02*
X30480000Y-61510000D01*
X30440000Y-59970000D02*
X30440000Y-61510000D01*
X30440000Y-63590000D02*
X30440000Y-65130000D01*
X30400000Y-59970000D02*
X30400000Y-61510000D01*
X30400000Y-63590000D02*
X30400000Y-65130000D01*
X33020000Y-62550000D02*
G75*
G03X33020000Y-62550000I-2620000J0D01*
G01*
G04 #@! TO.C,C4*
X38770000Y-62550000D02*
G75*
G03X38770000Y-62550000I-2620000J0D01*
G01*
X36150000Y-63590000D02*
X36150000Y-65130000D01*
X36150000Y-59970000D02*
X36150000Y-61510000D01*
X36190000Y-63590000D02*
X36190000Y-65130000D01*
X36190000Y-59970000D02*
X36190000Y-61510000D01*
X36230000Y-59971000D02*
X36230000Y-61510000D01*
X36230000Y-63590000D02*
X36230000Y-65129000D01*
X36270000Y-59972000D02*
X36270000Y-61510000D01*
X36270000Y-63590000D02*
X36270000Y-65128000D01*
X36310000Y-59974000D02*
X36310000Y-61510000D01*
X36310000Y-63590000D02*
X36310000Y-65126000D01*
X36350000Y-59977000D02*
X36350000Y-61510000D01*
X36350000Y-63590000D02*
X36350000Y-65123000D01*
X36390000Y-59981000D02*
X36390000Y-61510000D01*
X36390000Y-63590000D02*
X36390000Y-65119000D01*
X36430000Y-59985000D02*
X36430000Y-61510000D01*
X36430000Y-63590000D02*
X36430000Y-65115000D01*
X36470000Y-59989000D02*
X36470000Y-61510000D01*
X36470000Y-63590000D02*
X36470000Y-65111000D01*
X36510000Y-59994000D02*
X36510000Y-61510000D01*
X36510000Y-63590000D02*
X36510000Y-65106000D01*
X36550000Y-60000000D02*
X36550000Y-61510000D01*
X36550000Y-63590000D02*
X36550000Y-65100000D01*
X36590000Y-60007000D02*
X36590000Y-61510000D01*
X36590000Y-63590000D02*
X36590000Y-65093000D01*
X36630000Y-60014000D02*
X36630000Y-61510000D01*
X36630000Y-63590000D02*
X36630000Y-65086000D01*
X36670000Y-60022000D02*
X36670000Y-61510000D01*
X36670000Y-63590000D02*
X36670000Y-65078000D01*
X36710000Y-60030000D02*
X36710000Y-61510000D01*
X36710000Y-63590000D02*
X36710000Y-65070000D01*
X36750000Y-60039000D02*
X36750000Y-61510000D01*
X36750000Y-63590000D02*
X36750000Y-65061000D01*
X36790000Y-60049000D02*
X36790000Y-61510000D01*
X36790000Y-63590000D02*
X36790000Y-65051000D01*
X36830000Y-60059000D02*
X36830000Y-61510000D01*
X36830000Y-63590000D02*
X36830000Y-65041000D01*
X36871000Y-60070000D02*
X36871000Y-61510000D01*
X36871000Y-63590000D02*
X36871000Y-65030000D01*
X36911000Y-60082000D02*
X36911000Y-61510000D01*
X36911000Y-63590000D02*
X36911000Y-65018000D01*
X36951000Y-60095000D02*
X36951000Y-61510000D01*
X36951000Y-63590000D02*
X36951000Y-65005000D01*
X36991000Y-60108000D02*
X36991000Y-61510000D01*
X36991000Y-63590000D02*
X36991000Y-64992000D01*
X37031000Y-60122000D02*
X37031000Y-61510000D01*
X37031000Y-63590000D02*
X37031000Y-64978000D01*
X37071000Y-60136000D02*
X37071000Y-61510000D01*
X37071000Y-63590000D02*
X37071000Y-64964000D01*
X37111000Y-60152000D02*
X37111000Y-61510000D01*
X37111000Y-63590000D02*
X37111000Y-64948000D01*
X37151000Y-60168000D02*
X37151000Y-61510000D01*
X37151000Y-63590000D02*
X37151000Y-64932000D01*
X37191000Y-60185000D02*
X37191000Y-61510000D01*
X37191000Y-63590000D02*
X37191000Y-64915000D01*
X37231000Y-60202000D02*
X37231000Y-61510000D01*
X37231000Y-63590000D02*
X37231000Y-64898000D01*
X37271000Y-60221000D02*
X37271000Y-61510000D01*
X37271000Y-63590000D02*
X37271000Y-64879000D01*
X37311000Y-60240000D02*
X37311000Y-61510000D01*
X37311000Y-63590000D02*
X37311000Y-64860000D01*
X37351000Y-60260000D02*
X37351000Y-61510000D01*
X37351000Y-63590000D02*
X37351000Y-64840000D01*
X37391000Y-60282000D02*
X37391000Y-61510000D01*
X37391000Y-63590000D02*
X37391000Y-64818000D01*
X37431000Y-60303000D02*
X37431000Y-61510000D01*
X37431000Y-63590000D02*
X37431000Y-64797000D01*
X37471000Y-60326000D02*
X37471000Y-61510000D01*
X37471000Y-63590000D02*
X37471000Y-64774000D01*
X37511000Y-60350000D02*
X37511000Y-61510000D01*
X37511000Y-63590000D02*
X37511000Y-64750000D01*
X37551000Y-60375000D02*
X37551000Y-61510000D01*
X37551000Y-63590000D02*
X37551000Y-64725000D01*
X37591000Y-60401000D02*
X37591000Y-61510000D01*
X37591000Y-63590000D02*
X37591000Y-64699000D01*
X37631000Y-60428000D02*
X37631000Y-61510000D01*
X37631000Y-63590000D02*
X37631000Y-64672000D01*
X37671000Y-60455000D02*
X37671000Y-61510000D01*
X37671000Y-63590000D02*
X37671000Y-64645000D01*
X37711000Y-60485000D02*
X37711000Y-61510000D01*
X37711000Y-63590000D02*
X37711000Y-64615000D01*
X37751000Y-60515000D02*
X37751000Y-61510000D01*
X37751000Y-63590000D02*
X37751000Y-64585000D01*
X37791000Y-60546000D02*
X37791000Y-61510000D01*
X37791000Y-63590000D02*
X37791000Y-64554000D01*
X37831000Y-60579000D02*
X37831000Y-61510000D01*
X37831000Y-63590000D02*
X37831000Y-64521000D01*
X37871000Y-60613000D02*
X37871000Y-61510000D01*
X37871000Y-63590000D02*
X37871000Y-64487000D01*
X37911000Y-60649000D02*
X37911000Y-61510000D01*
X37911000Y-63590000D02*
X37911000Y-64451000D01*
X37951000Y-60686000D02*
X37951000Y-61510000D01*
X37951000Y-63590000D02*
X37951000Y-64414000D01*
X37991000Y-60724000D02*
X37991000Y-61510000D01*
X37991000Y-63590000D02*
X37991000Y-64376000D01*
X38031000Y-60765000D02*
X38031000Y-61510000D01*
X38031000Y-63590000D02*
X38031000Y-64335000D01*
X38071000Y-60807000D02*
X38071000Y-61510000D01*
X38071000Y-63590000D02*
X38071000Y-64293000D01*
X38111000Y-60851000D02*
X38111000Y-61510000D01*
X38111000Y-63590000D02*
X38111000Y-64249000D01*
X38151000Y-60897000D02*
X38151000Y-61510000D01*
X38151000Y-63590000D02*
X38151000Y-64203000D01*
X38191000Y-60945000D02*
X38191000Y-64155000D01*
X38231000Y-60996000D02*
X38231000Y-64104000D01*
X38271000Y-61050000D02*
X38271000Y-64050000D01*
X38311000Y-61107000D02*
X38311000Y-63993000D01*
X38351000Y-61167000D02*
X38351000Y-63933000D01*
X38391000Y-61231000D02*
X38391000Y-63869000D01*
X38431000Y-61299000D02*
X38431000Y-63801000D01*
X38471000Y-61372000D02*
X38471000Y-63728000D01*
X38511000Y-61452000D02*
X38511000Y-63648000D01*
X38551000Y-61539000D02*
X38551000Y-63561000D01*
X38591000Y-61635000D02*
X38591000Y-63465000D01*
X38631000Y-61745000D02*
X38631000Y-63355000D01*
X38671000Y-61873000D02*
X38671000Y-63227000D01*
X38711000Y-62032000D02*
X38711000Y-63068000D01*
X38751000Y-62266000D02*
X38751000Y-62834000D01*
X33345225Y-61075000D02*
X33845225Y-61075000D01*
X33595225Y-60825000D02*
X33595225Y-61325000D01*
G04 #@! TO.C,J1*
X38480000Y-46010000D02*
X48640000Y-46010000D01*
X38480000Y-44740000D02*
X38480000Y-52360000D01*
X38480000Y-52360000D02*
X48640000Y-52360000D01*
X48640000Y-52360000D02*
X48640000Y-44740000D01*
X48640000Y-44740000D02*
X38480000Y-44740000D01*
G04 #@! TO.C,J2*
X37630000Y-55520000D02*
X37630000Y-58180000D01*
X37630000Y-55520000D02*
X32490000Y-55520000D01*
X32490000Y-55520000D02*
X32490000Y-58180000D01*
X37630000Y-58180000D02*
X32490000Y-58180000D01*
X40230000Y-58180000D02*
X38900000Y-58180000D01*
X40230000Y-56850000D02*
X40230000Y-58180000D01*
G04 #@! TO.C,J3*
X46440000Y-55520000D02*
X46440000Y-58180000D01*
X51580000Y-55520000D02*
X46440000Y-55520000D01*
X51580000Y-58180000D02*
X46440000Y-58180000D01*
X51580000Y-55520000D02*
X51580000Y-58180000D01*
X52850000Y-55520000D02*
X54180000Y-55520000D01*
X54180000Y-55520000D02*
X54180000Y-56850000D01*
G04 #@! TO.C,SW1*
X47360000Y-140480000D02*
X47360000Y-137820000D01*
X42220000Y-140480000D02*
X47360000Y-140480000D01*
X42220000Y-137820000D02*
X47360000Y-137820000D01*
X42220000Y-140480000D02*
X42220000Y-137820000D01*
X40950000Y-140480000D02*
X39620000Y-140480000D01*
X39620000Y-140480000D02*
X39620000Y-139150000D01*
G04 #@! TO.C,R4*
X52270000Y-62170000D02*
X51940000Y-62170000D01*
X52270000Y-68710000D02*
X52270000Y-62170000D01*
X51940000Y-68710000D02*
X52270000Y-68710000D01*
X49530000Y-62170000D02*
X49860000Y-62170000D01*
X49530000Y-68710000D02*
X49530000Y-62170000D01*
X49860000Y-68710000D02*
X49530000Y-68710000D01*
G04 #@! TO.C,R5*
X52860000Y-68710000D02*
X52530000Y-68710000D01*
X52530000Y-68710000D02*
X52530000Y-62170000D01*
X52530000Y-62170000D02*
X52860000Y-62170000D01*
X54940000Y-68710000D02*
X55270000Y-68710000D01*
X55270000Y-68710000D02*
X55270000Y-62170000D01*
X55270000Y-62170000D02*
X54940000Y-62170000D01*
G04 #@! TO.C,R6*
X55860000Y-68710000D02*
X55530000Y-68710000D01*
X55530000Y-68710000D02*
X55530000Y-62170000D01*
X55530000Y-62170000D02*
X55860000Y-62170000D01*
X57940000Y-68710000D02*
X58270000Y-68710000D01*
X58270000Y-68710000D02*
X58270000Y-62170000D01*
X58270000Y-62170000D02*
X57940000Y-62170000D01*
D10*
G04 #@! TO.C,SW2*
X49280000Y-60450000D02*
X49280000Y-70250000D01*
X49280000Y-70250000D02*
X39480000Y-70250000D01*
X39480000Y-70250000D02*
X39480000Y-60450000D01*
X39480000Y-60450000D02*
X49280000Y-60450000D01*
G04 #@! TO.C,U2*
X42948095Y-135022380D02*
X42948095Y-135831904D01*
X42995714Y-135927142D01*
X43043333Y-135974761D01*
X43138571Y-136022380D01*
X43329047Y-136022380D01*
X43424285Y-135974761D01*
X43471904Y-135927142D01*
X43519523Y-135831904D01*
X43519523Y-135022380D01*
X43948095Y-135117619D02*
X43995714Y-135070000D01*
X44090952Y-135022380D01*
X44329047Y-135022380D01*
X44424285Y-135070000D01*
X44471904Y-135117619D01*
X44519523Y-135212857D01*
X44519523Y-135308095D01*
X44471904Y-135450952D01*
X43900476Y-136022380D01*
X44519523Y-136022380D01*
G04 #@! TO.C,C1*
X29683333Y-59407142D02*
X29635714Y-59454761D01*
X29492857Y-59502380D01*
X29397619Y-59502380D01*
X29254761Y-59454761D01*
X29159523Y-59359523D01*
X29111904Y-59264285D01*
X29064285Y-59073809D01*
X29064285Y-58930952D01*
X29111904Y-58740476D01*
X29159523Y-58645238D01*
X29254761Y-58550000D01*
X29397619Y-58502380D01*
X29492857Y-58502380D01*
X29635714Y-58550000D01*
X29683333Y-58597619D01*
X30635714Y-59502380D02*
X30064285Y-59502380D01*
X30350000Y-59502380D02*
X30350000Y-58502380D01*
X30254761Y-58645238D01*
X30159523Y-58740476D01*
X30064285Y-58788095D01*
X32357142Y-59902380D02*
X31785714Y-59902380D01*
X32071428Y-59902380D02*
X32071428Y-58902380D01*
X31976190Y-59045238D01*
X31880952Y-59140476D01*
X31785714Y-59188095D01*
X32976190Y-58902380D02*
X33071428Y-58902380D01*
X33166666Y-58950000D01*
X33214285Y-58997619D01*
X33261904Y-59092857D01*
X33309523Y-59283333D01*
X33309523Y-59521428D01*
X33261904Y-59711904D01*
X33214285Y-59807142D01*
X33166666Y-59854761D01*
X33071428Y-59902380D01*
X32976190Y-59902380D01*
X32880952Y-59854761D01*
X32833333Y-59807142D01*
X32785714Y-59711904D01*
X32738095Y-59521428D01*
X32738095Y-59283333D01*
X32785714Y-59092857D01*
X32833333Y-58997619D01*
X32880952Y-58950000D01*
X32976190Y-58902380D01*
X34166666Y-59235714D02*
X34166666Y-59902380D01*
X33738095Y-59235714D02*
X33738095Y-59759523D01*
X33785714Y-59854761D01*
X33880952Y-59902380D01*
X34023809Y-59902380D01*
X34119047Y-59854761D01*
X34166666Y-59807142D01*
G04 #@! TO.C,C4*
X35333333Y-59407142D02*
X35285714Y-59454761D01*
X35142857Y-59502380D01*
X35047619Y-59502380D01*
X34904761Y-59454761D01*
X34809523Y-59359523D01*
X34761904Y-59264285D01*
X34714285Y-59073809D01*
X34714285Y-58930952D01*
X34761904Y-58740476D01*
X34809523Y-58645238D01*
X34904761Y-58550000D01*
X35047619Y-58502380D01*
X35142857Y-58502380D01*
X35285714Y-58550000D01*
X35333333Y-58597619D01*
X36190476Y-58835714D02*
X36190476Y-59502380D01*
X35952380Y-58454761D02*
X35714285Y-59169047D01*
X36333333Y-59169047D01*
X37661904Y-59235714D02*
X37661904Y-59902380D01*
X37423809Y-58854761D02*
X37185714Y-59569047D01*
X37804761Y-59569047D01*
X38090476Y-58902380D02*
X38757142Y-58902380D01*
X38328571Y-59902380D01*
X39566666Y-59235714D02*
X39566666Y-59902380D01*
X39138095Y-59235714D02*
X39138095Y-59759523D01*
X39185714Y-59854761D01*
X39280952Y-59902380D01*
X39423809Y-59902380D01*
X39519047Y-59854761D01*
X39566666Y-59807142D01*
G04 #@! TO.C,J1*
X43166666Y-50902380D02*
X43166666Y-51616666D01*
X43119047Y-51759523D01*
X43023809Y-51854761D01*
X42880952Y-51902380D01*
X42785714Y-51902380D01*
X44166666Y-51902380D02*
X43595238Y-51902380D01*
X43880952Y-51902380D02*
X43880952Y-50902380D01*
X43785714Y-51045238D01*
X43690476Y-51140476D01*
X43595238Y-51188095D01*
G04 #@! TO.C,J2*
X41122380Y-57183333D02*
X41836666Y-57183333D01*
X41979523Y-57230952D01*
X42074761Y-57326190D01*
X42122380Y-57469047D01*
X42122380Y-57564285D01*
X41217619Y-56754761D02*
X41170000Y-56707142D01*
X41122380Y-56611904D01*
X41122380Y-56373809D01*
X41170000Y-56278571D01*
X41217619Y-56230952D01*
X41312857Y-56183333D01*
X41408095Y-56183333D01*
X41550952Y-56230952D01*
X42122380Y-56802380D01*
X42122380Y-56183333D01*
G04 #@! TO.C,J3*
X54632380Y-57183333D02*
X55346666Y-57183333D01*
X55489523Y-57230952D01*
X55584761Y-57326190D01*
X55632380Y-57469047D01*
X55632380Y-57564285D01*
X54632380Y-56802380D02*
X54632380Y-56183333D01*
X55013333Y-56516666D01*
X55013333Y-56373809D01*
X55060952Y-56278571D01*
X55108571Y-56230952D01*
X55203809Y-56183333D01*
X55441904Y-56183333D01*
X55537142Y-56230952D01*
X55584761Y-56278571D01*
X55632380Y-56373809D01*
X55632380Y-56659523D01*
X55584761Y-56754761D01*
X55537142Y-56802380D01*
G04 #@! TO.C,SW1*
X39024761Y-140483333D02*
X39072380Y-140340476D01*
X39072380Y-140102380D01*
X39024761Y-140007142D01*
X38977142Y-139959523D01*
X38881904Y-139911904D01*
X38786666Y-139911904D01*
X38691428Y-139959523D01*
X38643809Y-140007142D01*
X38596190Y-140102380D01*
X38548571Y-140292857D01*
X38500952Y-140388095D01*
X38453333Y-140435714D01*
X38358095Y-140483333D01*
X38262857Y-140483333D01*
X38167619Y-140435714D01*
X38120000Y-140388095D01*
X38072380Y-140292857D01*
X38072380Y-140054761D01*
X38120000Y-139911904D01*
X38072380Y-139578571D02*
X39072380Y-139340476D01*
X38358095Y-139150000D01*
X39072380Y-138959523D01*
X38072380Y-138721428D01*
X39072380Y-137816666D02*
X39072380Y-138388095D01*
X39072380Y-138102380D02*
X38072380Y-138102380D01*
X38215238Y-138197619D01*
X38310476Y-138292857D01*
X38358095Y-138388095D01*
G04 #@! TO.C,R4*
X48982380Y-65606666D02*
X48506190Y-65940000D01*
X48982380Y-66178095D02*
X47982380Y-66178095D01*
X47982380Y-65797142D01*
X48030000Y-65701904D01*
X48077619Y-65654285D01*
X48172857Y-65606666D01*
X48315714Y-65606666D01*
X48410952Y-65654285D01*
X48458571Y-65701904D01*
X48506190Y-65797142D01*
X48506190Y-66178095D01*
X48315714Y-64749523D02*
X48982380Y-64749523D01*
X47934761Y-64987619D02*
X48649047Y-65225714D01*
X48649047Y-64606666D01*
X53722380Y-66035238D02*
X53722380Y-66606666D01*
X53722380Y-66320952D02*
X52722380Y-66320952D01*
X52865238Y-66416190D01*
X52960476Y-66511428D01*
X53008095Y-66606666D01*
X52722380Y-65416190D02*
X52722380Y-65320952D01*
X52770000Y-65225714D01*
X52817619Y-65178095D01*
X52912857Y-65130476D01*
X53103333Y-65082857D01*
X53341428Y-65082857D01*
X53531904Y-65130476D01*
X53627142Y-65178095D01*
X53674761Y-65225714D01*
X53722380Y-65320952D01*
X53722380Y-65416190D01*
X53674761Y-65511428D01*
X53627142Y-65559047D01*
X53531904Y-65606666D01*
X53341428Y-65654285D01*
X53103333Y-65654285D01*
X52912857Y-65606666D01*
X52817619Y-65559047D01*
X52770000Y-65511428D01*
X52722380Y-65416190D01*
X53722380Y-64654285D02*
X52722380Y-64654285D01*
X53341428Y-64559047D02*
X53722380Y-64273333D01*
X53055714Y-64273333D02*
X53436666Y-64654285D01*
G04 #@! TO.C,R5*
X51982380Y-65606666D02*
X51506190Y-65940000D01*
X51982380Y-66178095D02*
X50982380Y-66178095D01*
X50982380Y-65797142D01*
X51030000Y-65701904D01*
X51077619Y-65654285D01*
X51172857Y-65606666D01*
X51315714Y-65606666D01*
X51410952Y-65654285D01*
X51458571Y-65701904D01*
X51506190Y-65797142D01*
X51506190Y-66178095D01*
X50982380Y-64701904D02*
X50982380Y-65178095D01*
X51458571Y-65225714D01*
X51410952Y-65178095D01*
X51363333Y-65082857D01*
X51363333Y-64844761D01*
X51410952Y-64749523D01*
X51458571Y-64701904D01*
X51553809Y-64654285D01*
X51791904Y-64654285D01*
X51887142Y-64701904D01*
X51934761Y-64749523D01*
X51982380Y-64844761D01*
X51982380Y-65082857D01*
X51934761Y-65178095D01*
X51887142Y-65225714D01*
X56722380Y-66035238D02*
X56722380Y-66606666D01*
X56722380Y-66320952D02*
X55722380Y-66320952D01*
X55865238Y-66416190D01*
X55960476Y-66511428D01*
X56008095Y-66606666D01*
X55722380Y-65416190D02*
X55722380Y-65320952D01*
X55770000Y-65225714D01*
X55817619Y-65178095D01*
X55912857Y-65130476D01*
X56103333Y-65082857D01*
X56341428Y-65082857D01*
X56531904Y-65130476D01*
X56627142Y-65178095D01*
X56674761Y-65225714D01*
X56722380Y-65320952D01*
X56722380Y-65416190D01*
X56674761Y-65511428D01*
X56627142Y-65559047D01*
X56531904Y-65606666D01*
X56341428Y-65654285D01*
X56103333Y-65654285D01*
X55912857Y-65606666D01*
X55817619Y-65559047D01*
X55770000Y-65511428D01*
X55722380Y-65416190D01*
X56722380Y-64654285D02*
X55722380Y-64654285D01*
X56341428Y-64559047D02*
X56722380Y-64273333D01*
X56055714Y-64273333D02*
X56436666Y-64654285D01*
G04 #@! TO.C,R6*
X54982380Y-65606666D02*
X54506190Y-65940000D01*
X54982380Y-66178095D02*
X53982380Y-66178095D01*
X53982380Y-65797142D01*
X54030000Y-65701904D01*
X54077619Y-65654285D01*
X54172857Y-65606666D01*
X54315714Y-65606666D01*
X54410952Y-65654285D01*
X54458571Y-65701904D01*
X54506190Y-65797142D01*
X54506190Y-66178095D01*
X53982380Y-64749523D02*
X53982380Y-64940000D01*
X54030000Y-65035238D01*
X54077619Y-65082857D01*
X54220476Y-65178095D01*
X54410952Y-65225714D01*
X54791904Y-65225714D01*
X54887142Y-65178095D01*
X54934761Y-65130476D01*
X54982380Y-65035238D01*
X54982380Y-64844761D01*
X54934761Y-64749523D01*
X54887142Y-64701904D01*
X54791904Y-64654285D01*
X54553809Y-64654285D01*
X54458571Y-64701904D01*
X54410952Y-64749523D01*
X54363333Y-64844761D01*
X54363333Y-65035238D01*
X54410952Y-65130476D01*
X54458571Y-65178095D01*
X54553809Y-65225714D01*
X59722380Y-66035238D02*
X59722380Y-66606666D01*
X59722380Y-66320952D02*
X58722380Y-66320952D01*
X58865238Y-66416190D01*
X58960476Y-66511428D01*
X59008095Y-66606666D01*
X58722380Y-65416190D02*
X58722380Y-65320952D01*
X58770000Y-65225714D01*
X58817619Y-65178095D01*
X58912857Y-65130476D01*
X59103333Y-65082857D01*
X59341428Y-65082857D01*
X59531904Y-65130476D01*
X59627142Y-65178095D01*
X59674761Y-65225714D01*
X59722380Y-65320952D01*
X59722380Y-65416190D01*
X59674761Y-65511428D01*
X59627142Y-65559047D01*
X59531904Y-65606666D01*
X59341428Y-65654285D01*
X59103333Y-65654285D01*
X58912857Y-65606666D01*
X58817619Y-65559047D01*
X58770000Y-65511428D01*
X58722380Y-65416190D01*
X59722380Y-64654285D02*
X58722380Y-64654285D01*
X59341428Y-64559047D02*
X59722380Y-64273333D01*
X59055714Y-64273333D02*
X59436666Y-64654285D01*
G04 #@! TO.C,SW2*
X43276666Y-66004761D02*
X43419523Y-66052380D01*
X43657619Y-66052380D01*
X43752857Y-66004761D01*
X43800476Y-65957142D01*
X43848095Y-65861904D01*
X43848095Y-65766666D01*
X43800476Y-65671428D01*
X43752857Y-65623809D01*
X43657619Y-65576190D01*
X43467142Y-65528571D01*
X43371904Y-65480952D01*
X43324285Y-65433333D01*
X43276666Y-65338095D01*
X43276666Y-65242857D01*
X43324285Y-65147619D01*
X43371904Y-65100000D01*
X43467142Y-65052380D01*
X43705238Y-65052380D01*
X43848095Y-65100000D01*
X44181428Y-65052380D02*
X44419523Y-66052380D01*
X44610000Y-65338095D01*
X44800476Y-66052380D01*
X45038571Y-65052380D01*
X45371904Y-65147619D02*
X45419523Y-65100000D01*
X45514761Y-65052380D01*
X45752857Y-65052380D01*
X45848095Y-65100000D01*
X45895714Y-65147619D01*
X45943333Y-65242857D01*
X45943333Y-65338095D01*
X45895714Y-65480952D01*
X45324285Y-66052380D01*
X45943333Y-66052380D01*
G04 #@! TD*
%LPC*%
D14*
G04 #@! TO.C,U3*
X52790000Y-127030000D03*
X52790000Y-124490000D03*
X52790000Y-121950000D03*
X52790000Y-119410000D03*
X52790000Y-116870000D03*
X35010000Y-116870000D03*
X35010000Y-119410000D03*
X35010000Y-121950000D03*
X35010000Y-124490000D03*
X35010000Y-127030000D03*
G04 #@! TD*
G04 #@! TO.C,U2*
X55180000Y-79970000D03*
X55180000Y-82510000D03*
X55180000Y-85050000D03*
X55180000Y-87590000D03*
X55180000Y-90130000D03*
X55180000Y-92670000D03*
X55180000Y-95210000D03*
X55180000Y-97750000D03*
X55180000Y-100290000D03*
X55180000Y-102830000D03*
X55180000Y-105370000D03*
X55180000Y-107910000D03*
X55180000Y-110450000D03*
X55180000Y-112990000D03*
X55180000Y-115530000D03*
X55180000Y-118070000D03*
X55180000Y-120610000D03*
X55180000Y-123150000D03*
X55180000Y-125690000D03*
X55180000Y-128230000D03*
X32320000Y-79970000D03*
X32320000Y-82510000D03*
X32320000Y-85050000D03*
X32320000Y-87590000D03*
X32320000Y-90130000D03*
X32320000Y-92670000D03*
X32320000Y-95210000D03*
X32320000Y-97750000D03*
X32320000Y-100290000D03*
X32320000Y-102830000D03*
X32320000Y-105370000D03*
X32320000Y-107910000D03*
X32320000Y-110450000D03*
X32320000Y-112990000D03*
X32320000Y-115530000D03*
X32320000Y-118070000D03*
X32320000Y-120610000D03*
X32320000Y-123150000D03*
X32320000Y-125690000D03*
X32320000Y-128230000D03*
G04 #@! TD*
D15*
G04 #@! TO.C,hole4*
X55200000Y-138500000D03*
G04 #@! TD*
G04 #@! TO.C,hole3*
X32000000Y-138500000D03*
G04 #@! TD*
G04 #@! TO.C,hole2*
X55200000Y-48500000D03*
G04 #@! TD*
D16*
G04 #@! TO.C,R1*
X39700000Y-90000000D03*
D17*
X39700000Y-97620000D03*
G04 #@! TD*
D16*
G04 #@! TO.C,C1*
X31400000Y-62550000D03*
D18*
X29400000Y-62550000D03*
G04 #@! TD*
D19*
G04 #@! TO.C,C2*
X48800000Y-91100000D03*
X51300000Y-91100000D03*
G04 #@! TD*
G04 #@! TO.C,C3*
X45900000Y-91050000D03*
X43400000Y-91050000D03*
G04 #@! TD*
D18*
G04 #@! TO.C,C4*
X35150000Y-62550000D03*
D16*
X37150000Y-62550000D03*
G04 #@! TD*
D20*
G04 #@! TO.C,D1*
X51350000Y-97100000D03*
D21*
X46270000Y-97100000D03*
G04 #@! TD*
D22*
G04 #@! TO.C,J1*
X46100000Y-48550000D03*
D23*
X41020000Y-48550000D03*
G04 #@! TD*
D24*
G04 #@! TO.C,J2*
X38900000Y-56850000D03*
D25*
X36360000Y-56850000D03*
X33820000Y-56850000D03*
G04 #@! TD*
D24*
G04 #@! TO.C,J3*
X52850000Y-56850000D03*
D25*
X50310000Y-56850000D03*
X47770000Y-56850000D03*
G04 #@! TD*
D24*
G04 #@! TO.C,J4*
X49400000Y-83850000D03*
D25*
X46860000Y-83850000D03*
G04 #@! TD*
D26*
G04 #@! TO.C,U1*
X30900000Y-67150000D03*
D27*
X33440000Y-67150000D03*
X35980000Y-67150000D03*
G04 #@! TD*
D24*
G04 #@! TO.C,SW1*
X40950000Y-139150000D03*
D25*
X43490000Y-139150000D03*
X46030000Y-139150000D03*
G04 #@! TD*
D24*
G04 #@! TO.C,J5*
X40000000Y-83800000D03*
D25*
X37460000Y-83800000D03*
G04 #@! TD*
D17*
G04 #@! TO.C,R4*
X50900000Y-61630000D03*
D16*
X50900000Y-69250000D03*
G04 #@! TD*
G04 #@! TO.C,R5*
X53900000Y-69250000D03*
D17*
X53900000Y-61630000D03*
G04 #@! TD*
D16*
G04 #@! TO.C,R6*
X56900000Y-69250000D03*
D17*
X56900000Y-61630000D03*
G04 #@! TD*
G04 #@! TO.C,R7*
X36100000Y-97620000D03*
D16*
X36100000Y-90000000D03*
G04 #@! TD*
D14*
G04 #@! TO.C,SW2*
X48190000Y-62810000D03*
D28*
X48190000Y-67890000D03*
D14*
X40570000Y-62810000D03*
X40570000Y-67890000D03*
X40570000Y-65350000D03*
G04 #@! TD*
D24*
G04 #@! TO.C,J6*
X36300000Y-75150000D03*
D25*
X38840000Y-75150000D03*
X41380000Y-75150000D03*
X43920000Y-75150000D03*
X46460000Y-75150000D03*
X49000000Y-75150000D03*
X51540000Y-75150000D03*
G04 #@! TD*
D15*
G04 #@! TO.C,hole1*
X32000000Y-48500000D03*
G04 #@! TD*
M02*
