G04 #@! TF.GenerationSoftware,KiCad,Pcbnew,(5.0.0)*
G04 #@! TF.CreationDate,2019-09-04T21:02:57+09:00*
G04 #@! TF.ProjectId,syateki_gun_main,73796174656B695F67756E5F6D61696E,rev?*
G04 #@! TF.SameCoordinates,Original*
G04 #@! TF.FileFunction,Legend,Bot*
G04 #@! TF.FilePolarity,Positive*
%FSLAX46Y46*%
G04 Gerber Fmt 4.6, Leading zero omitted, Abs format (unit mm)*
G04 Created by KiCad (PCBNEW (5.0.0)) date 09/04/19 21:02:57*
%MOMM*%
%LPD*%
G01*
G04 APERTURE LIST*
%ADD10C,0.150000*%
%ADD11C,0.120000*%
%ADD12C,1.924000*%
%ADD13C,3.600000*%
%ADD14C,2.000000*%
%ADD15O,2.000000X2.000000*%
%ADD16R,2.000000X2.000000*%
%ADD17C,1.800000*%
%ADD18R,2.400000X2.400000*%
%ADD19O,2.400000X2.400000*%
%ADD20R,3.400000X3.400000*%
%ADD21C,3.400000*%
%ADD22R,2.100000X2.100000*%
%ADD23O,2.100000X2.100000*%
%ADD24R,2.305000X2.400000*%
%ADD25O,2.305000X2.400000*%
%ADD26R,1.924000X1.924000*%
G04 APERTURE END LIST*
D10*
X58504761Y-86816666D02*
X58552380Y-86911904D01*
X58552380Y-87102380D01*
X58504761Y-87197619D01*
X58409523Y-87245238D01*
X58361904Y-87245238D01*
X58266666Y-87197619D01*
X58219047Y-87102380D01*
X58219047Y-86959523D01*
X58171428Y-86864285D01*
X58076190Y-86816666D01*
X58028571Y-86816666D01*
X57933333Y-86864285D01*
X57885714Y-86959523D01*
X57885714Y-87102380D01*
X57933333Y-87197619D01*
X57885714Y-87578571D02*
X58552380Y-87816666D01*
X57885714Y-88054761D02*
X58552380Y-87816666D01*
X58790476Y-87721428D01*
X58838095Y-87673809D01*
X58885714Y-87578571D01*
X58552380Y-88864285D02*
X58028571Y-88864285D01*
X57933333Y-88816666D01*
X57885714Y-88721428D01*
X57885714Y-88530952D01*
X57933333Y-88435714D01*
X58504761Y-88864285D02*
X58552380Y-88769047D01*
X58552380Y-88530952D01*
X58504761Y-88435714D01*
X58409523Y-88388095D01*
X58314285Y-88388095D01*
X58219047Y-88435714D01*
X58171428Y-88530952D01*
X58171428Y-88769047D01*
X58123809Y-88864285D01*
X57885714Y-89197619D02*
X57885714Y-89578571D01*
X57552380Y-89340476D02*
X58409523Y-89340476D01*
X58504761Y-89388095D01*
X58552380Y-89483333D01*
X58552380Y-89578571D01*
X58504761Y-90292857D02*
X58552380Y-90197619D01*
X58552380Y-90007142D01*
X58504761Y-89911904D01*
X58409523Y-89864285D01*
X58028571Y-89864285D01*
X57933333Y-89911904D01*
X57885714Y-90007142D01*
X57885714Y-90197619D01*
X57933333Y-90292857D01*
X58028571Y-90340476D01*
X58123809Y-90340476D01*
X58219047Y-89864285D01*
X58552380Y-90769047D02*
X57552380Y-90769047D01*
X58171428Y-90864285D02*
X58552380Y-91150000D01*
X57885714Y-91150000D02*
X58266666Y-90769047D01*
X58552380Y-91578571D02*
X57885714Y-91578571D01*
X57552380Y-91578571D02*
X57600000Y-91530952D01*
X57647619Y-91578571D01*
X57600000Y-91626190D01*
X57552380Y-91578571D01*
X57647619Y-91578571D01*
X58647619Y-91816666D02*
X58647619Y-92578571D01*
X57885714Y-93245238D02*
X58695238Y-93245238D01*
X58790476Y-93197619D01*
X58838095Y-93150000D01*
X58885714Y-93054761D01*
X58885714Y-92911904D01*
X58838095Y-92816666D01*
X58504761Y-93245238D02*
X58552380Y-93150000D01*
X58552380Y-92959523D01*
X58504761Y-92864285D01*
X58457142Y-92816666D01*
X58361904Y-92769047D01*
X58076190Y-92769047D01*
X57980952Y-92816666D01*
X57933333Y-92864285D01*
X57885714Y-92959523D01*
X57885714Y-93150000D01*
X57933333Y-93245238D01*
X57885714Y-94150000D02*
X58552380Y-94150000D01*
X57885714Y-93721428D02*
X58409523Y-93721428D01*
X58504761Y-93769047D01*
X58552380Y-93864285D01*
X58552380Y-94007142D01*
X58504761Y-94102380D01*
X58457142Y-94150000D01*
X57885714Y-94626190D02*
X58552380Y-94626190D01*
X57980952Y-94626190D02*
X57933333Y-94673809D01*
X57885714Y-94769047D01*
X57885714Y-94911904D01*
X57933333Y-95007142D01*
X58028571Y-95054761D01*
X58552380Y-95054761D01*
X58647619Y-95292857D02*
X58647619Y-96054761D01*
X58552380Y-96292857D02*
X57885714Y-96292857D01*
X57980952Y-96292857D02*
X57933333Y-96340476D01*
X57885714Y-96435714D01*
X57885714Y-96578571D01*
X57933333Y-96673809D01*
X58028571Y-96721428D01*
X58552380Y-96721428D01*
X58028571Y-96721428D02*
X57933333Y-96769047D01*
X57885714Y-96864285D01*
X57885714Y-97007142D01*
X57933333Y-97102380D01*
X58028571Y-97150000D01*
X58552380Y-97150000D01*
X58552380Y-98054761D02*
X58028571Y-98054761D01*
X57933333Y-98007142D01*
X57885714Y-97911904D01*
X57885714Y-97721428D01*
X57933333Y-97626190D01*
X58504761Y-98054761D02*
X58552380Y-97959523D01*
X58552380Y-97721428D01*
X58504761Y-97626190D01*
X58409523Y-97578571D01*
X58314285Y-97578571D01*
X58219047Y-97626190D01*
X58171428Y-97721428D01*
X58171428Y-97959523D01*
X58123809Y-98054761D01*
X58552380Y-98530952D02*
X57885714Y-98530952D01*
X57552380Y-98530952D02*
X57600000Y-98483333D01*
X57647619Y-98530952D01*
X57600000Y-98578571D01*
X57552380Y-98530952D01*
X57647619Y-98530952D01*
X57885714Y-99007142D02*
X58552380Y-99007142D01*
X57980952Y-99007142D02*
X57933333Y-99054761D01*
X57885714Y-99150000D01*
X57885714Y-99292857D01*
X57933333Y-99388095D01*
X58028571Y-99435714D01*
X58552380Y-99435714D01*
X57552380Y-100530952D02*
X58552380Y-100864285D01*
X57552380Y-101197619D01*
X58552380Y-102054761D02*
X58552380Y-101483333D01*
X58552380Y-101769047D02*
X57552380Y-101769047D01*
X57695238Y-101673809D01*
X57790476Y-101578571D01*
X57838095Y-101483333D01*
X58457142Y-102483333D02*
X58504761Y-102530952D01*
X58552380Y-102483333D01*
X58504761Y-102435714D01*
X58457142Y-102483333D01*
X58552380Y-102483333D01*
X57647619Y-102911904D02*
X57600000Y-102959523D01*
X57552380Y-103054761D01*
X57552380Y-103292857D01*
X57600000Y-103388095D01*
X57647619Y-103435714D01*
X57742857Y-103483333D01*
X57838095Y-103483333D01*
X57980952Y-103435714D01*
X58552380Y-102864285D01*
X58552380Y-103483333D01*
X42180952Y-79754761D02*
X42038095Y-79802380D01*
X41800000Y-79802380D01*
X41704761Y-79754761D01*
X41657142Y-79707142D01*
X41609523Y-79611904D01*
X41609523Y-79516666D01*
X41657142Y-79421428D01*
X41704761Y-79373809D01*
X41800000Y-79326190D01*
X41990476Y-79278571D01*
X42085714Y-79230952D01*
X42133333Y-79183333D01*
X42180952Y-79088095D01*
X42180952Y-78992857D01*
X42133333Y-78897619D01*
X42085714Y-78850000D01*
X41990476Y-78802380D01*
X41752380Y-78802380D01*
X41609523Y-78850000D01*
X41180952Y-79802380D02*
X41180952Y-78802380D01*
X40800000Y-78802380D01*
X40704761Y-78850000D01*
X40657142Y-78897619D01*
X40609523Y-78992857D01*
X40609523Y-79135714D01*
X40657142Y-79230952D01*
X40704761Y-79278571D01*
X40800000Y-79326190D01*
X41180952Y-79326190D01*
X40180952Y-79421428D02*
X39419047Y-79421428D01*
X39800000Y-79802380D02*
X39800000Y-79040476D01*
X38228571Y-79754761D02*
X38085714Y-79802380D01*
X37847619Y-79802380D01*
X37752380Y-79754761D01*
X37704761Y-79707142D01*
X37657142Y-79611904D01*
X37657142Y-79516666D01*
X37704761Y-79421428D01*
X37752380Y-79373809D01*
X37847619Y-79326190D01*
X38038095Y-79278571D01*
X38133333Y-79230952D01*
X38180952Y-79183333D01*
X38228571Y-79088095D01*
X38228571Y-78992857D01*
X38180952Y-78897619D01*
X38133333Y-78850000D01*
X38038095Y-78802380D01*
X37800000Y-78802380D01*
X37657142Y-78850000D01*
X37228571Y-79802380D02*
X37228571Y-78802380D01*
X36847619Y-78802380D01*
X36752380Y-78850000D01*
X36704761Y-78897619D01*
X36657142Y-78992857D01*
X36657142Y-79135714D01*
X36704761Y-79230952D01*
X36752380Y-79278571D01*
X36847619Y-79326190D01*
X37228571Y-79326190D01*
X36228571Y-79421428D02*
X35466666Y-79421428D01*
X52709523Y-78802380D02*
X52376190Y-79802380D01*
X52042857Y-78802380D01*
X51709523Y-79802380D02*
X51709523Y-78802380D01*
X51376190Y-79516666D01*
X51042857Y-78802380D01*
X51042857Y-79802380D01*
X50423809Y-79802380D02*
X50519047Y-79754761D01*
X50566666Y-79707142D01*
X50614285Y-79611904D01*
X50614285Y-79326190D01*
X50566666Y-79230952D01*
X50519047Y-79183333D01*
X50423809Y-79135714D01*
X50280952Y-79135714D01*
X50185714Y-79183333D01*
X50138095Y-79230952D01*
X50090476Y-79326190D01*
X50090476Y-79611904D01*
X50138095Y-79707142D01*
X50185714Y-79754761D01*
X50280952Y-79802380D01*
X50423809Y-79802380D01*
X49804761Y-79135714D02*
X49423809Y-79135714D01*
X49661904Y-78802380D02*
X49661904Y-79659523D01*
X49614285Y-79754761D01*
X49519047Y-79802380D01*
X49423809Y-79802380D01*
X48947619Y-79802380D02*
X49042857Y-79754761D01*
X49090476Y-79707142D01*
X49138095Y-79611904D01*
X49138095Y-79326190D01*
X49090476Y-79230952D01*
X49042857Y-79183333D01*
X48947619Y-79135714D01*
X48804761Y-79135714D01*
X48709523Y-79183333D01*
X48661904Y-79230952D01*
X48614285Y-79326190D01*
X48614285Y-79611904D01*
X48661904Y-79707142D01*
X48709523Y-79754761D01*
X48804761Y-79802380D01*
X48947619Y-79802380D01*
X48185714Y-79802380D02*
X48185714Y-79135714D01*
X48185714Y-79326190D02*
X48138095Y-79230952D01*
X48090476Y-79183333D01*
X47995238Y-79135714D01*
X47900000Y-79135714D01*
X46280952Y-78850000D02*
X46376190Y-78802380D01*
X46519047Y-78802380D01*
X46661904Y-78850000D01*
X46757142Y-78945238D01*
X46804761Y-79040476D01*
X46852380Y-79230952D01*
X46852380Y-79373809D01*
X46804761Y-79564285D01*
X46757142Y-79659523D01*
X46661904Y-79754761D01*
X46519047Y-79802380D01*
X46423809Y-79802380D01*
X46280952Y-79754761D01*
X46233333Y-79707142D01*
X46233333Y-79373809D01*
X46423809Y-79373809D01*
X45804761Y-79802380D02*
X45804761Y-78802380D01*
X45233333Y-79802380D01*
X45233333Y-78802380D01*
X44757142Y-79802380D02*
X44757142Y-78802380D01*
X44519047Y-78802380D01*
X44376190Y-78850000D01*
X44280952Y-78945238D01*
X44233333Y-79040476D01*
X44185714Y-79230952D01*
X44185714Y-79373809D01*
X44233333Y-79564285D01*
X44280952Y-79659523D01*
X44376190Y-79754761D01*
X44519047Y-79802380D01*
X44757142Y-79802380D01*
X54219047Y-72007142D02*
X54266666Y-72054761D01*
X54409523Y-72102380D01*
X54504761Y-72102380D01*
X54647619Y-72054761D01*
X54742857Y-71959523D01*
X54790476Y-71864285D01*
X54838095Y-71673809D01*
X54838095Y-71530952D01*
X54790476Y-71340476D01*
X54742857Y-71245238D01*
X54647619Y-71150000D01*
X54504761Y-71102380D01*
X54409523Y-71102380D01*
X54266666Y-71150000D01*
X54219047Y-71197619D01*
X53838095Y-72054761D02*
X53695238Y-72102380D01*
X53457142Y-72102380D01*
X53361904Y-72054761D01*
X53314285Y-72007142D01*
X53266666Y-71911904D01*
X53266666Y-71816666D01*
X53314285Y-71721428D01*
X53361904Y-71673809D01*
X53457142Y-71626190D01*
X53647619Y-71578571D01*
X53742857Y-71530952D01*
X53790476Y-71483333D01*
X53838095Y-71388095D01*
X53838095Y-71292857D01*
X53790476Y-71197619D01*
X53742857Y-71150000D01*
X53647619Y-71102380D01*
X53409523Y-71102380D01*
X53266666Y-71150000D01*
X52076190Y-72102380D02*
X52076190Y-71102380D01*
X51838095Y-71102380D01*
X51695238Y-71150000D01*
X51600000Y-71245238D01*
X51552380Y-71340476D01*
X51504761Y-71530952D01*
X51504761Y-71673809D01*
X51552380Y-71864285D01*
X51600000Y-71959523D01*
X51695238Y-72054761D01*
X51838095Y-72102380D01*
X52076190Y-72102380D01*
X50504761Y-72007142D02*
X50552380Y-72054761D01*
X50695238Y-72102380D01*
X50790476Y-72102380D01*
X50933333Y-72054761D01*
X51028571Y-71959523D01*
X51076190Y-71864285D01*
X51123809Y-71673809D01*
X51123809Y-71530952D01*
X51076190Y-71340476D01*
X51028571Y-71245238D01*
X50933333Y-71150000D01*
X50790476Y-71102380D01*
X50695238Y-71102380D01*
X50552380Y-71150000D01*
X50504761Y-71197619D01*
X48742857Y-72102380D02*
X49076190Y-71626190D01*
X49314285Y-72102380D02*
X49314285Y-71102380D01*
X48933333Y-71102380D01*
X48838095Y-71150000D01*
X48790476Y-71197619D01*
X48742857Y-71292857D01*
X48742857Y-71435714D01*
X48790476Y-71530952D01*
X48838095Y-71578571D01*
X48933333Y-71626190D01*
X49314285Y-71626190D01*
X48314285Y-71578571D02*
X47980952Y-71578571D01*
X47838095Y-72102380D02*
X48314285Y-72102380D01*
X48314285Y-71102380D01*
X47838095Y-71102380D01*
X47457142Y-72054761D02*
X47314285Y-72102380D01*
X47076190Y-72102380D01*
X46980952Y-72054761D01*
X46933333Y-72007142D01*
X46885714Y-71911904D01*
X46885714Y-71816666D01*
X46933333Y-71721428D01*
X46980952Y-71673809D01*
X47076190Y-71626190D01*
X47266666Y-71578571D01*
X47361904Y-71530952D01*
X47409523Y-71483333D01*
X47457142Y-71388095D01*
X47457142Y-71292857D01*
X47409523Y-71197619D01*
X47361904Y-71150000D01*
X47266666Y-71102380D01*
X47028571Y-71102380D01*
X46885714Y-71150000D01*
X45742857Y-72054761D02*
X45600000Y-72102380D01*
X45361904Y-72102380D01*
X45266666Y-72054761D01*
X45219047Y-72007142D01*
X45171428Y-71911904D01*
X45171428Y-71816666D01*
X45219047Y-71721428D01*
X45266666Y-71673809D01*
X45361904Y-71626190D01*
X45552380Y-71578571D01*
X45647619Y-71530952D01*
X45695238Y-71483333D01*
X45742857Y-71388095D01*
X45742857Y-71292857D01*
X45695238Y-71197619D01*
X45647619Y-71150000D01*
X45552380Y-71102380D01*
X45314285Y-71102380D01*
X45171428Y-71150000D01*
X44742857Y-72102380D02*
X44742857Y-71102380D01*
X44504761Y-71102380D01*
X44361904Y-71150000D01*
X44266666Y-71245238D01*
X44219047Y-71340476D01*
X44171428Y-71530952D01*
X44171428Y-71673809D01*
X44219047Y-71864285D01*
X44266666Y-71959523D01*
X44361904Y-72054761D01*
X44504761Y-72102380D01*
X44742857Y-72102380D01*
X43790476Y-71816666D02*
X43314285Y-71816666D01*
X43885714Y-72102380D02*
X43552380Y-71102380D01*
X43219047Y-72102380D01*
X42171428Y-72054761D02*
X42028571Y-72102380D01*
X41790476Y-72102380D01*
X41695238Y-72054761D01*
X41647619Y-72007142D01*
X41600000Y-71911904D01*
X41600000Y-71816666D01*
X41647619Y-71721428D01*
X41695238Y-71673809D01*
X41790476Y-71626190D01*
X41980952Y-71578571D01*
X42076190Y-71530952D01*
X42123809Y-71483333D01*
X42171428Y-71388095D01*
X42171428Y-71292857D01*
X42123809Y-71197619D01*
X42076190Y-71150000D01*
X41980952Y-71102380D01*
X41742857Y-71102380D01*
X41600000Y-71150000D01*
X40600000Y-72007142D02*
X40647619Y-72054761D01*
X40790476Y-72102380D01*
X40885714Y-72102380D01*
X41028571Y-72054761D01*
X41123809Y-71959523D01*
X41171428Y-71864285D01*
X41219047Y-71673809D01*
X41219047Y-71530952D01*
X41171428Y-71340476D01*
X41123809Y-71245238D01*
X41028571Y-71150000D01*
X40885714Y-71102380D01*
X40790476Y-71102380D01*
X40647619Y-71150000D01*
X40600000Y-71197619D01*
X39695238Y-72102380D02*
X40171428Y-72102380D01*
X40171428Y-71102380D01*
X38742857Y-71102380D02*
X38409523Y-72102380D01*
X38076190Y-71102380D01*
X37171428Y-72007142D02*
X37219047Y-72054761D01*
X37361904Y-72102380D01*
X37457142Y-72102380D01*
X37600000Y-72054761D01*
X37695238Y-71959523D01*
X37742857Y-71864285D01*
X37790476Y-71673809D01*
X37790476Y-71530952D01*
X37742857Y-71340476D01*
X37695238Y-71245238D01*
X37600000Y-71150000D01*
X37457142Y-71102380D01*
X37361904Y-71102380D01*
X37219047Y-71150000D01*
X37171428Y-71197619D01*
X36171428Y-72007142D02*
X36219047Y-72054761D01*
X36361904Y-72102380D01*
X36457142Y-72102380D01*
X36600000Y-72054761D01*
X36695238Y-71959523D01*
X36742857Y-71864285D01*
X36790476Y-71673809D01*
X36790476Y-71530952D01*
X36742857Y-71340476D01*
X36695238Y-71245238D01*
X36600000Y-71150000D01*
X36457142Y-71102380D01*
X36361904Y-71102380D01*
X36219047Y-71150000D01*
X36171428Y-71197619D01*
X34457142Y-71150000D02*
X34552380Y-71102380D01*
X34695238Y-71102380D01*
X34838095Y-71150000D01*
X34933333Y-71245238D01*
X34980952Y-71340476D01*
X35028571Y-71530952D01*
X35028571Y-71673809D01*
X34980952Y-71864285D01*
X34933333Y-71959523D01*
X34838095Y-72054761D01*
X34695238Y-72102380D01*
X34600000Y-72102380D01*
X34457142Y-72054761D01*
X34409523Y-72007142D01*
X34409523Y-71673809D01*
X34600000Y-71673809D01*
X33980952Y-72102380D02*
X33980952Y-71102380D01*
X33409523Y-72102380D01*
X33409523Y-71102380D01*
X32933333Y-72102380D02*
X32933333Y-71102380D01*
X32695238Y-71102380D01*
X32552380Y-71150000D01*
X32457142Y-71245238D01*
X32409523Y-71340476D01*
X32361904Y-71530952D01*
X32361904Y-71673809D01*
X32409523Y-71864285D01*
X32457142Y-71959523D01*
X32552380Y-72054761D01*
X32695238Y-72102380D01*
X32933333Y-72102380D01*
G04 #@! TO.C,U3*
X55330000Y-104170000D02*
X32470000Y-104170000D01*
X55330000Y-134650000D02*
X55330000Y-104170000D01*
X32470000Y-134650000D02*
X55330000Y-134650000D01*
X32470000Y-104170000D02*
X32470000Y-134650000D01*
D11*
G04 #@! TO.C,R1*
X38660000Y-90540000D02*
X38330000Y-90540000D01*
X38330000Y-90540000D02*
X38330000Y-97080000D01*
X38330000Y-97080000D02*
X38660000Y-97080000D01*
X40740000Y-90540000D02*
X41070000Y-90540000D01*
X41070000Y-90540000D02*
X41070000Y-97080000D01*
X41070000Y-97080000D02*
X40740000Y-97080000D01*
G04 #@! TO.C,C2*
X47630000Y-89080000D02*
X47630000Y-93120000D01*
X52470000Y-89080000D02*
X52470000Y-93120000D01*
X52470000Y-93120000D02*
X47630000Y-93120000D01*
X52470000Y-89080000D02*
X47630000Y-89080000D01*
G04 #@! TO.C,C3*
X47070000Y-89030000D02*
X42230000Y-89030000D01*
X47070000Y-93070000D02*
X42230000Y-93070000D01*
X47070000Y-89030000D02*
X47070000Y-93070000D01*
X42230000Y-89030000D02*
X42230000Y-93070000D01*
G04 #@! TO.C,D1*
X50530000Y-95860000D02*
X50530000Y-95680000D01*
X50530000Y-95680000D02*
X47090000Y-95680000D01*
X47090000Y-95680000D02*
X47090000Y-95860000D01*
X50530000Y-98340000D02*
X50530000Y-98520000D01*
X50530000Y-98520000D02*
X47090000Y-98520000D01*
X47090000Y-98520000D02*
X47090000Y-98340000D01*
X49930000Y-95680000D02*
X49930000Y-98520000D01*
X49810000Y-95680000D02*
X49810000Y-98520000D01*
X50050000Y-95680000D02*
X50050000Y-98520000D01*
G04 #@! TO.C,J4*
X48130000Y-85180000D02*
X48130000Y-82520000D01*
X48130000Y-85180000D02*
X45530000Y-85180000D01*
X45530000Y-85180000D02*
X45530000Y-82520000D01*
X48130000Y-82520000D02*
X45530000Y-82520000D01*
X50730000Y-82520000D02*
X49400000Y-82520000D01*
X50730000Y-83850000D02*
X50730000Y-82520000D01*
G04 #@! TO.C,U1*
X28320000Y-70420000D02*
X38560000Y-70420000D01*
X28320000Y-65779000D02*
X38560000Y-65779000D01*
X28320000Y-70420000D02*
X28320000Y-65779000D01*
X38560000Y-70420000D02*
X38560000Y-65779000D01*
X28320000Y-68910000D02*
X38560000Y-68910000D01*
X31590000Y-70420000D02*
X31590000Y-68910000D01*
X35291000Y-70420000D02*
X35291000Y-68910000D01*
G04 #@! TO.C,J5*
X38730000Y-85130000D02*
X38730000Y-82470000D01*
X38730000Y-85130000D02*
X36130000Y-85130000D01*
X36130000Y-85130000D02*
X36130000Y-82470000D01*
X38730000Y-82470000D02*
X36130000Y-82470000D01*
X41330000Y-82470000D02*
X40000000Y-82470000D01*
X41330000Y-83800000D02*
X41330000Y-82470000D01*
G04 #@! TO.C,R7*
X37470000Y-97080000D02*
X37140000Y-97080000D01*
X37470000Y-90540000D02*
X37470000Y-97080000D01*
X37140000Y-90540000D02*
X37470000Y-90540000D01*
X34730000Y-97080000D02*
X35060000Y-97080000D01*
X34730000Y-90540000D02*
X34730000Y-97080000D01*
X35060000Y-90540000D02*
X34730000Y-90540000D01*
G04 #@! TO.C,J6*
X52870000Y-73820000D02*
X52870000Y-76480000D01*
X37570000Y-73820000D02*
X52870000Y-73820000D01*
X37570000Y-76480000D02*
X52870000Y-76480000D01*
X37570000Y-73820000D02*
X37570000Y-76480000D01*
X36300000Y-73820000D02*
X34970000Y-73820000D01*
X34970000Y-73820000D02*
X34970000Y-75150000D01*
G04 #@! TO.C,U3*
D10*
X44661904Y-135372380D02*
X44661904Y-136181904D01*
X44614285Y-136277142D01*
X44566666Y-136324761D01*
X44471428Y-136372380D01*
X44280952Y-136372380D01*
X44185714Y-136324761D01*
X44138095Y-136277142D01*
X44090476Y-136181904D01*
X44090476Y-135372380D01*
X43709523Y-135372380D02*
X43090476Y-135372380D01*
X43423809Y-135753333D01*
X43280952Y-135753333D01*
X43185714Y-135800952D01*
X43138095Y-135848571D01*
X43090476Y-135943809D01*
X43090476Y-136181904D01*
X43138095Y-136277142D01*
X43185714Y-136324761D01*
X43280952Y-136372380D01*
X43566666Y-136372380D01*
X43661904Y-136324761D01*
X43709523Y-136277142D01*
G04 #@! TO.C,R1*
X42402380Y-94833333D02*
X41926190Y-94500000D01*
X42402380Y-94261904D02*
X41402380Y-94261904D01*
X41402380Y-94642857D01*
X41450000Y-94738095D01*
X41497619Y-94785714D01*
X41592857Y-94833333D01*
X41735714Y-94833333D01*
X41830952Y-94785714D01*
X41878571Y-94738095D01*
X41926190Y-94642857D01*
X41926190Y-94261904D01*
X42402380Y-95785714D02*
X42402380Y-95214285D01*
X42402380Y-95500000D02*
X41402380Y-95500000D01*
X41545238Y-95404761D01*
X41640476Y-95309523D01*
X41688095Y-95214285D01*
X40202380Y-93204761D02*
X40202380Y-92633333D01*
X40202380Y-92919047D02*
X39202380Y-92919047D01*
X39345238Y-92823809D01*
X39440476Y-92728571D01*
X39488095Y-92633333D01*
X39202380Y-93823809D02*
X39202380Y-93919047D01*
X39250000Y-94014285D01*
X39297619Y-94061904D01*
X39392857Y-94109523D01*
X39583333Y-94157142D01*
X39821428Y-94157142D01*
X40011904Y-94109523D01*
X40107142Y-94061904D01*
X40154761Y-94014285D01*
X40202380Y-93919047D01*
X40202380Y-93823809D01*
X40154761Y-93728571D01*
X40107142Y-93680952D01*
X40011904Y-93633333D01*
X39821428Y-93585714D01*
X39583333Y-93585714D01*
X39392857Y-93633333D01*
X39297619Y-93680952D01*
X39250000Y-93728571D01*
X39202380Y-93823809D01*
X40202380Y-94585714D02*
X39202380Y-94585714D01*
X39821428Y-94680952D02*
X40202380Y-94966666D01*
X39535714Y-94966666D02*
X39916666Y-94585714D01*
G04 #@! TO.C,C2*
X50316666Y-88607142D02*
X50364285Y-88654761D01*
X50507142Y-88702380D01*
X50602380Y-88702380D01*
X50745238Y-88654761D01*
X50840476Y-88559523D01*
X50888095Y-88464285D01*
X50935714Y-88273809D01*
X50935714Y-88130952D01*
X50888095Y-87940476D01*
X50840476Y-87845238D01*
X50745238Y-87750000D01*
X50602380Y-87702380D01*
X50507142Y-87702380D01*
X50364285Y-87750000D01*
X50316666Y-87797619D01*
X49935714Y-87797619D02*
X49888095Y-87750000D01*
X49792857Y-87702380D01*
X49554761Y-87702380D01*
X49459523Y-87750000D01*
X49411904Y-87797619D01*
X49364285Y-87892857D01*
X49364285Y-87988095D01*
X49411904Y-88130952D01*
X49983333Y-88702380D01*
X49364285Y-88702380D01*
X51264285Y-93402380D02*
X51169047Y-93402380D01*
X51073809Y-93450000D01*
X51026190Y-93497619D01*
X50978571Y-93592857D01*
X50930952Y-93783333D01*
X50930952Y-94021428D01*
X50978571Y-94211904D01*
X51026190Y-94307142D01*
X51073809Y-94354761D01*
X51169047Y-94402380D01*
X51264285Y-94402380D01*
X51359523Y-94354761D01*
X51407142Y-94307142D01*
X51454761Y-94211904D01*
X51502380Y-94021428D01*
X51502380Y-93783333D01*
X51454761Y-93592857D01*
X51407142Y-93497619D01*
X51359523Y-93450000D01*
X51264285Y-93402380D01*
X50502380Y-94307142D02*
X50454761Y-94354761D01*
X50502380Y-94402380D01*
X50550000Y-94354761D01*
X50502380Y-94307142D01*
X50502380Y-94402380D01*
X49502380Y-94402380D02*
X50073809Y-94402380D01*
X49788095Y-94402380D02*
X49788095Y-93402380D01*
X49883333Y-93545238D01*
X49978571Y-93640476D01*
X50073809Y-93688095D01*
X48645238Y-93735714D02*
X48645238Y-94402380D01*
X49073809Y-93735714D02*
X49073809Y-94259523D01*
X49026190Y-94354761D01*
X48930952Y-94402380D01*
X48788095Y-94402380D01*
X48692857Y-94354761D01*
X48645238Y-94307142D01*
G04 #@! TO.C,C3*
X44816666Y-88557142D02*
X44864285Y-88604761D01*
X45007142Y-88652380D01*
X45102380Y-88652380D01*
X45245238Y-88604761D01*
X45340476Y-88509523D01*
X45388095Y-88414285D01*
X45435714Y-88223809D01*
X45435714Y-88080952D01*
X45388095Y-87890476D01*
X45340476Y-87795238D01*
X45245238Y-87700000D01*
X45102380Y-87652380D01*
X45007142Y-87652380D01*
X44864285Y-87700000D01*
X44816666Y-87747619D01*
X44483333Y-87652380D02*
X43864285Y-87652380D01*
X44197619Y-88033333D01*
X44054761Y-88033333D01*
X43959523Y-88080952D01*
X43911904Y-88128571D01*
X43864285Y-88223809D01*
X43864285Y-88461904D01*
X43911904Y-88557142D01*
X43959523Y-88604761D01*
X44054761Y-88652380D01*
X44340476Y-88652380D01*
X44435714Y-88604761D01*
X44483333Y-88557142D01*
X45814285Y-93352380D02*
X45719047Y-93352380D01*
X45623809Y-93400000D01*
X45576190Y-93447619D01*
X45528571Y-93542857D01*
X45480952Y-93733333D01*
X45480952Y-93971428D01*
X45528571Y-94161904D01*
X45576190Y-94257142D01*
X45623809Y-94304761D01*
X45719047Y-94352380D01*
X45814285Y-94352380D01*
X45909523Y-94304761D01*
X45957142Y-94257142D01*
X46004761Y-94161904D01*
X46052380Y-93971428D01*
X46052380Y-93733333D01*
X46004761Y-93542857D01*
X45957142Y-93447619D01*
X45909523Y-93400000D01*
X45814285Y-93352380D01*
X45052380Y-94257142D02*
X45004761Y-94304761D01*
X45052380Y-94352380D01*
X45100000Y-94304761D01*
X45052380Y-94257142D01*
X45052380Y-94352380D01*
X44052380Y-94352380D02*
X44623809Y-94352380D01*
X44338095Y-94352380D02*
X44338095Y-93352380D01*
X44433333Y-93495238D01*
X44528571Y-93590476D01*
X44623809Y-93638095D01*
X43195238Y-93685714D02*
X43195238Y-94352380D01*
X43623809Y-93685714D02*
X43623809Y-94209523D01*
X43576190Y-94304761D01*
X43480952Y-94352380D01*
X43338095Y-94352380D01*
X43242857Y-94304761D01*
X43195238Y-94257142D01*
G04 #@! TO.C,D1*
X49488095Y-99952380D02*
X49488095Y-98952380D01*
X49250000Y-98952380D01*
X49107142Y-99000000D01*
X49011904Y-99095238D01*
X48964285Y-99190476D01*
X48916666Y-99380952D01*
X48916666Y-99523809D01*
X48964285Y-99714285D01*
X49011904Y-99809523D01*
X49107142Y-99904761D01*
X49250000Y-99952380D01*
X49488095Y-99952380D01*
X47964285Y-99952380D02*
X48535714Y-99952380D01*
X48250000Y-99952380D02*
X48250000Y-98952380D01*
X48345238Y-99095238D01*
X48440476Y-99190476D01*
X48535714Y-99238095D01*
X51561904Y-99952380D02*
X51561904Y-98952380D01*
X50990476Y-99952380D02*
X51419047Y-99380952D01*
X50990476Y-98952380D02*
X51561904Y-99523809D01*
G04 #@! TO.C,J4*
X51622380Y-83516666D02*
X52336666Y-83516666D01*
X52479523Y-83469047D01*
X52574761Y-83373809D01*
X52622380Y-83230952D01*
X52622380Y-83135714D01*
X51955714Y-84421428D02*
X52622380Y-84421428D01*
X51574761Y-84183333D02*
X52289047Y-83945238D01*
X52289047Y-84564285D01*
G04 #@! TO.C,U1*
X34201904Y-70872380D02*
X34201904Y-71681904D01*
X34154285Y-71777142D01*
X34106666Y-71824761D01*
X34011428Y-71872380D01*
X33820952Y-71872380D01*
X33725714Y-71824761D01*
X33678095Y-71777142D01*
X33630476Y-71681904D01*
X33630476Y-70872380D01*
X32630476Y-71872380D02*
X33201904Y-71872380D01*
X32916190Y-71872380D02*
X32916190Y-70872380D01*
X33011428Y-71015238D01*
X33106666Y-71110476D01*
X33201904Y-71158095D01*
G04 #@! TO.C,J5*
X42222380Y-83466666D02*
X42936666Y-83466666D01*
X43079523Y-83419047D01*
X43174761Y-83323809D01*
X43222380Y-83180952D01*
X43222380Y-83085714D01*
X42222380Y-84419047D02*
X42222380Y-83942857D01*
X42698571Y-83895238D01*
X42650952Y-83942857D01*
X42603333Y-84038095D01*
X42603333Y-84276190D01*
X42650952Y-84371428D01*
X42698571Y-84419047D01*
X42793809Y-84466666D01*
X43031904Y-84466666D01*
X43127142Y-84419047D01*
X43174761Y-84371428D01*
X43222380Y-84276190D01*
X43222380Y-84038095D01*
X43174761Y-83942857D01*
X43127142Y-83895238D01*
G04 #@! TO.C,R7*
X34452380Y-93733333D02*
X33976190Y-93400000D01*
X34452380Y-93161904D02*
X33452380Y-93161904D01*
X33452380Y-93542857D01*
X33500000Y-93638095D01*
X33547619Y-93685714D01*
X33642857Y-93733333D01*
X33785714Y-93733333D01*
X33880952Y-93685714D01*
X33928571Y-93638095D01*
X33976190Y-93542857D01*
X33976190Y-93161904D01*
X33452380Y-94066666D02*
X33452380Y-94733333D01*
X34452380Y-94304761D01*
X36602380Y-93204761D02*
X36602380Y-92633333D01*
X36602380Y-92919047D02*
X35602380Y-92919047D01*
X35745238Y-92823809D01*
X35840476Y-92728571D01*
X35888095Y-92633333D01*
X35602380Y-93823809D02*
X35602380Y-93919047D01*
X35650000Y-94014285D01*
X35697619Y-94061904D01*
X35792857Y-94109523D01*
X35983333Y-94157142D01*
X36221428Y-94157142D01*
X36411904Y-94109523D01*
X36507142Y-94061904D01*
X36554761Y-94014285D01*
X36602380Y-93919047D01*
X36602380Y-93823809D01*
X36554761Y-93728571D01*
X36507142Y-93680952D01*
X36411904Y-93633333D01*
X36221428Y-93585714D01*
X35983333Y-93585714D01*
X35792857Y-93633333D01*
X35697619Y-93680952D01*
X35650000Y-93728571D01*
X35602380Y-93823809D01*
X36602380Y-94585714D02*
X35602380Y-94585714D01*
X36221428Y-94680952D02*
X36602380Y-94966666D01*
X35935714Y-94966666D02*
X36316666Y-94585714D01*
G04 #@! TO.C,J6*
X33422380Y-74816666D02*
X34136666Y-74816666D01*
X34279523Y-74769047D01*
X34374761Y-74673809D01*
X34422380Y-74530952D01*
X34422380Y-74435714D01*
X33422380Y-75721428D02*
X33422380Y-75530952D01*
X33470000Y-75435714D01*
X33517619Y-75388095D01*
X33660476Y-75292857D01*
X33850952Y-75245238D01*
X34231904Y-75245238D01*
X34327142Y-75292857D01*
X34374761Y-75340476D01*
X34422380Y-75435714D01*
X34422380Y-75626190D01*
X34374761Y-75721428D01*
X34327142Y-75769047D01*
X34231904Y-75816666D01*
X33993809Y-75816666D01*
X33898571Y-75769047D01*
X33850952Y-75721428D01*
X33803333Y-75626190D01*
X33803333Y-75435714D01*
X33850952Y-75340476D01*
X33898571Y-75292857D01*
X33993809Y-75245238D01*
G04 #@! TD*
%LPC*%
D12*
G04 #@! TO.C,U3*
X52790000Y-127030000D03*
X52790000Y-124490000D03*
X52790000Y-121950000D03*
X52790000Y-119410000D03*
X52790000Y-116870000D03*
X35010000Y-116870000D03*
X35010000Y-119410000D03*
X35010000Y-121950000D03*
X35010000Y-124490000D03*
X35010000Y-127030000D03*
G04 #@! TD*
G04 #@! TO.C,U2*
X55180000Y-79970000D03*
X55180000Y-82510000D03*
X55180000Y-85050000D03*
X55180000Y-87590000D03*
X55180000Y-90130000D03*
X55180000Y-92670000D03*
X55180000Y-95210000D03*
X55180000Y-97750000D03*
X55180000Y-100290000D03*
X55180000Y-102830000D03*
X55180000Y-105370000D03*
X55180000Y-107910000D03*
X55180000Y-110450000D03*
X55180000Y-112990000D03*
X55180000Y-115530000D03*
X55180000Y-118070000D03*
X55180000Y-120610000D03*
X55180000Y-123150000D03*
X55180000Y-125690000D03*
X55180000Y-128230000D03*
X32320000Y-79970000D03*
X32320000Y-82510000D03*
X32320000Y-85050000D03*
X32320000Y-87590000D03*
X32320000Y-90130000D03*
X32320000Y-92670000D03*
X32320000Y-95210000D03*
X32320000Y-97750000D03*
X32320000Y-100290000D03*
X32320000Y-102830000D03*
X32320000Y-105370000D03*
X32320000Y-107910000D03*
X32320000Y-110450000D03*
X32320000Y-112990000D03*
X32320000Y-115530000D03*
X32320000Y-118070000D03*
X32320000Y-120610000D03*
X32320000Y-123150000D03*
X32320000Y-125690000D03*
X32320000Y-128230000D03*
G04 #@! TD*
D13*
G04 #@! TO.C,hole4*
X55200000Y-138500000D03*
G04 #@! TD*
G04 #@! TO.C,hole3*
X32000000Y-138500000D03*
G04 #@! TD*
G04 #@! TO.C,hole2*
X55200000Y-48500000D03*
G04 #@! TD*
D14*
G04 #@! TO.C,R1*
X39700000Y-90000000D03*
D15*
X39700000Y-97620000D03*
G04 #@! TD*
D14*
G04 #@! TO.C,C1*
X31400000Y-62550000D03*
D16*
X29400000Y-62550000D03*
G04 #@! TD*
D17*
G04 #@! TO.C,C2*
X48800000Y-91100000D03*
X51300000Y-91100000D03*
G04 #@! TD*
G04 #@! TO.C,C3*
X45900000Y-91050000D03*
X43400000Y-91050000D03*
G04 #@! TD*
D16*
G04 #@! TO.C,C4*
X35150000Y-62550000D03*
D14*
X37150000Y-62550000D03*
G04 #@! TD*
D18*
G04 #@! TO.C,D1*
X51350000Y-97100000D03*
D19*
X46270000Y-97100000D03*
G04 #@! TD*
D20*
G04 #@! TO.C,J1*
X46100000Y-48550000D03*
D21*
X41020000Y-48550000D03*
G04 #@! TD*
D22*
G04 #@! TO.C,J2*
X38900000Y-56850000D03*
D23*
X36360000Y-56850000D03*
X33820000Y-56850000D03*
G04 #@! TD*
D22*
G04 #@! TO.C,J3*
X52850000Y-56850000D03*
D23*
X50310000Y-56850000D03*
X47770000Y-56850000D03*
G04 #@! TD*
D22*
G04 #@! TO.C,J4*
X49400000Y-83850000D03*
D23*
X46860000Y-83850000D03*
G04 #@! TD*
D24*
G04 #@! TO.C,U1*
X30900000Y-67150000D03*
D25*
X33440000Y-67150000D03*
X35980000Y-67150000D03*
G04 #@! TD*
D22*
G04 #@! TO.C,SW1*
X40950000Y-139150000D03*
D23*
X43490000Y-139150000D03*
X46030000Y-139150000D03*
G04 #@! TD*
D22*
G04 #@! TO.C,J5*
X40000000Y-83800000D03*
D23*
X37460000Y-83800000D03*
G04 #@! TD*
D15*
G04 #@! TO.C,R4*
X50900000Y-61630000D03*
D14*
X50900000Y-69250000D03*
G04 #@! TD*
G04 #@! TO.C,R5*
X53900000Y-69250000D03*
D15*
X53900000Y-61630000D03*
G04 #@! TD*
D14*
G04 #@! TO.C,R6*
X56900000Y-69250000D03*
D15*
X56900000Y-61630000D03*
G04 #@! TD*
G04 #@! TO.C,R7*
X36100000Y-97620000D03*
D14*
X36100000Y-90000000D03*
G04 #@! TD*
D12*
G04 #@! TO.C,SW2*
X48190000Y-62810000D03*
D26*
X48190000Y-67890000D03*
D12*
X40570000Y-62810000D03*
X40570000Y-67890000D03*
X40570000Y-65350000D03*
G04 #@! TD*
D22*
G04 #@! TO.C,J6*
X36300000Y-75150000D03*
D23*
X38840000Y-75150000D03*
X41380000Y-75150000D03*
X43920000Y-75150000D03*
X46460000Y-75150000D03*
X49000000Y-75150000D03*
X51540000Y-75150000D03*
G04 #@! TD*
D13*
G04 #@! TO.C,hole1*
X32000000Y-48500000D03*
G04 #@! TD*
M02*
