G04 #@! TF.GenerationSoftware,KiCad,Pcbnew,(5.0.0)*
G04 #@! TF.CreationDate,2019-09-04T21:02:57+09:00*
G04 #@! TF.ProjectId,syateki_gun_main,73796174656B695F67756E5F6D61696E,rev?*
G04 #@! TF.SameCoordinates,Original*
G04 #@! TF.FileFunction,Copper,L1,Top,Signal*
G04 #@! TF.FilePolarity,Positive*
%FSLAX46Y46*%
G04 Gerber Fmt 4.6, Leading zero omitted, Abs format (unit mm)*
G04 Created by KiCad (PCBNEW (5.0.0)) date 09/04/19 21:02:57*
%MOMM*%
%LPD*%
G01*
G04 APERTURE LIST*
G04 #@! TA.AperFunction,ComponentPad*
%ADD10C,1.524000*%
G04 #@! TD*
G04 #@! TA.AperFunction,ComponentPad*
%ADD11C,1.600000*%
G04 #@! TD*
G04 #@! TA.AperFunction,ComponentPad*
%ADD12O,1.600000X1.600000*%
G04 #@! TD*
G04 #@! TA.AperFunction,ComponentPad*
%ADD13R,1.600000X1.600000*%
G04 #@! TD*
G04 #@! TA.AperFunction,ComponentPad*
%ADD14C,1.400000*%
G04 #@! TD*
G04 #@! TA.AperFunction,ComponentPad*
%ADD15R,2.000000X2.000000*%
G04 #@! TD*
G04 #@! TA.AperFunction,ComponentPad*
%ADD16O,2.000000X2.000000*%
G04 #@! TD*
G04 #@! TA.AperFunction,ComponentPad*
%ADD17R,3.000000X3.000000*%
G04 #@! TD*
G04 #@! TA.AperFunction,ComponentPad*
%ADD18C,3.000000*%
G04 #@! TD*
G04 #@! TA.AperFunction,ComponentPad*
%ADD19R,1.700000X1.700000*%
G04 #@! TD*
G04 #@! TA.AperFunction,ComponentPad*
%ADD20O,1.700000X1.700000*%
G04 #@! TD*
G04 #@! TA.AperFunction,ComponentPad*
%ADD21R,1.905000X2.000000*%
G04 #@! TD*
G04 #@! TA.AperFunction,ComponentPad*
%ADD22O,1.905000X2.000000*%
G04 #@! TD*
G04 #@! TA.AperFunction,ComponentPad*
%ADD23R,1.524000X1.524000*%
G04 #@! TD*
G04 #@! TA.AperFunction,Conductor*
%ADD24C,0.400000*%
G04 #@! TD*
G04 #@! TA.AperFunction,Conductor*
%ADD25C,0.250000*%
G04 #@! TD*
G04 #@! TA.AperFunction,Conductor*
%ADD26C,0.254000*%
G04 #@! TD*
G04 APERTURE END LIST*
D10*
G04 #@! TO.P,U3,10*
G04 #@! TO.N,Net-(J5-Pad1)*
X52790000Y-127030000D03*
G04 #@! TO.P,U3,9*
G04 #@! TO.N,Net-(J5-Pad2)*
X52790000Y-124490000D03*
G04 #@! TO.P,U3,8*
G04 #@! TO.N,N/C*
X52790000Y-121950000D03*
G04 #@! TO.P,U3,7*
X52790000Y-119410000D03*
G04 #@! TO.P,U3,6*
X52790000Y-116870000D03*
G04 #@! TO.P,U3,5*
G04 #@! TO.N,5V*
X35010000Y-116870000D03*
G04 #@! TO.P,U3,4*
G04 #@! TO.N,GND*
X35010000Y-119410000D03*
G04 #@! TO.P,U3,3*
G04 #@! TO.N,Net-(U2-Pad28)*
X35010000Y-121950000D03*
G04 #@! TO.P,U3,2*
G04 #@! TO.N,Net-(U2-Pad27)*
X35010000Y-124490000D03*
G04 #@! TO.P,U3,1*
G04 #@! TO.N,N/C*
X35010000Y-127030000D03*
G04 #@! TD*
G04 #@! TO.P,U2,40*
G04 #@! TO.N,GND*
X55180000Y-79970000D03*
G04 #@! TO.P,U2,39*
G04 #@! TO.N,Net-(J6-Pad4)*
X55180000Y-82510000D03*
G04 #@! TO.P,U2,38*
G04 #@! TO.N,Net-(J6-Pad5)*
X55180000Y-85050000D03*
G04 #@! TO.P,U2,37*
G04 #@! TO.N,N/C*
X55180000Y-87590000D03*
G04 #@! TO.P,U2,36*
G04 #@! TO.N,Net-(J6-Pad6)*
X55180000Y-90130000D03*
G04 #@! TO.P,U2,35*
G04 #@! TO.N,N/C*
X55180000Y-92670000D03*
G04 #@! TO.P,U2,34*
X55180000Y-95210000D03*
G04 #@! TO.P,U2,33*
G04 #@! TO.N,Net-(J4-Pad1)*
X55180000Y-97750000D03*
G04 #@! TO.P,U2,32*
G04 #@! TO.N,GND*
X55180000Y-100290000D03*
G04 #@! TO.P,U2,31*
G04 #@! TO.N,N/C*
X55180000Y-102830000D03*
G04 #@! TO.P,U2,30*
G04 #@! TO.N,Net-(J6-Pad3)*
X55180000Y-105370000D03*
G04 #@! TO.P,U2,29*
G04 #@! TO.N,Net-(J6-Pad7)*
X55180000Y-107910000D03*
G04 #@! TO.P,U2,28*
G04 #@! TO.N,Net-(U2-Pad28)*
X55180000Y-110450000D03*
G04 #@! TO.P,U2,27*
G04 #@! TO.N,Net-(U2-Pad27)*
X55180000Y-112990000D03*
G04 #@! TO.P,U2,26*
G04 #@! TO.N,N/C*
X55180000Y-115530000D03*
G04 #@! TO.P,U2,25*
X55180000Y-118070000D03*
G04 #@! TO.P,U2,24*
X55180000Y-120610000D03*
G04 #@! TO.P,U2,23*
G04 #@! TO.N,IO35*
X55180000Y-123150000D03*
G04 #@! TO.P,U2,22*
G04 #@! TO.N,IO34*
X55180000Y-125690000D03*
G04 #@! TO.P,U2,21*
G04 #@! TO.N,GND*
X55180000Y-128230000D03*
G04 #@! TO.P,U2,1*
G04 #@! TO.N,3.3V*
X32320000Y-79970000D03*
G04 #@! TO.P,U2,2*
G04 #@! TO.N,N/C*
X32320000Y-82510000D03*
G04 #@! TO.P,U2,3*
G04 #@! TO.N,Net-(R6-Pad1)*
X32320000Y-85050000D03*
G04 #@! TO.P,U2,4*
G04 #@! TO.N,Net-(R7-Pad1)*
X32320000Y-87590000D03*
G04 #@! TO.P,U2,5*
G04 #@! TO.N,N/C*
X32320000Y-90130000D03*
G04 #@! TO.P,U2,6*
G04 #@! TO.N,Net-(J2-Pad2)*
X32320000Y-92670000D03*
G04 #@! TO.P,U2,7*
G04 #@! TO.N,N/C*
X32320000Y-95210000D03*
G04 #@! TO.P,U2,8*
G04 #@! TO.N,Net-(J3-Pad3)*
X32320000Y-97750000D03*
G04 #@! TO.P,U2,9*
G04 #@! TO.N,GND*
X32320000Y-100290000D03*
G04 #@! TO.P,U2,10*
G04 #@! TO.N,5V*
X32320000Y-102830000D03*
G04 #@! TO.P,U2,11*
G04 #@! TO.N,Net-(R1-Pad1)*
X32320000Y-105370000D03*
G04 #@! TO.P,U2,12*
G04 #@! TO.N,N/C*
X32320000Y-107910000D03*
G04 #@! TO.P,U2,13*
X32320000Y-110450000D03*
G04 #@! TO.P,U2,14*
X32320000Y-112990000D03*
G04 #@! TO.P,U2,15*
X32320000Y-115530000D03*
G04 #@! TO.P,U2,16*
X32320000Y-118070000D03*
G04 #@! TO.P,U2,17*
X32320000Y-120610000D03*
G04 #@! TO.P,U2,18*
X32320000Y-123150000D03*
G04 #@! TO.P,U2,19*
X32320000Y-125690000D03*
G04 #@! TO.P,U2,20*
G04 #@! TO.N,GND*
X32320000Y-128230000D03*
G04 #@! TD*
D11*
G04 #@! TO.P,R1,1*
G04 #@! TO.N,Net-(R1-Pad1)*
X39700000Y-90000000D03*
D12*
G04 #@! TO.P,R1,2*
G04 #@! TO.N,GND*
X39700000Y-97620000D03*
G04 #@! TD*
D11*
G04 #@! TO.P,C1,2*
G04 #@! TO.N,GND*
X31400000Y-62550000D03*
D13*
G04 #@! TO.P,C1,1*
G04 #@! TO.N,Net-(C1-Pad1)*
X29400000Y-62550000D03*
G04 #@! TD*
D14*
G04 #@! TO.P,C2,2*
G04 #@! TO.N,GND*
X48800000Y-91100000D03*
G04 #@! TO.P,C2,1*
G04 #@! TO.N,Net-(C1-Pad1)*
X51300000Y-91100000D03*
G04 #@! TD*
G04 #@! TO.P,C3,1*
G04 #@! TO.N,5V*
X45900000Y-91050000D03*
G04 #@! TO.P,C3,2*
G04 #@! TO.N,GND*
X43400000Y-91050000D03*
G04 #@! TD*
D13*
G04 #@! TO.P,C4,1*
G04 #@! TO.N,5V*
X35150000Y-62550000D03*
D11*
G04 #@! TO.P,C4,2*
G04 #@! TO.N,GND*
X37150000Y-62550000D03*
G04 #@! TD*
D15*
G04 #@! TO.P,D1,1*
G04 #@! TO.N,Net-(C1-Pad1)*
X51350000Y-97100000D03*
D16*
G04 #@! TO.P,D1,2*
G04 #@! TO.N,5V*
X46270000Y-97100000D03*
G04 #@! TD*
D17*
G04 #@! TO.P,J1,1*
G04 #@! TO.N,GND*
X46100000Y-48550000D03*
D18*
G04 #@! TO.P,J1,2*
G04 #@! TO.N,Net-(C1-Pad1)*
X41020000Y-48550000D03*
G04 #@! TD*
D19*
G04 #@! TO.P,J2,1*
G04 #@! TO.N,GND*
X38900000Y-56850000D03*
D20*
G04 #@! TO.P,J2,2*
G04 #@! TO.N,Net-(J2-Pad2)*
X36360000Y-56850000D03*
G04 #@! TO.P,J2,3*
G04 #@! TO.N,3.3V*
X33820000Y-56850000D03*
G04 #@! TD*
D19*
G04 #@! TO.P,J3,1*
G04 #@! TO.N,5V*
X52850000Y-56850000D03*
D20*
G04 #@! TO.P,J3,2*
G04 #@! TO.N,GND*
X50310000Y-56850000D03*
G04 #@! TO.P,J3,3*
G04 #@! TO.N,Net-(J3-Pad3)*
X47770000Y-56850000D03*
G04 #@! TD*
D19*
G04 #@! TO.P,J4,1*
G04 #@! TO.N,Net-(J4-Pad1)*
X49400000Y-83850000D03*
D20*
G04 #@! TO.P,J4,2*
G04 #@! TO.N,GND*
X46860000Y-83850000D03*
G04 #@! TD*
D21*
G04 #@! TO.P,U1,1*
G04 #@! TO.N,Net-(C1-Pad1)*
X30900000Y-67150000D03*
D22*
G04 #@! TO.P,U1,2*
G04 #@! TO.N,GND*
X33440000Y-67150000D03*
G04 #@! TO.P,U1,3*
G04 #@! TO.N,5V*
X35980000Y-67150000D03*
G04 #@! TD*
D19*
G04 #@! TO.P,SW1,1*
G04 #@! TO.N,Net-(R1-Pad1)*
X40950000Y-139150000D03*
D20*
G04 #@! TO.P,SW1,2*
G04 #@! TO.N,3.3V*
X43490000Y-139150000D03*
G04 #@! TO.P,SW1,3*
G04 #@! TO.N,N/C*
X46030000Y-139150000D03*
G04 #@! TD*
D19*
G04 #@! TO.P,J5,1*
G04 #@! TO.N,Net-(J5-Pad1)*
X40000000Y-83800000D03*
D20*
G04 #@! TO.P,J5,2*
G04 #@! TO.N,Net-(J5-Pad2)*
X37460000Y-83800000D03*
G04 #@! TD*
D12*
G04 #@! TO.P,R4,2*
G04 #@! TO.N,GND*
X50900000Y-61630000D03*
D11*
G04 #@! TO.P,R4,1*
G04 #@! TO.N,IO34*
X50900000Y-69250000D03*
G04 #@! TD*
G04 #@! TO.P,R5,1*
G04 #@! TO.N,IO35*
X53900000Y-69250000D03*
D12*
G04 #@! TO.P,R5,2*
G04 #@! TO.N,GND*
X53900000Y-61630000D03*
G04 #@! TD*
D11*
G04 #@! TO.P,R6,1*
G04 #@! TO.N,Net-(R6-Pad1)*
X56900000Y-69250000D03*
D12*
G04 #@! TO.P,R6,2*
G04 #@! TO.N,GND*
X56900000Y-61630000D03*
G04 #@! TD*
G04 #@! TO.P,R7,2*
G04 #@! TO.N,GND*
X36100000Y-97620000D03*
D11*
G04 #@! TO.P,R7,1*
G04 #@! TO.N,Net-(R7-Pad1)*
X36100000Y-90000000D03*
G04 #@! TD*
D10*
G04 #@! TO.P,SW2,2*
G04 #@! TO.N,Net-(R7-Pad1)*
X48190000Y-62810000D03*
D23*
G04 #@! TO.P,SW2,1*
G04 #@! TO.N,Net-(R6-Pad1)*
X48190000Y-67890000D03*
D10*
G04 #@! TO.P,SW2,8*
G04 #@! TO.N,IO35*
X40570000Y-62810000D03*
G04 #@! TO.P,SW2,4*
G04 #@! TO.N,IO34*
X40570000Y-67890000D03*
G04 #@! TO.P,SW2,C*
G04 #@! TO.N,3.3V*
X40570000Y-65350000D03*
G04 #@! TD*
D19*
G04 #@! TO.P,J6,1*
G04 #@! TO.N,GND*
X36300000Y-75150000D03*
D20*
G04 #@! TO.P,J6,2*
G04 #@! TO.N,3.3V*
X38840000Y-75150000D03*
G04 #@! TO.P,J6,3*
G04 #@! TO.N,Net-(J6-Pad3)*
X41380000Y-75150000D03*
G04 #@! TO.P,J6,4*
G04 #@! TO.N,Net-(J6-Pad4)*
X43920000Y-75150000D03*
G04 #@! TO.P,J6,5*
G04 #@! TO.N,Net-(J6-Pad5)*
X46460000Y-75150000D03*
G04 #@! TO.P,J6,6*
G04 #@! TO.N,Net-(J6-Pad6)*
X49000000Y-75150000D03*
G04 #@! TO.P,J6,7*
G04 #@! TO.N,Net-(J6-Pad7)*
X51540000Y-75150000D03*
G04 #@! TD*
D24*
G04 #@! TO.N,GND*
X54199700Y-63130000D02*
X53900000Y-62830300D01*
X55180000Y-79970000D02*
X55180000Y-64110300D01*
X55180000Y-64110300D02*
X54199700Y-63130000D01*
X54199700Y-63130000D02*
X55699700Y-61630000D01*
X56900000Y-61630000D02*
X55699700Y-61630000D01*
X36100000Y-97620000D02*
X37300300Y-97620000D01*
X39700000Y-97019800D02*
X37900500Y-97019800D01*
X37900500Y-97019800D02*
X37300300Y-97620000D01*
X39700000Y-97019800D02*
X39700000Y-96419700D01*
X39700000Y-97620000D02*
X39700000Y-97019800D01*
X43400000Y-91050000D02*
X43400000Y-92719700D01*
X43400000Y-92719700D02*
X39700000Y-96419700D01*
X38900000Y-56850000D02*
X38900000Y-58100300D01*
X37150000Y-62550000D02*
X37150000Y-59850300D01*
X37150000Y-59850300D02*
X38900000Y-58100300D01*
X43627200Y-50872500D02*
X44199700Y-50300000D01*
X44199700Y-50300000D02*
X44199700Y-48550000D01*
X38900000Y-55599700D02*
X43627200Y-50872500D01*
X43627200Y-50872500D02*
X49059700Y-56305000D01*
X49059700Y-56305000D02*
X49059700Y-56850000D01*
X50310000Y-56850000D02*
X49059700Y-56850000D01*
X46860000Y-83850000D02*
X45609700Y-83850000D01*
X36300000Y-75150000D02*
X37550300Y-75150000D01*
X45609700Y-83850000D02*
X37550300Y-75790600D01*
X37550300Y-75790600D02*
X37550300Y-75150000D01*
X36300000Y-75150000D02*
X36300000Y-73899700D01*
X36300000Y-73899700D02*
X33440000Y-71039700D01*
X33440000Y-71039700D02*
X33440000Y-67150000D01*
X46100000Y-48550000D02*
X44199700Y-48550000D01*
X38900000Y-56850000D02*
X38900000Y-55599700D01*
X53900000Y-61630000D02*
X53900000Y-62830300D01*
D25*
G04 #@! TO.N,Net-(C1-Pad1)*
X29400000Y-62550000D02*
X29787600Y-62550000D01*
X29787600Y-62550000D02*
X35090000Y-57247600D01*
X35090000Y-57247600D02*
X35090000Y-54480000D01*
X35090000Y-54480000D02*
X41020000Y-48550000D01*
X50263900Y-92136100D02*
X45508600Y-92136100D01*
X45508600Y-92136100D02*
X44787300Y-91414800D01*
X44787300Y-91414800D02*
X44787300Y-90754200D01*
X44787300Y-90754200D02*
X38775600Y-84742500D01*
X38775600Y-84742500D02*
X38775600Y-80901100D01*
X38775600Y-80901100D02*
X30900000Y-73025500D01*
X30900000Y-73025500D02*
X30900000Y-67150000D01*
X51350000Y-97100000D02*
X51350000Y-95774700D01*
X50263900Y-92136100D02*
X51300000Y-91100000D01*
X51350000Y-95774700D02*
X50263900Y-94688600D01*
X50263900Y-94688600D02*
X50263900Y-92136100D01*
G04 #@! TO.N,Net-(J2-Pad2)*
X36360000Y-56850000D02*
X36360000Y-59202600D01*
X36360000Y-59202600D02*
X29622100Y-65940500D01*
X29622100Y-65940500D02*
X29622100Y-74416400D01*
X29622100Y-74416400D02*
X33458700Y-78253000D01*
X33458700Y-78253000D02*
X33458700Y-91531300D01*
X33458700Y-91531300D02*
X32320000Y-92670000D01*
D24*
G04 #@! TO.N,3.3V*
X43490000Y-139150000D02*
X43490000Y-137899700D01*
X43490000Y-137899700D02*
X33740000Y-128149700D01*
X33740000Y-128149700D02*
X33740000Y-125453800D01*
X33740000Y-125453800D02*
X32706200Y-124420000D01*
X32706200Y-124420000D02*
X31931800Y-124420000D01*
X31931800Y-124420000D02*
X30503000Y-122991200D01*
X30503000Y-122991200D02*
X30503000Y-81787000D01*
X30503000Y-81787000D02*
X32320000Y-79970000D01*
X33820000Y-56850000D02*
X32569700Y-56850000D01*
X32320000Y-79970000D02*
X28199600Y-75849600D01*
X28199600Y-75849600D02*
X28199600Y-61220100D01*
X28199600Y-61220100D02*
X32569700Y-56850000D01*
G04 #@! TO.N,5V*
X35010000Y-106540000D02*
X31823800Y-106540000D01*
X31823800Y-106540000D02*
X31124200Y-105840400D01*
X31124200Y-105840400D02*
X31124200Y-104025800D01*
X31124200Y-104025800D02*
X32320000Y-102830000D01*
X44869700Y-97100000D02*
X35429700Y-106540000D01*
X35429700Y-106540000D02*
X35010000Y-106540000D01*
X35010000Y-106540000D02*
X35010000Y-116870000D01*
X46270000Y-97100000D02*
X44869700Y-97100000D01*
X45898000Y-72687800D02*
X43410700Y-72687800D01*
X43410700Y-72687800D02*
X37872900Y-67150000D01*
X37872900Y-67150000D02*
X37332800Y-67150000D01*
X35980000Y-67150000D02*
X37332800Y-67150000D01*
X35980000Y-67150000D02*
X35980000Y-64580300D01*
X35980000Y-64580300D02*
X35150000Y-63750300D01*
X45898000Y-72687800D02*
X47710400Y-74500200D01*
X47710400Y-74500200D02*
X47710400Y-78980100D01*
X47710400Y-78980100D02*
X48149600Y-79419300D01*
X48149600Y-79419300D02*
X48149600Y-88800400D01*
X48149600Y-88800400D02*
X45900000Y-91050000D01*
X52850000Y-58100300D02*
X52693700Y-58100300D01*
X52693700Y-58100300D02*
X49526000Y-61268000D01*
X49526000Y-61268000D02*
X49526000Y-69059800D01*
X49526000Y-69059800D02*
X45898000Y-72687800D01*
X52850000Y-56850000D02*
X52850000Y-58100300D01*
X35150000Y-62550000D02*
X35150000Y-63750300D01*
D25*
G04 #@! TO.N,Net-(R1-Pad1)*
X32320000Y-105370000D02*
X34118100Y-103571900D01*
X34118100Y-103571900D02*
X34118100Y-95581900D01*
X34118100Y-95581900D02*
X39700000Y-90000000D01*
G04 #@! TO.N,Net-(U2-Pad28)*
X55180000Y-110450000D02*
X46510000Y-110450000D01*
X46510000Y-110450000D02*
X35010000Y-121950000D01*
G04 #@! TO.N,Net-(U2-Pad27)*
X55180000Y-112990000D02*
X46510000Y-112990000D01*
X46510000Y-112990000D02*
X35010000Y-124490000D01*
G04 #@! TO.N,Net-(J6-Pad7)*
X51540000Y-76325300D02*
X51540000Y-80309600D01*
X51540000Y-80309600D02*
X53515400Y-82285000D01*
X53515400Y-82285000D02*
X53515400Y-106245400D01*
X53515400Y-106245400D02*
X55180000Y-107910000D01*
X51540000Y-75150000D02*
X51540000Y-76325300D01*
G04 #@! TO.N,IO34*
X50900000Y-69250000D02*
X53515400Y-71865400D01*
X53515400Y-71865400D02*
X53515400Y-81422800D01*
X53515400Y-81422800D02*
X53965800Y-81873200D01*
X53965800Y-81873200D02*
X53965800Y-85413600D01*
X53965800Y-85413600D02*
X54872200Y-86320000D01*
X54872200Y-86320000D02*
X55483200Y-86320000D01*
X55483200Y-86320000D02*
X56276400Y-87113200D01*
X56276400Y-87113200D02*
X56276400Y-113447400D01*
X56276400Y-113447400D02*
X55463800Y-114260000D01*
X55463800Y-114260000D02*
X54898800Y-114260000D01*
X54898800Y-114260000D02*
X54092600Y-115066200D01*
X54092600Y-115066200D02*
X54092600Y-124602600D01*
X54092600Y-124602600D02*
X55180000Y-125690000D01*
G04 #@! TO.N,IO35*
X55180000Y-123150000D02*
X56726700Y-121603300D01*
X56726700Y-121603300D02*
X56726700Y-82484000D01*
X56726700Y-82484000D02*
X55482700Y-81240000D01*
X55482700Y-81240000D02*
X54872200Y-81240000D01*
X54872200Y-81240000D02*
X53965800Y-80333600D01*
X53965800Y-80333600D02*
X53965800Y-69315800D01*
X53965800Y-69315800D02*
X53900000Y-69250000D01*
G04 #@! TD*
D26*
G04 #@! TO.N,GND*
G36*
X59490000Y-142790000D02*
X27710000Y-142790000D01*
X27710000Y-138055431D01*
X29765000Y-138055431D01*
X29765000Y-138944569D01*
X30105259Y-139766026D01*
X30733974Y-140394741D01*
X31555431Y-140735000D01*
X32444569Y-140735000D01*
X33266026Y-140394741D01*
X33894741Y-139766026D01*
X34235000Y-138944569D01*
X34235000Y-138055431D01*
X33894741Y-137233974D01*
X33266026Y-136605259D01*
X32444569Y-136265000D01*
X31555431Y-136265000D01*
X30733974Y-136605259D01*
X30105259Y-137233974D01*
X29765000Y-138055431D01*
X27710000Y-138055431D01*
X27710000Y-129210213D01*
X31519392Y-129210213D01*
X31588857Y-129452397D01*
X32112302Y-129639144D01*
X32667368Y-129611362D01*
X33051143Y-129452397D01*
X33120608Y-129210213D01*
X32320000Y-128409605D01*
X31519392Y-129210213D01*
X27710000Y-129210213D01*
X27710000Y-128022302D01*
X30910856Y-128022302D01*
X30938638Y-128577368D01*
X31097603Y-128961143D01*
X31339787Y-129030608D01*
X32140395Y-128230000D01*
X31339787Y-127429392D01*
X31097603Y-127498857D01*
X30910856Y-128022302D01*
X27710000Y-128022302D01*
X27710000Y-76540867D01*
X30923000Y-79753868D01*
X30923000Y-80186132D01*
X29970718Y-81138415D01*
X29901000Y-81184999D01*
X29854416Y-81254717D01*
X29716448Y-81461200D01*
X29651643Y-81787000D01*
X29668001Y-81869238D01*
X29668000Y-122908967D01*
X29651643Y-122991200D01*
X29668000Y-123073433D01*
X29668000Y-123073436D01*
X29716448Y-123317000D01*
X29900999Y-123593201D01*
X29970720Y-123639787D01*
X31182637Y-124851706D01*
X31135680Y-124898663D01*
X30923000Y-125412119D01*
X30923000Y-125967881D01*
X31135680Y-126481337D01*
X31528663Y-126874320D01*
X31719647Y-126953428D01*
X31588857Y-127007603D01*
X31519392Y-127249787D01*
X32320000Y-128050395D01*
X32334143Y-128036253D01*
X32513748Y-128215858D01*
X32499605Y-128230000D01*
X33300213Y-129030608D01*
X33408874Y-128999441D01*
X42239166Y-137829734D01*
X42047765Y-137701843D01*
X41800000Y-137652560D01*
X40100000Y-137652560D01*
X39852235Y-137701843D01*
X39642191Y-137842191D01*
X39501843Y-138052235D01*
X39452560Y-138300000D01*
X39452560Y-140000000D01*
X39501843Y-140247765D01*
X39642191Y-140457809D01*
X39852235Y-140598157D01*
X40100000Y-140647440D01*
X41800000Y-140647440D01*
X42047765Y-140598157D01*
X42257809Y-140457809D01*
X42398157Y-140247765D01*
X42407184Y-140202381D01*
X42419375Y-140220625D01*
X42910582Y-140548839D01*
X43343744Y-140635000D01*
X43636256Y-140635000D01*
X44069418Y-140548839D01*
X44560625Y-140220625D01*
X44760000Y-139922239D01*
X44959375Y-140220625D01*
X45450582Y-140548839D01*
X45883744Y-140635000D01*
X46176256Y-140635000D01*
X46609418Y-140548839D01*
X47100625Y-140220625D01*
X47428839Y-139729418D01*
X47544092Y-139150000D01*
X47428839Y-138570582D01*
X47100625Y-138079375D01*
X47064791Y-138055431D01*
X52965000Y-138055431D01*
X52965000Y-138944569D01*
X53305259Y-139766026D01*
X53933974Y-140394741D01*
X54755431Y-140735000D01*
X55644569Y-140735000D01*
X56466026Y-140394741D01*
X57094741Y-139766026D01*
X57435000Y-138944569D01*
X57435000Y-138055431D01*
X57094741Y-137233974D01*
X56466026Y-136605259D01*
X55644569Y-136265000D01*
X54755431Y-136265000D01*
X53933974Y-136605259D01*
X53305259Y-137233974D01*
X52965000Y-138055431D01*
X47064791Y-138055431D01*
X46609418Y-137751161D01*
X46176256Y-137665000D01*
X45883744Y-137665000D01*
X45450582Y-137751161D01*
X44959375Y-138079375D01*
X44760000Y-138377761D01*
X44560625Y-138079375D01*
X44335534Y-137928974D01*
X44341357Y-137899699D01*
X44325000Y-137817466D01*
X44325000Y-137817463D01*
X44276552Y-137573899D01*
X44092001Y-137297699D01*
X44022283Y-137251115D01*
X35981381Y-129210213D01*
X54379392Y-129210213D01*
X54448857Y-129452397D01*
X54972302Y-129639144D01*
X55527368Y-129611362D01*
X55911143Y-129452397D01*
X55980608Y-129210213D01*
X55180000Y-128409605D01*
X54379392Y-129210213D01*
X35981381Y-129210213D01*
X35198167Y-128427000D01*
X35287881Y-128427000D01*
X35801337Y-128214320D01*
X36194320Y-127821337D01*
X36407000Y-127307881D01*
X36407000Y-126752119D01*
X36194320Y-126238663D01*
X35801337Y-125845680D01*
X35594487Y-125760000D01*
X35801337Y-125674320D01*
X36194320Y-125281337D01*
X36407000Y-124767881D01*
X36407000Y-124212119D01*
X36394020Y-124180781D01*
X46824802Y-113750000D01*
X53982700Y-113750000D01*
X53995680Y-113781337D01*
X54149171Y-113934828D01*
X53608130Y-114475869D01*
X53544671Y-114518271D01*
X53376696Y-114769664D01*
X53332600Y-114991349D01*
X53332600Y-114991353D01*
X53317712Y-115066200D01*
X53332600Y-115141047D01*
X53332600Y-115582650D01*
X53067881Y-115473000D01*
X52512119Y-115473000D01*
X51998663Y-115685680D01*
X51605680Y-116078663D01*
X51393000Y-116592119D01*
X51393000Y-117147881D01*
X51605680Y-117661337D01*
X51998663Y-118054320D01*
X52205513Y-118140000D01*
X51998663Y-118225680D01*
X51605680Y-118618663D01*
X51393000Y-119132119D01*
X51393000Y-119687881D01*
X51605680Y-120201337D01*
X51998663Y-120594320D01*
X52205513Y-120680000D01*
X51998663Y-120765680D01*
X51605680Y-121158663D01*
X51393000Y-121672119D01*
X51393000Y-122227881D01*
X51605680Y-122741337D01*
X51998663Y-123134320D01*
X52205513Y-123220000D01*
X51998663Y-123305680D01*
X51605680Y-123698663D01*
X51393000Y-124212119D01*
X51393000Y-124767881D01*
X51605680Y-125281337D01*
X51998663Y-125674320D01*
X52205513Y-125760000D01*
X51998663Y-125845680D01*
X51605680Y-126238663D01*
X51393000Y-126752119D01*
X51393000Y-127307881D01*
X51605680Y-127821337D01*
X51998663Y-128214320D01*
X52512119Y-128427000D01*
X53067881Y-128427000D01*
X53581337Y-128214320D01*
X53770975Y-128024682D01*
X53798638Y-128577368D01*
X53957603Y-128961143D01*
X54199787Y-129030608D01*
X55000395Y-128230000D01*
X55359605Y-128230000D01*
X56160213Y-129030608D01*
X56402397Y-128961143D01*
X56589144Y-128437698D01*
X56561362Y-127882632D01*
X56402397Y-127498857D01*
X56160213Y-127429392D01*
X55359605Y-128230000D01*
X55000395Y-128230000D01*
X54986253Y-128215858D01*
X55165858Y-128036253D01*
X55180000Y-128050395D01*
X55980608Y-127249787D01*
X55911143Y-127007603D01*
X55770607Y-126957465D01*
X55971337Y-126874320D01*
X56364320Y-126481337D01*
X56577000Y-125967881D01*
X56577000Y-125412119D01*
X56364320Y-124898663D01*
X55971337Y-124505680D01*
X55764487Y-124420000D01*
X55971337Y-124334320D01*
X56364320Y-123941337D01*
X56577000Y-123427881D01*
X56577000Y-122872119D01*
X56564020Y-122840782D01*
X57211173Y-122193629D01*
X57274629Y-122151229D01*
X57442604Y-121899837D01*
X57486700Y-121678152D01*
X57486700Y-121678148D01*
X57501588Y-121603301D01*
X57486700Y-121528454D01*
X57486700Y-82558848D01*
X57501588Y-82484000D01*
X57486700Y-82409152D01*
X57486700Y-82409148D01*
X57442604Y-82187463D01*
X57442604Y-82187462D01*
X57317029Y-81999527D01*
X57274629Y-81936071D01*
X57211173Y-81893671D01*
X56239173Y-80921671D01*
X56275226Y-80885618D01*
X56160215Y-80770607D01*
X56402397Y-80701143D01*
X56589144Y-80177698D01*
X56561362Y-79622632D01*
X56402397Y-79238857D01*
X56160213Y-79169392D01*
X55359605Y-79970000D01*
X55373748Y-79984143D01*
X55194143Y-80163748D01*
X55180000Y-80149605D01*
X55165858Y-80163748D01*
X54986253Y-79984143D01*
X55000395Y-79970000D01*
X54986253Y-79955858D01*
X55165858Y-79776253D01*
X55180000Y-79790395D01*
X55980608Y-78989787D01*
X55911143Y-78747603D01*
X55387698Y-78560856D01*
X54832632Y-78588638D01*
X54725800Y-78632889D01*
X54725800Y-70453596D01*
X55116534Y-70062862D01*
X55335000Y-69535439D01*
X55335000Y-68964561D01*
X55465000Y-68964561D01*
X55465000Y-69535439D01*
X55683466Y-70062862D01*
X56087138Y-70466534D01*
X56614561Y-70685000D01*
X57185439Y-70685000D01*
X57712862Y-70466534D01*
X58116534Y-70062862D01*
X58335000Y-69535439D01*
X58335000Y-68964561D01*
X58116534Y-68437138D01*
X57712862Y-68033466D01*
X57185439Y-67815000D01*
X56614561Y-67815000D01*
X56087138Y-68033466D01*
X55683466Y-68437138D01*
X55465000Y-68964561D01*
X55335000Y-68964561D01*
X55116534Y-68437138D01*
X54712862Y-68033466D01*
X54185439Y-67815000D01*
X53614561Y-67815000D01*
X53087138Y-68033466D01*
X52683466Y-68437138D01*
X52465000Y-68964561D01*
X52465000Y-69535439D01*
X52609787Y-69884986D01*
X52313103Y-69588302D01*
X52335000Y-69535439D01*
X52335000Y-68964561D01*
X52116534Y-68437138D01*
X51712862Y-68033466D01*
X51185439Y-67815000D01*
X50614561Y-67815000D01*
X50361000Y-67920029D01*
X50361000Y-62943225D01*
X50550961Y-63021904D01*
X50773000Y-62899915D01*
X50773000Y-61757000D01*
X51027000Y-61757000D01*
X51027000Y-62899915D01*
X51249039Y-63021904D01*
X51637423Y-62861041D01*
X52052389Y-62485134D01*
X52291914Y-61979041D01*
X52508086Y-61979041D01*
X52747611Y-62485134D01*
X53162577Y-62861041D01*
X53550961Y-63021904D01*
X53773000Y-62899915D01*
X53773000Y-61757000D01*
X54027000Y-61757000D01*
X54027000Y-62899915D01*
X54249039Y-63021904D01*
X54637423Y-62861041D01*
X55052389Y-62485134D01*
X55291914Y-61979041D01*
X55508086Y-61979041D01*
X55747611Y-62485134D01*
X56162577Y-62861041D01*
X56550961Y-63021904D01*
X56773000Y-62899915D01*
X56773000Y-61757000D01*
X57027000Y-61757000D01*
X57027000Y-62899915D01*
X57249039Y-63021904D01*
X57637423Y-62861041D01*
X58052389Y-62485134D01*
X58291914Y-61979041D01*
X58170629Y-61757000D01*
X57027000Y-61757000D01*
X56773000Y-61757000D01*
X55629371Y-61757000D01*
X55508086Y-61979041D01*
X55291914Y-61979041D01*
X55170629Y-61757000D01*
X54027000Y-61757000D01*
X53773000Y-61757000D01*
X52629371Y-61757000D01*
X52508086Y-61979041D01*
X52291914Y-61979041D01*
X52170629Y-61757000D01*
X51027000Y-61757000D01*
X50773000Y-61757000D01*
X50753000Y-61757000D01*
X50753000Y-61503000D01*
X50773000Y-61503000D01*
X50773000Y-61483000D01*
X51027000Y-61483000D01*
X51027000Y-61503000D01*
X52170629Y-61503000D01*
X52291914Y-61280959D01*
X52508086Y-61280959D01*
X52629371Y-61503000D01*
X53773000Y-61503000D01*
X53773000Y-60360085D01*
X54027000Y-60360085D01*
X54027000Y-61503000D01*
X55170629Y-61503000D01*
X55291914Y-61280959D01*
X55508086Y-61280959D01*
X55629371Y-61503000D01*
X56773000Y-61503000D01*
X56773000Y-60360085D01*
X57027000Y-60360085D01*
X57027000Y-61503000D01*
X58170629Y-61503000D01*
X58291914Y-61280959D01*
X58052389Y-60774866D01*
X57637423Y-60398959D01*
X57249039Y-60238096D01*
X57027000Y-60360085D01*
X56773000Y-60360085D01*
X56550961Y-60238096D01*
X56162577Y-60398959D01*
X55747611Y-60774866D01*
X55508086Y-61280959D01*
X55291914Y-61280959D01*
X55052389Y-60774866D01*
X54637423Y-60398959D01*
X54249039Y-60238096D01*
X54027000Y-60360085D01*
X53773000Y-60360085D01*
X53550961Y-60238096D01*
X53162577Y-60398959D01*
X52747611Y-60774866D01*
X52508086Y-61280959D01*
X52291914Y-61280959D01*
X52052389Y-60774866D01*
X51637423Y-60398959D01*
X51593925Y-60380943D01*
X53066220Y-58908649D01*
X53175801Y-58886852D01*
X53452001Y-58702301D01*
X53636552Y-58426101D01*
X53652199Y-58347440D01*
X53700000Y-58347440D01*
X53947765Y-58298157D01*
X54157809Y-58157809D01*
X54298157Y-57947765D01*
X54347440Y-57700000D01*
X54347440Y-56000000D01*
X54298157Y-55752235D01*
X54157809Y-55542191D01*
X53947765Y-55401843D01*
X53700000Y-55352560D01*
X52000000Y-55352560D01*
X51752235Y-55401843D01*
X51542191Y-55542191D01*
X51401843Y-55752235D01*
X51381261Y-55855708D01*
X51076924Y-55578355D01*
X50666890Y-55408524D01*
X50437000Y-55529845D01*
X50437000Y-56723000D01*
X50457000Y-56723000D01*
X50457000Y-56977000D01*
X50437000Y-56977000D01*
X50437000Y-58170155D01*
X50666890Y-58291476D01*
X51076924Y-58121645D01*
X51381261Y-57844292D01*
X51401843Y-57947765D01*
X51507396Y-58105735D01*
X48993720Y-60619413D01*
X48923999Y-60665999D01*
X48739448Y-60942200D01*
X48691000Y-61185764D01*
X48691000Y-61185767D01*
X48674643Y-61268000D01*
X48691000Y-61350233D01*
X48691000Y-61505419D01*
X48467881Y-61413000D01*
X47912119Y-61413000D01*
X47398663Y-61625680D01*
X47005680Y-62018663D01*
X46793000Y-62532119D01*
X46793000Y-63087881D01*
X47005680Y-63601337D01*
X47398663Y-63994320D01*
X47912119Y-64207000D01*
X48467881Y-64207000D01*
X48691000Y-64114581D01*
X48691001Y-66480560D01*
X47428000Y-66480560D01*
X47180235Y-66529843D01*
X46970191Y-66670191D01*
X46829843Y-66880235D01*
X46780560Y-67128000D01*
X46780560Y-68652000D01*
X46829843Y-68899765D01*
X46970191Y-69109809D01*
X47180235Y-69250157D01*
X47428000Y-69299440D01*
X48105492Y-69299440D01*
X45552133Y-71852800D01*
X43756568Y-71852800D01*
X41090338Y-69186571D01*
X41361337Y-69074320D01*
X41754320Y-68681337D01*
X41967000Y-68167881D01*
X41967000Y-67612119D01*
X41754320Y-67098663D01*
X41361337Y-66705680D01*
X41154487Y-66620000D01*
X41361337Y-66534320D01*
X41754320Y-66141337D01*
X41967000Y-65627881D01*
X41967000Y-65072119D01*
X41754320Y-64558663D01*
X41361337Y-64165680D01*
X41154487Y-64080000D01*
X41361337Y-63994320D01*
X41754320Y-63601337D01*
X41967000Y-63087881D01*
X41967000Y-62532119D01*
X41754320Y-62018663D01*
X41361337Y-61625680D01*
X40847881Y-61413000D01*
X40292119Y-61413000D01*
X39778663Y-61625680D01*
X39385680Y-62018663D01*
X39173000Y-62532119D01*
X39173000Y-63087881D01*
X39385680Y-63601337D01*
X39778663Y-63994320D01*
X39985513Y-64080000D01*
X39778663Y-64165680D01*
X39385680Y-64558663D01*
X39173000Y-65072119D01*
X39173000Y-65627881D01*
X39385680Y-66141337D01*
X39778663Y-66534320D01*
X39985513Y-66620000D01*
X39778663Y-66705680D01*
X39385680Y-67098663D01*
X39273429Y-67369662D01*
X38521487Y-66617720D01*
X38474901Y-66547999D01*
X38198701Y-66363448D01*
X37955137Y-66315000D01*
X37955133Y-66315000D01*
X37872900Y-66298643D01*
X37790667Y-66315000D01*
X37363078Y-66315000D01*
X37124523Y-65957977D01*
X36815000Y-65751161D01*
X36815000Y-64662532D01*
X36831357Y-64580299D01*
X36815000Y-64498066D01*
X36815000Y-64498063D01*
X36766552Y-64254499D01*
X36582001Y-63978299D01*
X36512285Y-63931716D01*
X36396161Y-63815592D01*
X36407516Y-63808005D01*
X36933223Y-63996965D01*
X37503454Y-63969778D01*
X37904005Y-63803864D01*
X37978139Y-63557745D01*
X37150000Y-62729605D01*
X37135858Y-62743748D01*
X36956253Y-62564143D01*
X36970395Y-62550000D01*
X37329605Y-62550000D01*
X38157745Y-63378139D01*
X38403864Y-63304005D01*
X38596965Y-62766777D01*
X38569778Y-62196546D01*
X38403864Y-61795995D01*
X38157745Y-61721861D01*
X37329605Y-62550000D01*
X36970395Y-62550000D01*
X36956253Y-62535858D01*
X37135858Y-62356252D01*
X37150000Y-62370395D01*
X37978139Y-61542255D01*
X37904005Y-61296136D01*
X37366777Y-61103035D01*
X36796546Y-61130222D01*
X36406933Y-61291605D01*
X36197765Y-61151843D01*
X35950000Y-61102560D01*
X35534842Y-61102560D01*
X36844473Y-59792929D01*
X36907929Y-59750529D01*
X37075904Y-59499137D01*
X37120000Y-59277452D01*
X37120000Y-59277448D01*
X37134888Y-59202600D01*
X37120000Y-59127752D01*
X37120000Y-58128178D01*
X37430625Y-57920625D01*
X37445096Y-57898967D01*
X37511673Y-58059698D01*
X37690301Y-58238327D01*
X37923690Y-58335000D01*
X38614250Y-58335000D01*
X38773000Y-58176250D01*
X38773000Y-56977000D01*
X39027000Y-56977000D01*
X39027000Y-58176250D01*
X39185750Y-58335000D01*
X39876310Y-58335000D01*
X40109699Y-58238327D01*
X40288327Y-58059698D01*
X40385000Y-57826309D01*
X40385000Y-57135750D01*
X40226250Y-56977000D01*
X39027000Y-56977000D01*
X38773000Y-56977000D01*
X38753000Y-56977000D01*
X38753000Y-56850000D01*
X46255908Y-56850000D01*
X46371161Y-57429418D01*
X46699375Y-57920625D01*
X47190582Y-58248839D01*
X47623744Y-58335000D01*
X47916256Y-58335000D01*
X48349418Y-58248839D01*
X48840625Y-57920625D01*
X49053843Y-57601522D01*
X49114817Y-57731358D01*
X49543076Y-58121645D01*
X49953110Y-58291476D01*
X50183000Y-58170155D01*
X50183000Y-56977000D01*
X50163000Y-56977000D01*
X50163000Y-56723000D01*
X50183000Y-56723000D01*
X50183000Y-55529845D01*
X49953110Y-55408524D01*
X49543076Y-55578355D01*
X49114817Y-55968642D01*
X49053843Y-56098478D01*
X48840625Y-55779375D01*
X48349418Y-55451161D01*
X47916256Y-55365000D01*
X47623744Y-55365000D01*
X47190582Y-55451161D01*
X46699375Y-55779375D01*
X46371161Y-56270582D01*
X46255908Y-56850000D01*
X38753000Y-56850000D01*
X38753000Y-56723000D01*
X38773000Y-56723000D01*
X38773000Y-55523750D01*
X39027000Y-55523750D01*
X39027000Y-56723000D01*
X40226250Y-56723000D01*
X40385000Y-56564250D01*
X40385000Y-55873691D01*
X40288327Y-55640302D01*
X40109699Y-55461673D01*
X39876310Y-55365000D01*
X39185750Y-55365000D01*
X39027000Y-55523750D01*
X38773000Y-55523750D01*
X38614250Y-55365000D01*
X37923690Y-55365000D01*
X37690301Y-55461673D01*
X37511673Y-55640302D01*
X37445096Y-55801033D01*
X37430625Y-55779375D01*
X36939418Y-55451161D01*
X36506256Y-55365000D01*
X36213744Y-55365000D01*
X35850000Y-55437353D01*
X35850000Y-54794801D01*
X40145942Y-50498861D01*
X40595322Y-50685000D01*
X41444678Y-50685000D01*
X42229380Y-50359966D01*
X42829966Y-49759380D01*
X43155000Y-48974678D01*
X43155000Y-48835750D01*
X43965000Y-48835750D01*
X43965000Y-50176310D01*
X44061673Y-50409699D01*
X44240302Y-50588327D01*
X44473691Y-50685000D01*
X45814250Y-50685000D01*
X45973000Y-50526250D01*
X45973000Y-48677000D01*
X46227000Y-48677000D01*
X46227000Y-50526250D01*
X46385750Y-50685000D01*
X47726309Y-50685000D01*
X47959698Y-50588327D01*
X48138327Y-50409699D01*
X48235000Y-50176310D01*
X48235000Y-48835750D01*
X48076250Y-48677000D01*
X46227000Y-48677000D01*
X45973000Y-48677000D01*
X44123750Y-48677000D01*
X43965000Y-48835750D01*
X43155000Y-48835750D01*
X43155000Y-48125322D01*
X42829966Y-47340620D01*
X42413036Y-46923690D01*
X43965000Y-46923690D01*
X43965000Y-48264250D01*
X44123750Y-48423000D01*
X45973000Y-48423000D01*
X45973000Y-46573750D01*
X46227000Y-46573750D01*
X46227000Y-48423000D01*
X48076250Y-48423000D01*
X48235000Y-48264250D01*
X48235000Y-48055431D01*
X52965000Y-48055431D01*
X52965000Y-48944569D01*
X53305259Y-49766026D01*
X53933974Y-50394741D01*
X54755431Y-50735000D01*
X55644569Y-50735000D01*
X56466026Y-50394741D01*
X57094741Y-49766026D01*
X57435000Y-48944569D01*
X57435000Y-48055431D01*
X57094741Y-47233974D01*
X56466026Y-46605259D01*
X55644569Y-46265000D01*
X54755431Y-46265000D01*
X53933974Y-46605259D01*
X53305259Y-47233974D01*
X52965000Y-48055431D01*
X48235000Y-48055431D01*
X48235000Y-46923690D01*
X48138327Y-46690301D01*
X47959698Y-46511673D01*
X47726309Y-46415000D01*
X46385750Y-46415000D01*
X46227000Y-46573750D01*
X45973000Y-46573750D01*
X45814250Y-46415000D01*
X44473691Y-46415000D01*
X44240302Y-46511673D01*
X44061673Y-46690301D01*
X43965000Y-46923690D01*
X42413036Y-46923690D01*
X42229380Y-46740034D01*
X41444678Y-46415000D01*
X40595322Y-46415000D01*
X39810620Y-46740034D01*
X39210034Y-47340620D01*
X38885000Y-48125322D01*
X38885000Y-48974678D01*
X39071139Y-49424058D01*
X34605528Y-53889671D01*
X34542072Y-53932071D01*
X34499672Y-53995527D01*
X34499671Y-53995528D01*
X34374097Y-54183463D01*
X34315112Y-54480000D01*
X34330001Y-54554852D01*
X34330001Y-55437353D01*
X33966256Y-55365000D01*
X33673744Y-55365000D01*
X33240582Y-55451161D01*
X32749375Y-55779375D01*
X32598975Y-56004465D01*
X32569700Y-55998642D01*
X32487463Y-56015000D01*
X32243899Y-56063448D01*
X31967699Y-56247999D01*
X31921115Y-56317717D01*
X27710000Y-60528833D01*
X27710000Y-48055431D01*
X29765000Y-48055431D01*
X29765000Y-48944569D01*
X30105259Y-49766026D01*
X30733974Y-50394741D01*
X31555431Y-50735000D01*
X32444569Y-50735000D01*
X33266026Y-50394741D01*
X33894741Y-49766026D01*
X34235000Y-48944569D01*
X34235000Y-48055431D01*
X33894741Y-47233974D01*
X33266026Y-46605259D01*
X32444569Y-46265000D01*
X31555431Y-46265000D01*
X30733974Y-46605259D01*
X30105259Y-47233974D01*
X29765000Y-48055431D01*
X27710000Y-48055431D01*
X27710000Y-44210000D01*
X59490001Y-44210000D01*
X59490000Y-142790000D01*
X59490000Y-142790000D01*
G37*
X59490000Y-142790000D02*
X27710000Y-142790000D01*
X27710000Y-138055431D01*
X29765000Y-138055431D01*
X29765000Y-138944569D01*
X30105259Y-139766026D01*
X30733974Y-140394741D01*
X31555431Y-140735000D01*
X32444569Y-140735000D01*
X33266026Y-140394741D01*
X33894741Y-139766026D01*
X34235000Y-138944569D01*
X34235000Y-138055431D01*
X33894741Y-137233974D01*
X33266026Y-136605259D01*
X32444569Y-136265000D01*
X31555431Y-136265000D01*
X30733974Y-136605259D01*
X30105259Y-137233974D01*
X29765000Y-138055431D01*
X27710000Y-138055431D01*
X27710000Y-129210213D01*
X31519392Y-129210213D01*
X31588857Y-129452397D01*
X32112302Y-129639144D01*
X32667368Y-129611362D01*
X33051143Y-129452397D01*
X33120608Y-129210213D01*
X32320000Y-128409605D01*
X31519392Y-129210213D01*
X27710000Y-129210213D01*
X27710000Y-128022302D01*
X30910856Y-128022302D01*
X30938638Y-128577368D01*
X31097603Y-128961143D01*
X31339787Y-129030608D01*
X32140395Y-128230000D01*
X31339787Y-127429392D01*
X31097603Y-127498857D01*
X30910856Y-128022302D01*
X27710000Y-128022302D01*
X27710000Y-76540867D01*
X30923000Y-79753868D01*
X30923000Y-80186132D01*
X29970718Y-81138415D01*
X29901000Y-81184999D01*
X29854416Y-81254717D01*
X29716448Y-81461200D01*
X29651643Y-81787000D01*
X29668001Y-81869238D01*
X29668000Y-122908967D01*
X29651643Y-122991200D01*
X29668000Y-123073433D01*
X29668000Y-123073436D01*
X29716448Y-123317000D01*
X29900999Y-123593201D01*
X29970720Y-123639787D01*
X31182637Y-124851706D01*
X31135680Y-124898663D01*
X30923000Y-125412119D01*
X30923000Y-125967881D01*
X31135680Y-126481337D01*
X31528663Y-126874320D01*
X31719647Y-126953428D01*
X31588857Y-127007603D01*
X31519392Y-127249787D01*
X32320000Y-128050395D01*
X32334143Y-128036253D01*
X32513748Y-128215858D01*
X32499605Y-128230000D01*
X33300213Y-129030608D01*
X33408874Y-128999441D01*
X42239166Y-137829734D01*
X42047765Y-137701843D01*
X41800000Y-137652560D01*
X40100000Y-137652560D01*
X39852235Y-137701843D01*
X39642191Y-137842191D01*
X39501843Y-138052235D01*
X39452560Y-138300000D01*
X39452560Y-140000000D01*
X39501843Y-140247765D01*
X39642191Y-140457809D01*
X39852235Y-140598157D01*
X40100000Y-140647440D01*
X41800000Y-140647440D01*
X42047765Y-140598157D01*
X42257809Y-140457809D01*
X42398157Y-140247765D01*
X42407184Y-140202381D01*
X42419375Y-140220625D01*
X42910582Y-140548839D01*
X43343744Y-140635000D01*
X43636256Y-140635000D01*
X44069418Y-140548839D01*
X44560625Y-140220625D01*
X44760000Y-139922239D01*
X44959375Y-140220625D01*
X45450582Y-140548839D01*
X45883744Y-140635000D01*
X46176256Y-140635000D01*
X46609418Y-140548839D01*
X47100625Y-140220625D01*
X47428839Y-139729418D01*
X47544092Y-139150000D01*
X47428839Y-138570582D01*
X47100625Y-138079375D01*
X47064791Y-138055431D01*
X52965000Y-138055431D01*
X52965000Y-138944569D01*
X53305259Y-139766026D01*
X53933974Y-140394741D01*
X54755431Y-140735000D01*
X55644569Y-140735000D01*
X56466026Y-140394741D01*
X57094741Y-139766026D01*
X57435000Y-138944569D01*
X57435000Y-138055431D01*
X57094741Y-137233974D01*
X56466026Y-136605259D01*
X55644569Y-136265000D01*
X54755431Y-136265000D01*
X53933974Y-136605259D01*
X53305259Y-137233974D01*
X52965000Y-138055431D01*
X47064791Y-138055431D01*
X46609418Y-137751161D01*
X46176256Y-137665000D01*
X45883744Y-137665000D01*
X45450582Y-137751161D01*
X44959375Y-138079375D01*
X44760000Y-138377761D01*
X44560625Y-138079375D01*
X44335534Y-137928974D01*
X44341357Y-137899699D01*
X44325000Y-137817466D01*
X44325000Y-137817463D01*
X44276552Y-137573899D01*
X44092001Y-137297699D01*
X44022283Y-137251115D01*
X35981381Y-129210213D01*
X54379392Y-129210213D01*
X54448857Y-129452397D01*
X54972302Y-129639144D01*
X55527368Y-129611362D01*
X55911143Y-129452397D01*
X55980608Y-129210213D01*
X55180000Y-128409605D01*
X54379392Y-129210213D01*
X35981381Y-129210213D01*
X35198167Y-128427000D01*
X35287881Y-128427000D01*
X35801337Y-128214320D01*
X36194320Y-127821337D01*
X36407000Y-127307881D01*
X36407000Y-126752119D01*
X36194320Y-126238663D01*
X35801337Y-125845680D01*
X35594487Y-125760000D01*
X35801337Y-125674320D01*
X36194320Y-125281337D01*
X36407000Y-124767881D01*
X36407000Y-124212119D01*
X36394020Y-124180781D01*
X46824802Y-113750000D01*
X53982700Y-113750000D01*
X53995680Y-113781337D01*
X54149171Y-113934828D01*
X53608130Y-114475869D01*
X53544671Y-114518271D01*
X53376696Y-114769664D01*
X53332600Y-114991349D01*
X53332600Y-114991353D01*
X53317712Y-115066200D01*
X53332600Y-115141047D01*
X53332600Y-115582650D01*
X53067881Y-115473000D01*
X52512119Y-115473000D01*
X51998663Y-115685680D01*
X51605680Y-116078663D01*
X51393000Y-116592119D01*
X51393000Y-117147881D01*
X51605680Y-117661337D01*
X51998663Y-118054320D01*
X52205513Y-118140000D01*
X51998663Y-118225680D01*
X51605680Y-118618663D01*
X51393000Y-119132119D01*
X51393000Y-119687881D01*
X51605680Y-120201337D01*
X51998663Y-120594320D01*
X52205513Y-120680000D01*
X51998663Y-120765680D01*
X51605680Y-121158663D01*
X51393000Y-121672119D01*
X51393000Y-122227881D01*
X51605680Y-122741337D01*
X51998663Y-123134320D01*
X52205513Y-123220000D01*
X51998663Y-123305680D01*
X51605680Y-123698663D01*
X51393000Y-124212119D01*
X51393000Y-124767881D01*
X51605680Y-125281337D01*
X51998663Y-125674320D01*
X52205513Y-125760000D01*
X51998663Y-125845680D01*
X51605680Y-126238663D01*
X51393000Y-126752119D01*
X51393000Y-127307881D01*
X51605680Y-127821337D01*
X51998663Y-128214320D01*
X52512119Y-128427000D01*
X53067881Y-128427000D01*
X53581337Y-128214320D01*
X53770975Y-128024682D01*
X53798638Y-128577368D01*
X53957603Y-128961143D01*
X54199787Y-129030608D01*
X55000395Y-128230000D01*
X55359605Y-128230000D01*
X56160213Y-129030608D01*
X56402397Y-128961143D01*
X56589144Y-128437698D01*
X56561362Y-127882632D01*
X56402397Y-127498857D01*
X56160213Y-127429392D01*
X55359605Y-128230000D01*
X55000395Y-128230000D01*
X54986253Y-128215858D01*
X55165858Y-128036253D01*
X55180000Y-128050395D01*
X55980608Y-127249787D01*
X55911143Y-127007603D01*
X55770607Y-126957465D01*
X55971337Y-126874320D01*
X56364320Y-126481337D01*
X56577000Y-125967881D01*
X56577000Y-125412119D01*
X56364320Y-124898663D01*
X55971337Y-124505680D01*
X55764487Y-124420000D01*
X55971337Y-124334320D01*
X56364320Y-123941337D01*
X56577000Y-123427881D01*
X56577000Y-122872119D01*
X56564020Y-122840782D01*
X57211173Y-122193629D01*
X57274629Y-122151229D01*
X57442604Y-121899837D01*
X57486700Y-121678152D01*
X57486700Y-121678148D01*
X57501588Y-121603301D01*
X57486700Y-121528454D01*
X57486700Y-82558848D01*
X57501588Y-82484000D01*
X57486700Y-82409152D01*
X57486700Y-82409148D01*
X57442604Y-82187463D01*
X57442604Y-82187462D01*
X57317029Y-81999527D01*
X57274629Y-81936071D01*
X57211173Y-81893671D01*
X56239173Y-80921671D01*
X56275226Y-80885618D01*
X56160215Y-80770607D01*
X56402397Y-80701143D01*
X56589144Y-80177698D01*
X56561362Y-79622632D01*
X56402397Y-79238857D01*
X56160213Y-79169392D01*
X55359605Y-79970000D01*
X55373748Y-79984143D01*
X55194143Y-80163748D01*
X55180000Y-80149605D01*
X55165858Y-80163748D01*
X54986253Y-79984143D01*
X55000395Y-79970000D01*
X54986253Y-79955858D01*
X55165858Y-79776253D01*
X55180000Y-79790395D01*
X55980608Y-78989787D01*
X55911143Y-78747603D01*
X55387698Y-78560856D01*
X54832632Y-78588638D01*
X54725800Y-78632889D01*
X54725800Y-70453596D01*
X55116534Y-70062862D01*
X55335000Y-69535439D01*
X55335000Y-68964561D01*
X55465000Y-68964561D01*
X55465000Y-69535439D01*
X55683466Y-70062862D01*
X56087138Y-70466534D01*
X56614561Y-70685000D01*
X57185439Y-70685000D01*
X57712862Y-70466534D01*
X58116534Y-70062862D01*
X58335000Y-69535439D01*
X58335000Y-68964561D01*
X58116534Y-68437138D01*
X57712862Y-68033466D01*
X57185439Y-67815000D01*
X56614561Y-67815000D01*
X56087138Y-68033466D01*
X55683466Y-68437138D01*
X55465000Y-68964561D01*
X55335000Y-68964561D01*
X55116534Y-68437138D01*
X54712862Y-68033466D01*
X54185439Y-67815000D01*
X53614561Y-67815000D01*
X53087138Y-68033466D01*
X52683466Y-68437138D01*
X52465000Y-68964561D01*
X52465000Y-69535439D01*
X52609787Y-69884986D01*
X52313103Y-69588302D01*
X52335000Y-69535439D01*
X52335000Y-68964561D01*
X52116534Y-68437138D01*
X51712862Y-68033466D01*
X51185439Y-67815000D01*
X50614561Y-67815000D01*
X50361000Y-67920029D01*
X50361000Y-62943225D01*
X50550961Y-63021904D01*
X50773000Y-62899915D01*
X50773000Y-61757000D01*
X51027000Y-61757000D01*
X51027000Y-62899915D01*
X51249039Y-63021904D01*
X51637423Y-62861041D01*
X52052389Y-62485134D01*
X52291914Y-61979041D01*
X52508086Y-61979041D01*
X52747611Y-62485134D01*
X53162577Y-62861041D01*
X53550961Y-63021904D01*
X53773000Y-62899915D01*
X53773000Y-61757000D01*
X54027000Y-61757000D01*
X54027000Y-62899915D01*
X54249039Y-63021904D01*
X54637423Y-62861041D01*
X55052389Y-62485134D01*
X55291914Y-61979041D01*
X55508086Y-61979041D01*
X55747611Y-62485134D01*
X56162577Y-62861041D01*
X56550961Y-63021904D01*
X56773000Y-62899915D01*
X56773000Y-61757000D01*
X57027000Y-61757000D01*
X57027000Y-62899915D01*
X57249039Y-63021904D01*
X57637423Y-62861041D01*
X58052389Y-62485134D01*
X58291914Y-61979041D01*
X58170629Y-61757000D01*
X57027000Y-61757000D01*
X56773000Y-61757000D01*
X55629371Y-61757000D01*
X55508086Y-61979041D01*
X55291914Y-61979041D01*
X55170629Y-61757000D01*
X54027000Y-61757000D01*
X53773000Y-61757000D01*
X52629371Y-61757000D01*
X52508086Y-61979041D01*
X52291914Y-61979041D01*
X52170629Y-61757000D01*
X51027000Y-61757000D01*
X50773000Y-61757000D01*
X50753000Y-61757000D01*
X50753000Y-61503000D01*
X50773000Y-61503000D01*
X50773000Y-61483000D01*
X51027000Y-61483000D01*
X51027000Y-61503000D01*
X52170629Y-61503000D01*
X52291914Y-61280959D01*
X52508086Y-61280959D01*
X52629371Y-61503000D01*
X53773000Y-61503000D01*
X53773000Y-60360085D01*
X54027000Y-60360085D01*
X54027000Y-61503000D01*
X55170629Y-61503000D01*
X55291914Y-61280959D01*
X55508086Y-61280959D01*
X55629371Y-61503000D01*
X56773000Y-61503000D01*
X56773000Y-60360085D01*
X57027000Y-60360085D01*
X57027000Y-61503000D01*
X58170629Y-61503000D01*
X58291914Y-61280959D01*
X58052389Y-60774866D01*
X57637423Y-60398959D01*
X57249039Y-60238096D01*
X57027000Y-60360085D01*
X56773000Y-60360085D01*
X56550961Y-60238096D01*
X56162577Y-60398959D01*
X55747611Y-60774866D01*
X55508086Y-61280959D01*
X55291914Y-61280959D01*
X55052389Y-60774866D01*
X54637423Y-60398959D01*
X54249039Y-60238096D01*
X54027000Y-60360085D01*
X53773000Y-60360085D01*
X53550961Y-60238096D01*
X53162577Y-60398959D01*
X52747611Y-60774866D01*
X52508086Y-61280959D01*
X52291914Y-61280959D01*
X52052389Y-60774866D01*
X51637423Y-60398959D01*
X51593925Y-60380943D01*
X53066220Y-58908649D01*
X53175801Y-58886852D01*
X53452001Y-58702301D01*
X53636552Y-58426101D01*
X53652199Y-58347440D01*
X53700000Y-58347440D01*
X53947765Y-58298157D01*
X54157809Y-58157809D01*
X54298157Y-57947765D01*
X54347440Y-57700000D01*
X54347440Y-56000000D01*
X54298157Y-55752235D01*
X54157809Y-55542191D01*
X53947765Y-55401843D01*
X53700000Y-55352560D01*
X52000000Y-55352560D01*
X51752235Y-55401843D01*
X51542191Y-55542191D01*
X51401843Y-55752235D01*
X51381261Y-55855708D01*
X51076924Y-55578355D01*
X50666890Y-55408524D01*
X50437000Y-55529845D01*
X50437000Y-56723000D01*
X50457000Y-56723000D01*
X50457000Y-56977000D01*
X50437000Y-56977000D01*
X50437000Y-58170155D01*
X50666890Y-58291476D01*
X51076924Y-58121645D01*
X51381261Y-57844292D01*
X51401843Y-57947765D01*
X51507396Y-58105735D01*
X48993720Y-60619413D01*
X48923999Y-60665999D01*
X48739448Y-60942200D01*
X48691000Y-61185764D01*
X48691000Y-61185767D01*
X48674643Y-61268000D01*
X48691000Y-61350233D01*
X48691000Y-61505419D01*
X48467881Y-61413000D01*
X47912119Y-61413000D01*
X47398663Y-61625680D01*
X47005680Y-62018663D01*
X46793000Y-62532119D01*
X46793000Y-63087881D01*
X47005680Y-63601337D01*
X47398663Y-63994320D01*
X47912119Y-64207000D01*
X48467881Y-64207000D01*
X48691000Y-64114581D01*
X48691001Y-66480560D01*
X47428000Y-66480560D01*
X47180235Y-66529843D01*
X46970191Y-66670191D01*
X46829843Y-66880235D01*
X46780560Y-67128000D01*
X46780560Y-68652000D01*
X46829843Y-68899765D01*
X46970191Y-69109809D01*
X47180235Y-69250157D01*
X47428000Y-69299440D01*
X48105492Y-69299440D01*
X45552133Y-71852800D01*
X43756568Y-71852800D01*
X41090338Y-69186571D01*
X41361337Y-69074320D01*
X41754320Y-68681337D01*
X41967000Y-68167881D01*
X41967000Y-67612119D01*
X41754320Y-67098663D01*
X41361337Y-66705680D01*
X41154487Y-66620000D01*
X41361337Y-66534320D01*
X41754320Y-66141337D01*
X41967000Y-65627881D01*
X41967000Y-65072119D01*
X41754320Y-64558663D01*
X41361337Y-64165680D01*
X41154487Y-64080000D01*
X41361337Y-63994320D01*
X41754320Y-63601337D01*
X41967000Y-63087881D01*
X41967000Y-62532119D01*
X41754320Y-62018663D01*
X41361337Y-61625680D01*
X40847881Y-61413000D01*
X40292119Y-61413000D01*
X39778663Y-61625680D01*
X39385680Y-62018663D01*
X39173000Y-62532119D01*
X39173000Y-63087881D01*
X39385680Y-63601337D01*
X39778663Y-63994320D01*
X39985513Y-64080000D01*
X39778663Y-64165680D01*
X39385680Y-64558663D01*
X39173000Y-65072119D01*
X39173000Y-65627881D01*
X39385680Y-66141337D01*
X39778663Y-66534320D01*
X39985513Y-66620000D01*
X39778663Y-66705680D01*
X39385680Y-67098663D01*
X39273429Y-67369662D01*
X38521487Y-66617720D01*
X38474901Y-66547999D01*
X38198701Y-66363448D01*
X37955137Y-66315000D01*
X37955133Y-66315000D01*
X37872900Y-66298643D01*
X37790667Y-66315000D01*
X37363078Y-66315000D01*
X37124523Y-65957977D01*
X36815000Y-65751161D01*
X36815000Y-64662532D01*
X36831357Y-64580299D01*
X36815000Y-64498066D01*
X36815000Y-64498063D01*
X36766552Y-64254499D01*
X36582001Y-63978299D01*
X36512285Y-63931716D01*
X36396161Y-63815592D01*
X36407516Y-63808005D01*
X36933223Y-63996965D01*
X37503454Y-63969778D01*
X37904005Y-63803864D01*
X37978139Y-63557745D01*
X37150000Y-62729605D01*
X37135858Y-62743748D01*
X36956253Y-62564143D01*
X36970395Y-62550000D01*
X37329605Y-62550000D01*
X38157745Y-63378139D01*
X38403864Y-63304005D01*
X38596965Y-62766777D01*
X38569778Y-62196546D01*
X38403864Y-61795995D01*
X38157745Y-61721861D01*
X37329605Y-62550000D01*
X36970395Y-62550000D01*
X36956253Y-62535858D01*
X37135858Y-62356252D01*
X37150000Y-62370395D01*
X37978139Y-61542255D01*
X37904005Y-61296136D01*
X37366777Y-61103035D01*
X36796546Y-61130222D01*
X36406933Y-61291605D01*
X36197765Y-61151843D01*
X35950000Y-61102560D01*
X35534842Y-61102560D01*
X36844473Y-59792929D01*
X36907929Y-59750529D01*
X37075904Y-59499137D01*
X37120000Y-59277452D01*
X37120000Y-59277448D01*
X37134888Y-59202600D01*
X37120000Y-59127752D01*
X37120000Y-58128178D01*
X37430625Y-57920625D01*
X37445096Y-57898967D01*
X37511673Y-58059698D01*
X37690301Y-58238327D01*
X37923690Y-58335000D01*
X38614250Y-58335000D01*
X38773000Y-58176250D01*
X38773000Y-56977000D01*
X39027000Y-56977000D01*
X39027000Y-58176250D01*
X39185750Y-58335000D01*
X39876310Y-58335000D01*
X40109699Y-58238327D01*
X40288327Y-58059698D01*
X40385000Y-57826309D01*
X40385000Y-57135750D01*
X40226250Y-56977000D01*
X39027000Y-56977000D01*
X38773000Y-56977000D01*
X38753000Y-56977000D01*
X38753000Y-56850000D01*
X46255908Y-56850000D01*
X46371161Y-57429418D01*
X46699375Y-57920625D01*
X47190582Y-58248839D01*
X47623744Y-58335000D01*
X47916256Y-58335000D01*
X48349418Y-58248839D01*
X48840625Y-57920625D01*
X49053843Y-57601522D01*
X49114817Y-57731358D01*
X49543076Y-58121645D01*
X49953110Y-58291476D01*
X50183000Y-58170155D01*
X50183000Y-56977000D01*
X50163000Y-56977000D01*
X50163000Y-56723000D01*
X50183000Y-56723000D01*
X50183000Y-55529845D01*
X49953110Y-55408524D01*
X49543076Y-55578355D01*
X49114817Y-55968642D01*
X49053843Y-56098478D01*
X48840625Y-55779375D01*
X48349418Y-55451161D01*
X47916256Y-55365000D01*
X47623744Y-55365000D01*
X47190582Y-55451161D01*
X46699375Y-55779375D01*
X46371161Y-56270582D01*
X46255908Y-56850000D01*
X38753000Y-56850000D01*
X38753000Y-56723000D01*
X38773000Y-56723000D01*
X38773000Y-55523750D01*
X39027000Y-55523750D01*
X39027000Y-56723000D01*
X40226250Y-56723000D01*
X40385000Y-56564250D01*
X40385000Y-55873691D01*
X40288327Y-55640302D01*
X40109699Y-55461673D01*
X39876310Y-55365000D01*
X39185750Y-55365000D01*
X39027000Y-55523750D01*
X38773000Y-55523750D01*
X38614250Y-55365000D01*
X37923690Y-55365000D01*
X37690301Y-55461673D01*
X37511673Y-55640302D01*
X37445096Y-55801033D01*
X37430625Y-55779375D01*
X36939418Y-55451161D01*
X36506256Y-55365000D01*
X36213744Y-55365000D01*
X35850000Y-55437353D01*
X35850000Y-54794801D01*
X40145942Y-50498861D01*
X40595322Y-50685000D01*
X41444678Y-50685000D01*
X42229380Y-50359966D01*
X42829966Y-49759380D01*
X43155000Y-48974678D01*
X43155000Y-48835750D01*
X43965000Y-48835750D01*
X43965000Y-50176310D01*
X44061673Y-50409699D01*
X44240302Y-50588327D01*
X44473691Y-50685000D01*
X45814250Y-50685000D01*
X45973000Y-50526250D01*
X45973000Y-48677000D01*
X46227000Y-48677000D01*
X46227000Y-50526250D01*
X46385750Y-50685000D01*
X47726309Y-50685000D01*
X47959698Y-50588327D01*
X48138327Y-50409699D01*
X48235000Y-50176310D01*
X48235000Y-48835750D01*
X48076250Y-48677000D01*
X46227000Y-48677000D01*
X45973000Y-48677000D01*
X44123750Y-48677000D01*
X43965000Y-48835750D01*
X43155000Y-48835750D01*
X43155000Y-48125322D01*
X42829966Y-47340620D01*
X42413036Y-46923690D01*
X43965000Y-46923690D01*
X43965000Y-48264250D01*
X44123750Y-48423000D01*
X45973000Y-48423000D01*
X45973000Y-46573750D01*
X46227000Y-46573750D01*
X46227000Y-48423000D01*
X48076250Y-48423000D01*
X48235000Y-48264250D01*
X48235000Y-48055431D01*
X52965000Y-48055431D01*
X52965000Y-48944569D01*
X53305259Y-49766026D01*
X53933974Y-50394741D01*
X54755431Y-50735000D01*
X55644569Y-50735000D01*
X56466026Y-50394741D01*
X57094741Y-49766026D01*
X57435000Y-48944569D01*
X57435000Y-48055431D01*
X57094741Y-47233974D01*
X56466026Y-46605259D01*
X55644569Y-46265000D01*
X54755431Y-46265000D01*
X53933974Y-46605259D01*
X53305259Y-47233974D01*
X52965000Y-48055431D01*
X48235000Y-48055431D01*
X48235000Y-46923690D01*
X48138327Y-46690301D01*
X47959698Y-46511673D01*
X47726309Y-46415000D01*
X46385750Y-46415000D01*
X46227000Y-46573750D01*
X45973000Y-46573750D01*
X45814250Y-46415000D01*
X44473691Y-46415000D01*
X44240302Y-46511673D01*
X44061673Y-46690301D01*
X43965000Y-46923690D01*
X42413036Y-46923690D01*
X42229380Y-46740034D01*
X41444678Y-46415000D01*
X40595322Y-46415000D01*
X39810620Y-46740034D01*
X39210034Y-47340620D01*
X38885000Y-48125322D01*
X38885000Y-48974678D01*
X39071139Y-49424058D01*
X34605528Y-53889671D01*
X34542072Y-53932071D01*
X34499672Y-53995527D01*
X34499671Y-53995528D01*
X34374097Y-54183463D01*
X34315112Y-54480000D01*
X34330001Y-54554852D01*
X34330001Y-55437353D01*
X33966256Y-55365000D01*
X33673744Y-55365000D01*
X33240582Y-55451161D01*
X32749375Y-55779375D01*
X32598975Y-56004465D01*
X32569700Y-55998642D01*
X32487463Y-56015000D01*
X32243899Y-56063448D01*
X31967699Y-56247999D01*
X31921115Y-56317717D01*
X27710000Y-60528833D01*
X27710000Y-48055431D01*
X29765000Y-48055431D01*
X29765000Y-48944569D01*
X30105259Y-49766026D01*
X30733974Y-50394741D01*
X31555431Y-50735000D01*
X32444569Y-50735000D01*
X33266026Y-50394741D01*
X33894741Y-49766026D01*
X34235000Y-48944569D01*
X34235000Y-48055431D01*
X33894741Y-47233974D01*
X33266026Y-46605259D01*
X32444569Y-46265000D01*
X31555431Y-46265000D01*
X30733974Y-46605259D01*
X30105259Y-47233974D01*
X29765000Y-48055431D01*
X27710000Y-48055431D01*
X27710000Y-44210000D01*
X59490001Y-44210000D01*
X59490000Y-142790000D01*
G36*
X30415530Y-73615831D02*
X38015601Y-81215904D01*
X38015601Y-82396423D01*
X37606256Y-82315000D01*
X37313744Y-82315000D01*
X36880582Y-82401161D01*
X36389375Y-82729375D01*
X36061161Y-83220582D01*
X35945908Y-83800000D01*
X36061161Y-84379418D01*
X36389375Y-84870625D01*
X36880582Y-85198839D01*
X37313744Y-85285000D01*
X37606256Y-85285000D01*
X38039418Y-85198839D01*
X38127256Y-85140147D01*
X38227671Y-85290429D01*
X38291130Y-85332831D01*
X42798862Y-89840563D01*
X42706169Y-89878958D01*
X42644331Y-90114725D01*
X43400000Y-90870395D01*
X43414142Y-90856252D01*
X43593748Y-91035858D01*
X43579605Y-91050000D01*
X43593748Y-91064143D01*
X43414142Y-91243748D01*
X43400000Y-91229605D01*
X42644331Y-91985275D01*
X42706169Y-92221042D01*
X43207122Y-92397419D01*
X43737440Y-92368664D01*
X44093831Y-92221042D01*
X44155669Y-91985277D01*
X44270918Y-92100526D01*
X44334571Y-92036873D01*
X44918271Y-92620573D01*
X44960671Y-92684029D01*
X45212063Y-92852004D01*
X45433748Y-92896100D01*
X45433752Y-92896100D01*
X45508599Y-92910988D01*
X45583446Y-92896100D01*
X49503901Y-92896100D01*
X49503900Y-94613753D01*
X49489012Y-94688600D01*
X49503900Y-94763447D01*
X49503900Y-94763451D01*
X49547996Y-94985136D01*
X49715971Y-95236529D01*
X49779429Y-95278931D01*
X50042353Y-95541855D01*
X49892191Y-95642191D01*
X49751843Y-95852235D01*
X49702560Y-96100000D01*
X49702560Y-98100000D01*
X49751843Y-98347765D01*
X49892191Y-98557809D01*
X50102235Y-98698157D01*
X50350000Y-98747440D01*
X52350000Y-98747440D01*
X52597765Y-98698157D01*
X52755401Y-98592827D01*
X52755401Y-106170548D01*
X52740512Y-106245400D01*
X52755401Y-106320252D01*
X52799497Y-106541937D01*
X52967472Y-106793329D01*
X53030928Y-106835729D01*
X53795980Y-107600782D01*
X53783000Y-107632119D01*
X53783000Y-108187881D01*
X53995680Y-108701337D01*
X54388663Y-109094320D01*
X54595513Y-109180000D01*
X54388663Y-109265680D01*
X53995680Y-109658663D01*
X53982700Y-109690000D01*
X46584847Y-109690000D01*
X46510000Y-109675112D01*
X46435153Y-109690000D01*
X46435148Y-109690000D01*
X46213463Y-109734096D01*
X45962071Y-109902071D01*
X45919671Y-109965527D01*
X36411916Y-119473283D01*
X36391362Y-119062632D01*
X36232397Y-118678857D01*
X35990213Y-118609392D01*
X35189605Y-119410000D01*
X35203748Y-119424143D01*
X35024143Y-119603748D01*
X35010000Y-119589605D01*
X34209392Y-120390213D01*
X34278857Y-120632397D01*
X34419393Y-120682535D01*
X34218663Y-120765680D01*
X33825680Y-121158663D01*
X33613000Y-121672119D01*
X33613000Y-122227881D01*
X33825680Y-122741337D01*
X34218663Y-123134320D01*
X34425513Y-123220000D01*
X34218663Y-123305680D01*
X33825680Y-123698663D01*
X33632386Y-124165318D01*
X33456362Y-123989295D01*
X33504320Y-123941337D01*
X33717000Y-123427881D01*
X33717000Y-122872119D01*
X33504320Y-122358663D01*
X33111337Y-121965680D01*
X32904487Y-121880000D01*
X33111337Y-121794320D01*
X33504320Y-121401337D01*
X33717000Y-120887881D01*
X33717000Y-120332119D01*
X33504320Y-119818663D01*
X33111337Y-119425680D01*
X32904487Y-119340000D01*
X33111337Y-119254320D01*
X33163355Y-119202302D01*
X33600856Y-119202302D01*
X33628638Y-119757368D01*
X33787603Y-120141143D01*
X34029787Y-120210608D01*
X34830395Y-119410000D01*
X34029787Y-118609392D01*
X33787603Y-118678857D01*
X33600856Y-119202302D01*
X33163355Y-119202302D01*
X33504320Y-118861337D01*
X33717000Y-118347881D01*
X33717000Y-117792119D01*
X33504320Y-117278663D01*
X33111337Y-116885680D01*
X32904487Y-116800000D01*
X33111337Y-116714320D01*
X33504320Y-116321337D01*
X33717000Y-115807881D01*
X33717000Y-115252119D01*
X33504320Y-114738663D01*
X33111337Y-114345680D01*
X32904487Y-114260000D01*
X33111337Y-114174320D01*
X33504320Y-113781337D01*
X33717000Y-113267881D01*
X33717000Y-112712119D01*
X33504320Y-112198663D01*
X33111337Y-111805680D01*
X32904487Y-111720000D01*
X33111337Y-111634320D01*
X33504320Y-111241337D01*
X33717000Y-110727881D01*
X33717000Y-110172119D01*
X33504320Y-109658663D01*
X33111337Y-109265680D01*
X32904487Y-109180000D01*
X33111337Y-109094320D01*
X33504320Y-108701337D01*
X33717000Y-108187881D01*
X33717000Y-107632119D01*
X33610498Y-107375000D01*
X34175000Y-107375000D01*
X34175001Y-115729342D01*
X33825680Y-116078663D01*
X33613000Y-116592119D01*
X33613000Y-117147881D01*
X33825680Y-117661337D01*
X34218663Y-118054320D01*
X34409647Y-118133428D01*
X34278857Y-118187603D01*
X34209392Y-118429787D01*
X35010000Y-119230395D01*
X35810608Y-118429787D01*
X35741143Y-118187603D01*
X35600607Y-118137465D01*
X35801337Y-118054320D01*
X36194320Y-117661337D01*
X36407000Y-117147881D01*
X36407000Y-116592119D01*
X36194320Y-116078663D01*
X35845000Y-115729343D01*
X35845000Y-107266751D01*
X36031701Y-107142001D01*
X36078287Y-107072280D01*
X45003339Y-98147229D01*
X45091231Y-98278769D01*
X45632055Y-98640136D01*
X46108969Y-98735000D01*
X46431031Y-98735000D01*
X46907945Y-98640136D01*
X47448769Y-98278769D01*
X47810136Y-97737945D01*
X47937031Y-97100000D01*
X47810136Y-96462055D01*
X47448769Y-95921231D01*
X46907945Y-95559864D01*
X46431031Y-95465000D01*
X46108969Y-95465000D01*
X45632055Y-95559864D01*
X45091231Y-95921231D01*
X44872137Y-96249128D01*
X44869699Y-96248643D01*
X44787466Y-96265000D01*
X44787463Y-96265000D01*
X44543899Y-96313448D01*
X44267699Y-96497999D01*
X44221115Y-96567717D01*
X35085227Y-105703606D01*
X35010000Y-105688642D01*
X34927763Y-105705000D01*
X33693341Y-105705000D01*
X33717000Y-105647881D01*
X33717000Y-105092119D01*
X33704020Y-105060782D01*
X34602576Y-104162227D01*
X34666029Y-104119829D01*
X34708427Y-104056376D01*
X34708429Y-104056374D01*
X34834003Y-103868438D01*
X34834004Y-103868437D01*
X34878100Y-103646752D01*
X34878100Y-103646748D01*
X34892988Y-103571901D01*
X34878100Y-103497054D01*
X34878100Y-98328264D01*
X34947611Y-98475134D01*
X35362577Y-98851041D01*
X35750961Y-99011904D01*
X35973000Y-98889915D01*
X35973000Y-97747000D01*
X36227000Y-97747000D01*
X36227000Y-98889915D01*
X36449039Y-99011904D01*
X36837423Y-98851041D01*
X37252389Y-98475134D01*
X37491914Y-97969041D01*
X38308086Y-97969041D01*
X38547611Y-98475134D01*
X38962577Y-98851041D01*
X39350961Y-99011904D01*
X39573000Y-98889915D01*
X39573000Y-97747000D01*
X39827000Y-97747000D01*
X39827000Y-98889915D01*
X40049039Y-99011904D01*
X40437423Y-98851041D01*
X40852389Y-98475134D01*
X41091914Y-97969041D01*
X40970629Y-97747000D01*
X39827000Y-97747000D01*
X39573000Y-97747000D01*
X38429371Y-97747000D01*
X38308086Y-97969041D01*
X37491914Y-97969041D01*
X37370629Y-97747000D01*
X36227000Y-97747000D01*
X35973000Y-97747000D01*
X35953000Y-97747000D01*
X35953000Y-97493000D01*
X35973000Y-97493000D01*
X35973000Y-96350085D01*
X36227000Y-96350085D01*
X36227000Y-97493000D01*
X37370629Y-97493000D01*
X37491914Y-97270959D01*
X38308086Y-97270959D01*
X38429371Y-97493000D01*
X39573000Y-97493000D01*
X39573000Y-96350085D01*
X39827000Y-96350085D01*
X39827000Y-97493000D01*
X40970629Y-97493000D01*
X41091914Y-97270959D01*
X40852389Y-96764866D01*
X40437423Y-96388959D01*
X40049039Y-96228096D01*
X39827000Y-96350085D01*
X39573000Y-96350085D01*
X39350961Y-96228096D01*
X38962577Y-96388959D01*
X38547611Y-96764866D01*
X38308086Y-97270959D01*
X37491914Y-97270959D01*
X37252389Y-96764866D01*
X36837423Y-96388959D01*
X36449039Y-96228096D01*
X36227000Y-96350085D01*
X35973000Y-96350085D01*
X35750961Y-96228096D01*
X35362577Y-96388959D01*
X34947611Y-96764866D01*
X34878100Y-96911736D01*
X34878100Y-95896701D01*
X39361698Y-91413104D01*
X39414561Y-91435000D01*
X39985439Y-91435000D01*
X40512862Y-91216534D01*
X40872274Y-90857122D01*
X42052581Y-90857122D01*
X42081336Y-91387440D01*
X42228958Y-91743831D01*
X42464725Y-91805669D01*
X43220395Y-91050000D01*
X42464725Y-90294331D01*
X42228958Y-90356169D01*
X42052581Y-90857122D01*
X40872274Y-90857122D01*
X40916534Y-90812862D01*
X41135000Y-90285439D01*
X41135000Y-89714561D01*
X40916534Y-89187138D01*
X40512862Y-88783466D01*
X39985439Y-88565000D01*
X39414561Y-88565000D01*
X38887138Y-88783466D01*
X38483466Y-89187138D01*
X38265000Y-89714561D01*
X38265000Y-90285439D01*
X38286896Y-90338302D01*
X33709994Y-94915205D01*
X33504320Y-94418663D01*
X33111337Y-94025680D01*
X32904487Y-93940000D01*
X33111337Y-93854320D01*
X33504320Y-93461337D01*
X33717000Y-92947881D01*
X33717000Y-92392119D01*
X33704020Y-92360782D01*
X33943173Y-92121629D01*
X34006629Y-92079229D01*
X34174604Y-91827837D01*
X34218700Y-91606152D01*
X34218700Y-91606147D01*
X34233588Y-91531300D01*
X34218700Y-91456453D01*
X34218700Y-89714561D01*
X34665000Y-89714561D01*
X34665000Y-90285439D01*
X34883466Y-90812862D01*
X35287138Y-91216534D01*
X35814561Y-91435000D01*
X36385439Y-91435000D01*
X36912862Y-91216534D01*
X37316534Y-90812862D01*
X37535000Y-90285439D01*
X37535000Y-89714561D01*
X37316534Y-89187138D01*
X36912862Y-88783466D01*
X36385439Y-88565000D01*
X35814561Y-88565000D01*
X35287138Y-88783466D01*
X34883466Y-89187138D01*
X34665000Y-89714561D01*
X34218700Y-89714561D01*
X34218700Y-78327848D01*
X34233588Y-78253000D01*
X34218700Y-78178152D01*
X34218700Y-78178148D01*
X34174604Y-77956463D01*
X34174604Y-77956462D01*
X34049029Y-77768527D01*
X34006629Y-77705071D01*
X33943173Y-77662671D01*
X30382100Y-74101599D01*
X30382100Y-73593494D01*
X30415530Y-73615831D01*
X30415530Y-73615831D01*
G37*
X30415530Y-73615831D02*
X38015601Y-81215904D01*
X38015601Y-82396423D01*
X37606256Y-82315000D01*
X37313744Y-82315000D01*
X36880582Y-82401161D01*
X36389375Y-82729375D01*
X36061161Y-83220582D01*
X35945908Y-83800000D01*
X36061161Y-84379418D01*
X36389375Y-84870625D01*
X36880582Y-85198839D01*
X37313744Y-85285000D01*
X37606256Y-85285000D01*
X38039418Y-85198839D01*
X38127256Y-85140147D01*
X38227671Y-85290429D01*
X38291130Y-85332831D01*
X42798862Y-89840563D01*
X42706169Y-89878958D01*
X42644331Y-90114725D01*
X43400000Y-90870395D01*
X43414142Y-90856252D01*
X43593748Y-91035858D01*
X43579605Y-91050000D01*
X43593748Y-91064143D01*
X43414142Y-91243748D01*
X43400000Y-91229605D01*
X42644331Y-91985275D01*
X42706169Y-92221042D01*
X43207122Y-92397419D01*
X43737440Y-92368664D01*
X44093831Y-92221042D01*
X44155669Y-91985277D01*
X44270918Y-92100526D01*
X44334571Y-92036873D01*
X44918271Y-92620573D01*
X44960671Y-92684029D01*
X45212063Y-92852004D01*
X45433748Y-92896100D01*
X45433752Y-92896100D01*
X45508599Y-92910988D01*
X45583446Y-92896100D01*
X49503901Y-92896100D01*
X49503900Y-94613753D01*
X49489012Y-94688600D01*
X49503900Y-94763447D01*
X49503900Y-94763451D01*
X49547996Y-94985136D01*
X49715971Y-95236529D01*
X49779429Y-95278931D01*
X50042353Y-95541855D01*
X49892191Y-95642191D01*
X49751843Y-95852235D01*
X49702560Y-96100000D01*
X49702560Y-98100000D01*
X49751843Y-98347765D01*
X49892191Y-98557809D01*
X50102235Y-98698157D01*
X50350000Y-98747440D01*
X52350000Y-98747440D01*
X52597765Y-98698157D01*
X52755401Y-98592827D01*
X52755401Y-106170548D01*
X52740512Y-106245400D01*
X52755401Y-106320252D01*
X52799497Y-106541937D01*
X52967472Y-106793329D01*
X53030928Y-106835729D01*
X53795980Y-107600782D01*
X53783000Y-107632119D01*
X53783000Y-108187881D01*
X53995680Y-108701337D01*
X54388663Y-109094320D01*
X54595513Y-109180000D01*
X54388663Y-109265680D01*
X53995680Y-109658663D01*
X53982700Y-109690000D01*
X46584847Y-109690000D01*
X46510000Y-109675112D01*
X46435153Y-109690000D01*
X46435148Y-109690000D01*
X46213463Y-109734096D01*
X45962071Y-109902071D01*
X45919671Y-109965527D01*
X36411916Y-119473283D01*
X36391362Y-119062632D01*
X36232397Y-118678857D01*
X35990213Y-118609392D01*
X35189605Y-119410000D01*
X35203748Y-119424143D01*
X35024143Y-119603748D01*
X35010000Y-119589605D01*
X34209392Y-120390213D01*
X34278857Y-120632397D01*
X34419393Y-120682535D01*
X34218663Y-120765680D01*
X33825680Y-121158663D01*
X33613000Y-121672119D01*
X33613000Y-122227881D01*
X33825680Y-122741337D01*
X34218663Y-123134320D01*
X34425513Y-123220000D01*
X34218663Y-123305680D01*
X33825680Y-123698663D01*
X33632386Y-124165318D01*
X33456362Y-123989295D01*
X33504320Y-123941337D01*
X33717000Y-123427881D01*
X33717000Y-122872119D01*
X33504320Y-122358663D01*
X33111337Y-121965680D01*
X32904487Y-121880000D01*
X33111337Y-121794320D01*
X33504320Y-121401337D01*
X33717000Y-120887881D01*
X33717000Y-120332119D01*
X33504320Y-119818663D01*
X33111337Y-119425680D01*
X32904487Y-119340000D01*
X33111337Y-119254320D01*
X33163355Y-119202302D01*
X33600856Y-119202302D01*
X33628638Y-119757368D01*
X33787603Y-120141143D01*
X34029787Y-120210608D01*
X34830395Y-119410000D01*
X34029787Y-118609392D01*
X33787603Y-118678857D01*
X33600856Y-119202302D01*
X33163355Y-119202302D01*
X33504320Y-118861337D01*
X33717000Y-118347881D01*
X33717000Y-117792119D01*
X33504320Y-117278663D01*
X33111337Y-116885680D01*
X32904487Y-116800000D01*
X33111337Y-116714320D01*
X33504320Y-116321337D01*
X33717000Y-115807881D01*
X33717000Y-115252119D01*
X33504320Y-114738663D01*
X33111337Y-114345680D01*
X32904487Y-114260000D01*
X33111337Y-114174320D01*
X33504320Y-113781337D01*
X33717000Y-113267881D01*
X33717000Y-112712119D01*
X33504320Y-112198663D01*
X33111337Y-111805680D01*
X32904487Y-111720000D01*
X33111337Y-111634320D01*
X33504320Y-111241337D01*
X33717000Y-110727881D01*
X33717000Y-110172119D01*
X33504320Y-109658663D01*
X33111337Y-109265680D01*
X32904487Y-109180000D01*
X33111337Y-109094320D01*
X33504320Y-108701337D01*
X33717000Y-108187881D01*
X33717000Y-107632119D01*
X33610498Y-107375000D01*
X34175000Y-107375000D01*
X34175001Y-115729342D01*
X33825680Y-116078663D01*
X33613000Y-116592119D01*
X33613000Y-117147881D01*
X33825680Y-117661337D01*
X34218663Y-118054320D01*
X34409647Y-118133428D01*
X34278857Y-118187603D01*
X34209392Y-118429787D01*
X35010000Y-119230395D01*
X35810608Y-118429787D01*
X35741143Y-118187603D01*
X35600607Y-118137465D01*
X35801337Y-118054320D01*
X36194320Y-117661337D01*
X36407000Y-117147881D01*
X36407000Y-116592119D01*
X36194320Y-116078663D01*
X35845000Y-115729343D01*
X35845000Y-107266751D01*
X36031701Y-107142001D01*
X36078287Y-107072280D01*
X45003339Y-98147229D01*
X45091231Y-98278769D01*
X45632055Y-98640136D01*
X46108969Y-98735000D01*
X46431031Y-98735000D01*
X46907945Y-98640136D01*
X47448769Y-98278769D01*
X47810136Y-97737945D01*
X47937031Y-97100000D01*
X47810136Y-96462055D01*
X47448769Y-95921231D01*
X46907945Y-95559864D01*
X46431031Y-95465000D01*
X46108969Y-95465000D01*
X45632055Y-95559864D01*
X45091231Y-95921231D01*
X44872137Y-96249128D01*
X44869699Y-96248643D01*
X44787466Y-96265000D01*
X44787463Y-96265000D01*
X44543899Y-96313448D01*
X44267699Y-96497999D01*
X44221115Y-96567717D01*
X35085227Y-105703606D01*
X35010000Y-105688642D01*
X34927763Y-105705000D01*
X33693341Y-105705000D01*
X33717000Y-105647881D01*
X33717000Y-105092119D01*
X33704020Y-105060782D01*
X34602576Y-104162227D01*
X34666029Y-104119829D01*
X34708427Y-104056376D01*
X34708429Y-104056374D01*
X34834003Y-103868438D01*
X34834004Y-103868437D01*
X34878100Y-103646752D01*
X34878100Y-103646748D01*
X34892988Y-103571901D01*
X34878100Y-103497054D01*
X34878100Y-98328264D01*
X34947611Y-98475134D01*
X35362577Y-98851041D01*
X35750961Y-99011904D01*
X35973000Y-98889915D01*
X35973000Y-97747000D01*
X36227000Y-97747000D01*
X36227000Y-98889915D01*
X36449039Y-99011904D01*
X36837423Y-98851041D01*
X37252389Y-98475134D01*
X37491914Y-97969041D01*
X38308086Y-97969041D01*
X38547611Y-98475134D01*
X38962577Y-98851041D01*
X39350961Y-99011904D01*
X39573000Y-98889915D01*
X39573000Y-97747000D01*
X39827000Y-97747000D01*
X39827000Y-98889915D01*
X40049039Y-99011904D01*
X40437423Y-98851041D01*
X40852389Y-98475134D01*
X41091914Y-97969041D01*
X40970629Y-97747000D01*
X39827000Y-97747000D01*
X39573000Y-97747000D01*
X38429371Y-97747000D01*
X38308086Y-97969041D01*
X37491914Y-97969041D01*
X37370629Y-97747000D01*
X36227000Y-97747000D01*
X35973000Y-97747000D01*
X35953000Y-97747000D01*
X35953000Y-97493000D01*
X35973000Y-97493000D01*
X35973000Y-96350085D01*
X36227000Y-96350085D01*
X36227000Y-97493000D01*
X37370629Y-97493000D01*
X37491914Y-97270959D01*
X38308086Y-97270959D01*
X38429371Y-97493000D01*
X39573000Y-97493000D01*
X39573000Y-96350085D01*
X39827000Y-96350085D01*
X39827000Y-97493000D01*
X40970629Y-97493000D01*
X41091914Y-97270959D01*
X40852389Y-96764866D01*
X40437423Y-96388959D01*
X40049039Y-96228096D01*
X39827000Y-96350085D01*
X39573000Y-96350085D01*
X39350961Y-96228096D01*
X38962577Y-96388959D01*
X38547611Y-96764866D01*
X38308086Y-97270959D01*
X37491914Y-97270959D01*
X37252389Y-96764866D01*
X36837423Y-96388959D01*
X36449039Y-96228096D01*
X36227000Y-96350085D01*
X35973000Y-96350085D01*
X35750961Y-96228096D01*
X35362577Y-96388959D01*
X34947611Y-96764866D01*
X34878100Y-96911736D01*
X34878100Y-95896701D01*
X39361698Y-91413104D01*
X39414561Y-91435000D01*
X39985439Y-91435000D01*
X40512862Y-91216534D01*
X40872274Y-90857122D01*
X42052581Y-90857122D01*
X42081336Y-91387440D01*
X42228958Y-91743831D01*
X42464725Y-91805669D01*
X43220395Y-91050000D01*
X42464725Y-90294331D01*
X42228958Y-90356169D01*
X42052581Y-90857122D01*
X40872274Y-90857122D01*
X40916534Y-90812862D01*
X41135000Y-90285439D01*
X41135000Y-89714561D01*
X40916534Y-89187138D01*
X40512862Y-88783466D01*
X39985439Y-88565000D01*
X39414561Y-88565000D01*
X38887138Y-88783466D01*
X38483466Y-89187138D01*
X38265000Y-89714561D01*
X38265000Y-90285439D01*
X38286896Y-90338302D01*
X33709994Y-94915205D01*
X33504320Y-94418663D01*
X33111337Y-94025680D01*
X32904487Y-93940000D01*
X33111337Y-93854320D01*
X33504320Y-93461337D01*
X33717000Y-92947881D01*
X33717000Y-92392119D01*
X33704020Y-92360782D01*
X33943173Y-92121629D01*
X34006629Y-92079229D01*
X34174604Y-91827837D01*
X34218700Y-91606152D01*
X34218700Y-91606147D01*
X34233588Y-91531300D01*
X34218700Y-91456453D01*
X34218700Y-89714561D01*
X34665000Y-89714561D01*
X34665000Y-90285439D01*
X34883466Y-90812862D01*
X35287138Y-91216534D01*
X35814561Y-91435000D01*
X36385439Y-91435000D01*
X36912862Y-91216534D01*
X37316534Y-90812862D01*
X37535000Y-90285439D01*
X37535000Y-89714561D01*
X37316534Y-89187138D01*
X36912862Y-88783466D01*
X36385439Y-88565000D01*
X35814561Y-88565000D01*
X35287138Y-88783466D01*
X34883466Y-89187138D01*
X34665000Y-89714561D01*
X34218700Y-89714561D01*
X34218700Y-78327848D01*
X34233588Y-78253000D01*
X34218700Y-78178152D01*
X34218700Y-78178148D01*
X34174604Y-77956463D01*
X34174604Y-77956462D01*
X34049029Y-77768527D01*
X34006629Y-77705071D01*
X33943173Y-77662671D01*
X30382100Y-74101599D01*
X30382100Y-73593494D01*
X30415530Y-73615831D01*
G36*
X33358101Y-99505996D02*
X33300213Y-99489392D01*
X32499605Y-100290000D01*
X33300213Y-101090608D01*
X33358100Y-101074004D01*
X33358100Y-101892443D01*
X33111337Y-101645680D01*
X32920353Y-101566572D01*
X33051143Y-101512397D01*
X33120608Y-101270213D01*
X32320000Y-100469605D01*
X32305858Y-100483748D01*
X32126253Y-100304143D01*
X32140395Y-100290000D01*
X32126253Y-100275858D01*
X32305858Y-100096253D01*
X32320000Y-100110395D01*
X33120608Y-99309787D01*
X33051143Y-99067603D01*
X32910607Y-99017465D01*
X33111337Y-98934320D01*
X33358101Y-98687556D01*
X33358101Y-99505996D01*
X33358101Y-99505996D01*
G37*
X33358101Y-99505996D02*
X33300213Y-99489392D01*
X32499605Y-100290000D01*
X33300213Y-101090608D01*
X33358100Y-101074004D01*
X33358100Y-101892443D01*
X33111337Y-101645680D01*
X32920353Y-101566572D01*
X33051143Y-101512397D01*
X33120608Y-101270213D01*
X32320000Y-100469605D01*
X32305858Y-100483748D01*
X32126253Y-100304143D01*
X32140395Y-100290000D01*
X32126253Y-100275858D01*
X32305858Y-100096253D01*
X32320000Y-100110395D01*
X33120608Y-99309787D01*
X33051143Y-99067603D01*
X32910607Y-99017465D01*
X33111337Y-98934320D01*
X33358101Y-98687556D01*
X33358101Y-99505996D01*
G36*
X55373748Y-100275858D02*
X55359605Y-100290000D01*
X55373748Y-100304143D01*
X55194143Y-100483748D01*
X55180000Y-100469605D01*
X55165858Y-100483748D01*
X54986253Y-100304143D01*
X55000395Y-100290000D01*
X54986253Y-100275858D01*
X55165858Y-100096253D01*
X55180000Y-100110395D01*
X55194143Y-100096253D01*
X55373748Y-100275858D01*
X55373748Y-100275858D01*
G37*
X55373748Y-100275858D02*
X55359605Y-100290000D01*
X55373748Y-100304143D01*
X55194143Y-100483748D01*
X55180000Y-100469605D01*
X55165858Y-100483748D01*
X54986253Y-100304143D01*
X55000395Y-100290000D01*
X54986253Y-100275858D01*
X55165858Y-100096253D01*
X55180000Y-100110395D01*
X55194143Y-100096253D01*
X55373748Y-100275858D01*
G36*
X50469375Y-76220625D02*
X50780000Y-76428178D01*
X50780001Y-80234748D01*
X50765112Y-80309600D01*
X50824097Y-80606137D01*
X50853186Y-80649671D01*
X50992072Y-80857529D01*
X51055528Y-80899929D01*
X52755400Y-82599803D01*
X52755401Y-95607173D01*
X52597765Y-95501843D01*
X52350000Y-95452560D01*
X52048797Y-95452560D01*
X52016687Y-95404504D01*
X51940329Y-95290226D01*
X51940327Y-95290224D01*
X51897929Y-95226771D01*
X51834475Y-95184373D01*
X51023900Y-94373799D01*
X51023900Y-92450901D01*
X51039801Y-92435000D01*
X51565548Y-92435000D01*
X52056217Y-92231758D01*
X52431758Y-91856217D01*
X52635000Y-91365548D01*
X52635000Y-90834452D01*
X52431758Y-90343783D01*
X52056217Y-89968242D01*
X51565548Y-89765000D01*
X51034452Y-89765000D01*
X50543783Y-89968242D01*
X50168242Y-90343783D01*
X50056721Y-90613017D01*
X49971042Y-90406169D01*
X49735275Y-90344331D01*
X48979605Y-91100000D01*
X48993748Y-91114143D01*
X48814143Y-91293748D01*
X48800000Y-91279605D01*
X48785858Y-91293748D01*
X48606253Y-91114143D01*
X48620395Y-91100000D01*
X48606252Y-91085858D01*
X48785858Y-90906252D01*
X48800000Y-90920395D01*
X49555669Y-90164725D01*
X49493831Y-89928958D01*
X48992878Y-89752581D01*
X48462560Y-89781336D01*
X48269609Y-89861259D01*
X48681883Y-89448985D01*
X48751601Y-89402401D01*
X48936152Y-89126201D01*
X48984600Y-88882637D01*
X49000958Y-88800400D01*
X48984600Y-88718163D01*
X48984600Y-85347440D01*
X50250000Y-85347440D01*
X50497765Y-85298157D01*
X50707809Y-85157809D01*
X50848157Y-84947765D01*
X50897440Y-84700000D01*
X50897440Y-83000000D01*
X50848157Y-82752235D01*
X50707809Y-82542191D01*
X50497765Y-82401843D01*
X50250000Y-82352560D01*
X48984600Y-82352560D01*
X48984600Y-79501537D01*
X49000958Y-79419300D01*
X48978401Y-79305900D01*
X48936152Y-79093499D01*
X48751601Y-78817299D01*
X48681880Y-78770713D01*
X48545400Y-78634233D01*
X48545400Y-76573667D01*
X48853744Y-76635000D01*
X49146256Y-76635000D01*
X49579418Y-76548839D01*
X50070625Y-76220625D01*
X50270000Y-75922239D01*
X50469375Y-76220625D01*
X50469375Y-76220625D01*
G37*
X50469375Y-76220625D02*
X50780000Y-76428178D01*
X50780001Y-80234748D01*
X50765112Y-80309600D01*
X50824097Y-80606137D01*
X50853186Y-80649671D01*
X50992072Y-80857529D01*
X51055528Y-80899929D01*
X52755400Y-82599803D01*
X52755401Y-95607173D01*
X52597765Y-95501843D01*
X52350000Y-95452560D01*
X52048797Y-95452560D01*
X52016687Y-95404504D01*
X51940329Y-95290226D01*
X51940327Y-95290224D01*
X51897929Y-95226771D01*
X51834475Y-95184373D01*
X51023900Y-94373799D01*
X51023900Y-92450901D01*
X51039801Y-92435000D01*
X51565548Y-92435000D01*
X52056217Y-92231758D01*
X52431758Y-91856217D01*
X52635000Y-91365548D01*
X52635000Y-90834452D01*
X52431758Y-90343783D01*
X52056217Y-89968242D01*
X51565548Y-89765000D01*
X51034452Y-89765000D01*
X50543783Y-89968242D01*
X50168242Y-90343783D01*
X50056721Y-90613017D01*
X49971042Y-90406169D01*
X49735275Y-90344331D01*
X48979605Y-91100000D01*
X48993748Y-91114143D01*
X48814143Y-91293748D01*
X48800000Y-91279605D01*
X48785858Y-91293748D01*
X48606253Y-91114143D01*
X48620395Y-91100000D01*
X48606252Y-91085858D01*
X48785858Y-90906252D01*
X48800000Y-90920395D01*
X49555669Y-90164725D01*
X49493831Y-89928958D01*
X48992878Y-89752581D01*
X48462560Y-89781336D01*
X48269609Y-89861259D01*
X48681883Y-89448985D01*
X48751601Y-89402401D01*
X48936152Y-89126201D01*
X48984600Y-88882637D01*
X49000958Y-88800400D01*
X48984600Y-88718163D01*
X48984600Y-85347440D01*
X50250000Y-85347440D01*
X50497765Y-85298157D01*
X50707809Y-85157809D01*
X50848157Y-84947765D01*
X50897440Y-84700000D01*
X50897440Y-83000000D01*
X50848157Y-82752235D01*
X50707809Y-82542191D01*
X50497765Y-82401843D01*
X50250000Y-82352560D01*
X48984600Y-82352560D01*
X48984600Y-79501537D01*
X49000958Y-79419300D01*
X48978401Y-79305900D01*
X48936152Y-79093499D01*
X48751601Y-78817299D01*
X48681880Y-78770713D01*
X48545400Y-78634233D01*
X48545400Y-76573667D01*
X48853744Y-76635000D01*
X49146256Y-76635000D01*
X49579418Y-76548839D01*
X50070625Y-76220625D01*
X50270000Y-75922239D01*
X50469375Y-76220625D01*
G36*
X33702560Y-63350000D02*
X33751843Y-63597765D01*
X33892191Y-63807809D01*
X34102235Y-63948157D01*
X34347711Y-63996985D01*
X34363448Y-64076100D01*
X34363449Y-64076101D01*
X34548000Y-64352301D01*
X34617718Y-64398885D01*
X35145001Y-64926169D01*
X35145001Y-65751160D01*
X34835477Y-65957977D01*
X34700841Y-66159474D01*
X34306924Y-65774027D01*
X33812980Y-65559437D01*
X33567000Y-65679406D01*
X33567000Y-67023000D01*
X33587000Y-67023000D01*
X33587000Y-67277000D01*
X33567000Y-67277000D01*
X33567000Y-68620594D01*
X33812980Y-68740563D01*
X34306924Y-68525973D01*
X34700841Y-68140526D01*
X34835477Y-68342023D01*
X35360590Y-68692891D01*
X35980000Y-68816100D01*
X36599411Y-68692891D01*
X37124523Y-68342023D01*
X37363077Y-67985000D01*
X37527033Y-67985000D01*
X42762115Y-73220083D01*
X42808699Y-73289801D01*
X43084899Y-73474352D01*
X43410700Y-73539158D01*
X43492937Y-73522800D01*
X45552133Y-73522800D01*
X45820583Y-73791251D01*
X45389375Y-74079375D01*
X45190000Y-74377761D01*
X44990625Y-74079375D01*
X44499418Y-73751161D01*
X44066256Y-73665000D01*
X43773744Y-73665000D01*
X43340582Y-73751161D01*
X42849375Y-74079375D01*
X42650000Y-74377761D01*
X42450625Y-74079375D01*
X41959418Y-73751161D01*
X41526256Y-73665000D01*
X41233744Y-73665000D01*
X40800582Y-73751161D01*
X40309375Y-74079375D01*
X40110000Y-74377761D01*
X39910625Y-74079375D01*
X39419418Y-73751161D01*
X38986256Y-73665000D01*
X38693744Y-73665000D01*
X38260582Y-73751161D01*
X37769375Y-74079375D01*
X37754904Y-74101033D01*
X37688327Y-73940302D01*
X37509699Y-73761673D01*
X37276310Y-73665000D01*
X36585750Y-73665000D01*
X36427000Y-73823750D01*
X36427000Y-75023000D01*
X36447000Y-75023000D01*
X36447000Y-75277000D01*
X36427000Y-75277000D01*
X36427000Y-76476250D01*
X36585750Y-76635000D01*
X37276310Y-76635000D01*
X37509699Y-76538327D01*
X37688327Y-76359698D01*
X37754904Y-76198967D01*
X37769375Y-76220625D01*
X38260582Y-76548839D01*
X38693744Y-76635000D01*
X38986256Y-76635000D01*
X39419418Y-76548839D01*
X39910625Y-76220625D01*
X40110000Y-75922239D01*
X40309375Y-76220625D01*
X40800582Y-76548839D01*
X41233744Y-76635000D01*
X41526256Y-76635000D01*
X41959418Y-76548839D01*
X42450625Y-76220625D01*
X42650000Y-75922239D01*
X42849375Y-76220625D01*
X43340582Y-76548839D01*
X43773744Y-76635000D01*
X44066256Y-76635000D01*
X44499418Y-76548839D01*
X44990625Y-76220625D01*
X45190000Y-75922239D01*
X45389375Y-76220625D01*
X45880582Y-76548839D01*
X46313744Y-76635000D01*
X46606256Y-76635000D01*
X46875400Y-76581464D01*
X46875401Y-78897862D01*
X46859043Y-78980100D01*
X46923848Y-79305900D01*
X46944671Y-79337063D01*
X47108400Y-79582101D01*
X47178118Y-79628685D01*
X47314600Y-79765167D01*
X47314600Y-82448994D01*
X47216890Y-82408524D01*
X46987000Y-82529845D01*
X46987000Y-83723000D01*
X47007000Y-83723000D01*
X47007000Y-83977000D01*
X46987000Y-83977000D01*
X46987000Y-85170155D01*
X47216890Y-85291476D01*
X47314601Y-85251005D01*
X47314601Y-88454531D01*
X46054133Y-89715000D01*
X45634452Y-89715000D01*
X45143783Y-89918242D01*
X45084963Y-89977062D01*
X40405341Y-85297440D01*
X40850000Y-85297440D01*
X41097765Y-85248157D01*
X41307809Y-85107809D01*
X41448157Y-84897765D01*
X41497440Y-84650000D01*
X41497440Y-84206892D01*
X45418514Y-84206892D01*
X45664817Y-84731358D01*
X46093076Y-85121645D01*
X46503110Y-85291476D01*
X46733000Y-85170155D01*
X46733000Y-83977000D01*
X45539181Y-83977000D01*
X45418514Y-84206892D01*
X41497440Y-84206892D01*
X41497440Y-83493108D01*
X45418514Y-83493108D01*
X45539181Y-83723000D01*
X46733000Y-83723000D01*
X46733000Y-82529845D01*
X46503110Y-82408524D01*
X46093076Y-82578355D01*
X45664817Y-82968642D01*
X45418514Y-83493108D01*
X41497440Y-83493108D01*
X41497440Y-82950000D01*
X41448157Y-82702235D01*
X41307809Y-82492191D01*
X41097765Y-82351843D01*
X40850000Y-82302560D01*
X39535600Y-82302560D01*
X39535600Y-80975946D01*
X39550488Y-80901099D01*
X39535600Y-80826252D01*
X39535600Y-80826248D01*
X39491504Y-80604563D01*
X39398326Y-80465112D01*
X39365929Y-80416626D01*
X39365927Y-80416624D01*
X39323529Y-80353171D01*
X39260076Y-80310773D01*
X35584302Y-76635000D01*
X36014250Y-76635000D01*
X36173000Y-76476250D01*
X36173000Y-75277000D01*
X34973750Y-75277000D01*
X34815000Y-75435750D01*
X34815000Y-75865698D01*
X33122993Y-74173691D01*
X34815000Y-74173691D01*
X34815000Y-74864250D01*
X34973750Y-75023000D01*
X36173000Y-75023000D01*
X36173000Y-73823750D01*
X36014250Y-73665000D01*
X35323690Y-73665000D01*
X35090301Y-73761673D01*
X34911673Y-73940302D01*
X34815000Y-74173691D01*
X33122993Y-74173691D01*
X31660000Y-72710699D01*
X31660000Y-68797440D01*
X31852500Y-68797440D01*
X32100265Y-68748157D01*
X32310309Y-68607809D01*
X32447255Y-68402857D01*
X32573076Y-68525973D01*
X33067020Y-68740563D01*
X33313000Y-68620594D01*
X33313000Y-67277000D01*
X33293000Y-67277000D01*
X33293000Y-67023000D01*
X33313000Y-67023000D01*
X33313000Y-65679406D01*
X33067020Y-65559437D01*
X32573076Y-65774027D01*
X32447255Y-65897143D01*
X32310309Y-65692191D01*
X32100265Y-65551843D01*
X31852500Y-65502560D01*
X31134841Y-65502560D01*
X33702560Y-62934842D01*
X33702560Y-63350000D01*
X33702560Y-63350000D01*
G37*
X33702560Y-63350000D02*
X33751843Y-63597765D01*
X33892191Y-63807809D01*
X34102235Y-63948157D01*
X34347711Y-63996985D01*
X34363448Y-64076100D01*
X34363449Y-64076101D01*
X34548000Y-64352301D01*
X34617718Y-64398885D01*
X35145001Y-64926169D01*
X35145001Y-65751160D01*
X34835477Y-65957977D01*
X34700841Y-66159474D01*
X34306924Y-65774027D01*
X33812980Y-65559437D01*
X33567000Y-65679406D01*
X33567000Y-67023000D01*
X33587000Y-67023000D01*
X33587000Y-67277000D01*
X33567000Y-67277000D01*
X33567000Y-68620594D01*
X33812980Y-68740563D01*
X34306924Y-68525973D01*
X34700841Y-68140526D01*
X34835477Y-68342023D01*
X35360590Y-68692891D01*
X35980000Y-68816100D01*
X36599411Y-68692891D01*
X37124523Y-68342023D01*
X37363077Y-67985000D01*
X37527033Y-67985000D01*
X42762115Y-73220083D01*
X42808699Y-73289801D01*
X43084899Y-73474352D01*
X43410700Y-73539158D01*
X43492937Y-73522800D01*
X45552133Y-73522800D01*
X45820583Y-73791251D01*
X45389375Y-74079375D01*
X45190000Y-74377761D01*
X44990625Y-74079375D01*
X44499418Y-73751161D01*
X44066256Y-73665000D01*
X43773744Y-73665000D01*
X43340582Y-73751161D01*
X42849375Y-74079375D01*
X42650000Y-74377761D01*
X42450625Y-74079375D01*
X41959418Y-73751161D01*
X41526256Y-73665000D01*
X41233744Y-73665000D01*
X40800582Y-73751161D01*
X40309375Y-74079375D01*
X40110000Y-74377761D01*
X39910625Y-74079375D01*
X39419418Y-73751161D01*
X38986256Y-73665000D01*
X38693744Y-73665000D01*
X38260582Y-73751161D01*
X37769375Y-74079375D01*
X37754904Y-74101033D01*
X37688327Y-73940302D01*
X37509699Y-73761673D01*
X37276310Y-73665000D01*
X36585750Y-73665000D01*
X36427000Y-73823750D01*
X36427000Y-75023000D01*
X36447000Y-75023000D01*
X36447000Y-75277000D01*
X36427000Y-75277000D01*
X36427000Y-76476250D01*
X36585750Y-76635000D01*
X37276310Y-76635000D01*
X37509699Y-76538327D01*
X37688327Y-76359698D01*
X37754904Y-76198967D01*
X37769375Y-76220625D01*
X38260582Y-76548839D01*
X38693744Y-76635000D01*
X38986256Y-76635000D01*
X39419418Y-76548839D01*
X39910625Y-76220625D01*
X40110000Y-75922239D01*
X40309375Y-76220625D01*
X40800582Y-76548839D01*
X41233744Y-76635000D01*
X41526256Y-76635000D01*
X41959418Y-76548839D01*
X42450625Y-76220625D01*
X42650000Y-75922239D01*
X42849375Y-76220625D01*
X43340582Y-76548839D01*
X43773744Y-76635000D01*
X44066256Y-76635000D01*
X44499418Y-76548839D01*
X44990625Y-76220625D01*
X45190000Y-75922239D01*
X45389375Y-76220625D01*
X45880582Y-76548839D01*
X46313744Y-76635000D01*
X46606256Y-76635000D01*
X46875400Y-76581464D01*
X46875401Y-78897862D01*
X46859043Y-78980100D01*
X46923848Y-79305900D01*
X46944671Y-79337063D01*
X47108400Y-79582101D01*
X47178118Y-79628685D01*
X47314600Y-79765167D01*
X47314600Y-82448994D01*
X47216890Y-82408524D01*
X46987000Y-82529845D01*
X46987000Y-83723000D01*
X47007000Y-83723000D01*
X47007000Y-83977000D01*
X46987000Y-83977000D01*
X46987000Y-85170155D01*
X47216890Y-85291476D01*
X47314601Y-85251005D01*
X47314601Y-88454531D01*
X46054133Y-89715000D01*
X45634452Y-89715000D01*
X45143783Y-89918242D01*
X45084963Y-89977062D01*
X40405341Y-85297440D01*
X40850000Y-85297440D01*
X41097765Y-85248157D01*
X41307809Y-85107809D01*
X41448157Y-84897765D01*
X41497440Y-84650000D01*
X41497440Y-84206892D01*
X45418514Y-84206892D01*
X45664817Y-84731358D01*
X46093076Y-85121645D01*
X46503110Y-85291476D01*
X46733000Y-85170155D01*
X46733000Y-83977000D01*
X45539181Y-83977000D01*
X45418514Y-84206892D01*
X41497440Y-84206892D01*
X41497440Y-83493108D01*
X45418514Y-83493108D01*
X45539181Y-83723000D01*
X46733000Y-83723000D01*
X46733000Y-82529845D01*
X46503110Y-82408524D01*
X46093076Y-82578355D01*
X45664817Y-82968642D01*
X45418514Y-83493108D01*
X41497440Y-83493108D01*
X41497440Y-82950000D01*
X41448157Y-82702235D01*
X41307809Y-82492191D01*
X41097765Y-82351843D01*
X40850000Y-82302560D01*
X39535600Y-82302560D01*
X39535600Y-80975946D01*
X39550488Y-80901099D01*
X39535600Y-80826252D01*
X39535600Y-80826248D01*
X39491504Y-80604563D01*
X39398326Y-80465112D01*
X39365929Y-80416626D01*
X39365927Y-80416624D01*
X39323529Y-80353171D01*
X39260076Y-80310773D01*
X35584302Y-76635000D01*
X36014250Y-76635000D01*
X36173000Y-76476250D01*
X36173000Y-75277000D01*
X34973750Y-75277000D01*
X34815000Y-75435750D01*
X34815000Y-75865698D01*
X33122993Y-74173691D01*
X34815000Y-74173691D01*
X34815000Y-74864250D01*
X34973750Y-75023000D01*
X36173000Y-75023000D01*
X36173000Y-73823750D01*
X36014250Y-73665000D01*
X35323690Y-73665000D01*
X35090301Y-73761673D01*
X34911673Y-73940302D01*
X34815000Y-74173691D01*
X33122993Y-74173691D01*
X31660000Y-72710699D01*
X31660000Y-68797440D01*
X31852500Y-68797440D01*
X32100265Y-68748157D01*
X32310309Y-68607809D01*
X32447255Y-68402857D01*
X32573076Y-68525973D01*
X33067020Y-68740563D01*
X33313000Y-68620594D01*
X33313000Y-67277000D01*
X33293000Y-67277000D01*
X33293000Y-67023000D01*
X33313000Y-67023000D01*
X33313000Y-65679406D01*
X33067020Y-65559437D01*
X32573076Y-65774027D01*
X32447255Y-65897143D01*
X32310309Y-65692191D01*
X32100265Y-65551843D01*
X31852500Y-65502560D01*
X31134841Y-65502560D01*
X33702560Y-62934842D01*
X33702560Y-63350000D01*
G36*
X35600001Y-58128178D02*
X35600001Y-58887797D01*
X32664976Y-61822822D01*
X32653864Y-61795995D01*
X32407745Y-61721861D01*
X31579605Y-62550000D01*
X31593748Y-62564143D01*
X31414143Y-62743748D01*
X31400000Y-62729605D01*
X31385858Y-62743748D01*
X31206253Y-62564143D01*
X31220395Y-62550000D01*
X31206253Y-62535858D01*
X31385858Y-62356253D01*
X31400000Y-62370395D01*
X32228139Y-61542255D01*
X32154005Y-61296136D01*
X32126244Y-61286158D01*
X35410706Y-58001696D01*
X35600001Y-58128178D01*
X35600001Y-58128178D01*
G37*
X35600001Y-58128178D02*
X35600001Y-58887797D01*
X32664976Y-61822822D01*
X32653864Y-61795995D01*
X32407745Y-61721861D01*
X31579605Y-62550000D01*
X31593748Y-62564143D01*
X31414143Y-62743748D01*
X31400000Y-62729605D01*
X31385858Y-62743748D01*
X31206253Y-62564143D01*
X31220395Y-62550000D01*
X31206253Y-62535858D01*
X31385858Y-62356253D01*
X31400000Y-62370395D01*
X32228139Y-61542255D01*
X32154005Y-61296136D01*
X32126244Y-61286158D01*
X35410706Y-58001696D01*
X35600001Y-58128178D01*
G04 #@! TD*
M02*
