M48
;DRILL file {KiCad (5.0.0)} date 09/04/19 21:02:59
;FORMAT={-:-/ absolute / metric / decimal}
FMAT,2
METRIC,TZ
T1C0.700
T2C0.800
T3C1.000
T4C1.100
T5C1.520
T6C3.200
%
G90
G05
M71
T1
X48.8Y-91.1
X51.3Y-91.1
X43.4Y-91.05
X45.9Y-91.05
T2
X53.9Y-61.63
X53.9Y-69.25
X50.9Y-61.63
X50.9Y-69.25
X36.1Y-90.
X36.1Y-97.62
X29.4Y-62.55
X31.4Y-62.55
X35.15Y-62.55
X37.15Y-62.55
X40.57Y-62.81
X40.57Y-65.35
X40.57Y-67.89
X48.19Y-62.81
X48.19Y-67.89
X39.7Y-90.
X39.7Y-97.62
X56.9Y-61.63
X56.9Y-69.25
T3
X47.77Y-56.85
X50.31Y-56.85
X52.85Y-56.85
X35.01Y-116.87
X35.01Y-119.41
X35.01Y-121.95
X35.01Y-124.49
X35.01Y-127.03
X52.79Y-116.87
X52.79Y-119.41
X52.79Y-121.95
X52.79Y-124.49
X52.79Y-127.03
X46.86Y-83.85
X49.4Y-83.85
X32.32Y-79.97
X32.32Y-82.51
X32.32Y-85.05
X32.32Y-87.59
X32.32Y-90.13
X32.32Y-92.67
X32.32Y-95.21
X32.32Y-97.75
X32.32Y-100.29
X32.32Y-102.83
X32.32Y-105.37
X32.32Y-107.91
X32.32Y-110.45
X32.32Y-112.99
X32.32Y-115.53
X32.32Y-118.07
X32.32Y-120.61
X32.32Y-123.15
X32.32Y-125.69
X32.32Y-128.23
X55.18Y-79.97
X55.18Y-82.51
X55.18Y-85.05
X55.18Y-87.59
X55.18Y-90.13
X55.18Y-92.67
X55.18Y-95.21
X55.18Y-97.75
X55.18Y-100.29
X55.18Y-102.83
X55.18Y-105.37
X55.18Y-107.91
X55.18Y-110.45
X55.18Y-112.99
X55.18Y-115.53
X55.18Y-118.07
X55.18Y-120.61
X55.18Y-123.15
X55.18Y-125.69
X55.18Y-128.23
X46.27Y-97.1
X51.35Y-97.1
X36.3Y-75.15
X38.84Y-75.15
X41.38Y-75.15
X43.92Y-75.15
X46.46Y-75.15
X49.Y-75.15
X51.54Y-75.15
X37.46Y-83.8
X40.Y-83.8
X33.82Y-56.85
X36.36Y-56.85
X38.9Y-56.85
X40.95Y-139.15
X43.49Y-139.15
X46.03Y-139.15
T4
X30.9Y-67.15
X33.44Y-67.15
X35.98Y-67.15
T5
X41.02Y-48.55
X46.1Y-48.55
T6
X55.2Y-48.5
X32.Y-138.5
X55.2Y-138.5
X32.Y-48.5
T0
M30
